<?xml version="1.0" standalone="no"?>
<!DOCTYPE svg PUBLIC "-//W3C//DTD SVG 1.1//EN" "http://www.w3.org/Graphics/SVG/1.1/DTD/svg11.dtd" >
<svg xmlns="http://www.w3.org/2000/svg" xmlns:xlink="http://www.w3.org/1999/xlink" version="1.1">
<metadata>
Created by FontForge 20161116 at Sat Sep  8 17:52:24 2001
 By Jimmy Warting
(c) Copyright 2001 by Tom Truong. All Rights Reserved
</metadata>
<defs>
<font id="UVNBachTuyetBold" horiz-adv-x="1706" >
  <font-face 
    font-family="UVN Bach Tuyet"
    font-weight="700"
    font-stretch="normal"
    units-per-em="2048"
    panose-1="2 9 7 3 7 5 5 2 4 3"
    ascent="1638"
    descent="-410"
    x-height="924"
    cap-height="1456"
    bbox="-344 -498 2740 2353"
    underline-thickness="190"
    underline-position="-312"
    unicode-range="U+0020-F002"
  />
<missing-glyph horiz-adv-x="1024" 
d="M128 0v2353h768v-2353h-768zM256 128h512v2097h-512v-2097z" />
    <glyph glyph-name=".notdef" horiz-adv-x="1024" 
d="M128 0v2353h768v-2353h-768zM256 128h512v2097h-512v-2097z" />
    <glyph glyph-name=".null" horiz-adv-x="0" 
 />
    <glyph glyph-name="nonmarkingreturn" horiz-adv-x="641" 
 />
    <glyph glyph-name="space" unicode=" " horiz-adv-x="641" 
 />
    <glyph glyph-name="exclam" unicode="!" horiz-adv-x="692" 
d="M176 1313q0 86 41 142q46 63 129 63t129 -63q41 -56 41 -142q0 -69 -67.5 -369t-67.5 -522q0 -43 -35 -43t-35 65q0 205 -67.5 499t-67.5 370zM176 147q0 73 48.5 121.5t121.5 48.5t121.5 -48.5t48.5 -121.5q0 -72 -49.5 -122t-120.5 -50q-72 0 -121 49.5t-49 122.5z" />
    <glyph glyph-name="quotedbl" unicode="&#x22;" horiz-adv-x="707" 
d="M543 852h-41l-80 461q-4 23 -4 37q0 114 104 114q105 0 105 -110q0 -18 -4 -41zM203 852h-41l-80 461q-2 12 -2 37q0 114 102 114q103 0 103 -110q0 -29 -2 -41z" />
    <glyph glyph-name="numbersign" unicode="#" horiz-adv-x="1575" 
d="M705 852l-91 -252h265l88 252h-262zM711 1464h215l-148 -415h254l150 415h213l-148 -415h283l-74 -199h-278l-88 -248h292l-71 -196h-291l-148 -416h-215l148 416h-254l-150 -416h-215l148 416h-289l74 196h287l88 248h-304l74 199h299z" />
    <glyph glyph-name="dollar" unicode="$" horiz-adv-x="1280" 
d="M948 1296l-55 -116q-6 -13 -6 -43q0 -47 41 -47q59 0 59 94q0 65 -39 112zM651 922l223 454q-106 64 -239 64q-115 0 -193 -63q-86 -67 -86 -179q0 -184 295 -276zM375 70q104 -50 241 -50q129 0 214 70q92 75 92 201q0 111 -99 188q-64 50 -198 101zM291 139
q53 106 53 150q0 80 -68 80q-59 0 -59 -82q0 -90 74 -148zM254 59q-174 135 -174 303q0 90 48 152q53 68 140 68q72 0 114 -52q38 -48 40 -122l102 206q-403 143 -403 430q0 199 161 329q150 122 353 122q132 0 268 -59l96 202q14 29 43 33q-1 0 58 0q24 0 24 -16
q0 -9 -133 -279q123 -111 123 -254q0 -82 -40 -139q-45 -65 -124 -65q-53 0 -88.5 38t-38.5 92l-73 -159q193 -66 292 -152q132 -115 132 -288q0 -229 -171 -363q-157 -123 -393 -123q-148 0 -264 49l-100 -202q-11 -23 -27 -23h-76q-12 4 -12 18q0 11 123 254z" />
    <glyph glyph-name="percent" unicode="%" horiz-adv-x="1864" 
d="M786 1321q74 -118 74 -266q0 -191 -113 -310q-115 -122 -305 -122q-185 0 -299 121q-110 118 -110 305q0 183 108 307q113 131 293 131q83 0 246 -58.5t244 -58.5q85 0 168 45q44 25 116 84q55 45 74 45h61q15 0 15 -16q0 -6 -709 -1579q-12 -27 -28 -27h-86
q-17 0 -17 15q0 6 647 1439q-116 -80 -231 -80q-52 0 -148 25zM1247 387q0 -362 172 -362q164 0 164 372q0 375 -168 375t-168 -385zM1004 393q0 187 108 309q113 127 297 127q190 0 305 -115.5t115 -305.5q0 -196 -110 -316q-114 -125 -308 -125q-187 0 -298 121
q-109 117 -109 305zM279 1042q0 -360 170 -360q165 0 165 371q0 377 -168 377q-167 0 -167 -388z" />
    <glyph glyph-name="ampersand" unicode="&#x26;" horiz-adv-x="1659" 
d="M979 166l-526 594q-99 -89 -99 -248q0 -179 119 -298.5t297 -119.5q123 0 209 72zM739 889q166 133 166 313q0 97 -44 156q-50 65 -144 65q-79 0 -129.5 -49.5t-50.5 -128.5q0 -119 202 -356zM1020 121q-219 -166 -467 -166q-196 0 -328 115q-139 120 -139 313
q0 302 338 422q-178 196 -178 338q0 168 146 261q125 79 302 79q147 0 255 -65q130 -77 130 -214q0 -121 -100 -220q-82 -82 -211 -132l397 -442q62 102 62 204q0 94 -58 131q-41 26 -146 36q-71 7 -71 32q0 29 64 29h565q59 0 59 -29q0 -22 -57 -32q-41 -7 -82 -13
q-100 -30 -185 -172q-17 -27 -116 -236q154 -156 193 -187q118 -95 241 -107q38 -3 77 -6q58 -9 58 -31q0 -29 -63 -29h-502q-51 0 -71 8.5t-54 46.5z" />
    <glyph glyph-name="quotesingle" unicode="'" horiz-adv-x="365" 
d="M203 852h-41l-80 461q-4 23 -4 37q0 114 104 114q103 0 103 -110q0 -29 -2 -41z" />
    <glyph glyph-name="parenleft" unicode="(" horiz-adv-x="909" 
d="M164 504q0 290 131 537q138 258 384 394q117 64 179 64q41 0 41 -16q0 -10 -88.5 -66.5t-148.5 -134.5q-195 -252 -195 -788q0 -497 180 -742q84 -115 204 -174q48 -24 48 -43q0 -14 -31 -14q-73 0 -200 72q-234 133 -371 388q-133 246 -133 523z" />
    <glyph glyph-name="parenright" unicode=")" horiz-adv-x="909" 
d="M748 504q0 -275 -135 -523q-139 -255 -372 -388q-126 -72 -200 -72q-29 0 -29 14q0 19 48 43q118 59 202 174q180 246 180 742q0 540 -192 788q-58 75 -147 133t-89 68q0 16 39 16q61 0 178 -64q245 -136 384 -395q133 -247 133 -536z" />
    <glyph glyph-name="asterisk" unicode="*" horiz-adv-x="1024" 
d="M526 1049v-11q0 -65 42 -166t42 -124q0 -93 -100 -93q-96 0 -96 93q0 26 40 118t40 187q-41 -25 -72 -53q-46 -57 -92 -113q-62 -74 -109 -74q-36 0 -64 35t-28 72q0 87 132 98q142 12 216 61q-74 47 -211 58t-137 98q0 39 27 72.5t65 33.5q47 0 107 -72q45 -55 90 -109
q32 -29 80 -56v6q0 69 -42 171t-42 124q0 92 98 92t98 -92q0 -26 -41 -118t-41 -187q74 40 136 127q81 114 137 114q37 0 65.5 -35t28.5 -73q0 -93 -131 -99q-144 -6 -219 -59q76 -47 203 -57q147 -11 147 -100q0 -38 -28.5 -72.5t-65.5 -34.5q-49 0 -109 74
q-90 113 -92 115q-34 30 -74 49z" />
    <glyph glyph-name="plus" unicode="+" 
d="M752 1221h202v-510h498v-199h-498v-512h-202v512h-498v199h498v510z" />
    <glyph glyph-name="comma" unicode="," horiz-adv-x="639" 
d="M399 -33q0 35 -39 35q2 0 -38.5 -13.5t-65.5 -13.5q-68 0 -107 44q-38 41 -38 110q0 77 48.5 128.5t125.5 51.5q102 0 161 -87q52 -76 52 -183q0 -95 -48 -206.5t-117 -177.5q-38 -36 -61 -36q-28 0 -28 27q0 10 77.5 127.5t77.5 193.5z" />
    <glyph glyph-name="hyphen" unicode="-" horiz-adv-x="682" 
d="M68 340l100 246h446l-98 -246h-448z" />
    <glyph glyph-name="hyphen" unicode="&#x2010;" horiz-adv-x="682" 
d="M68 340l100 246h446l-98 -246h-448z" />
    <glyph glyph-name="period" unicode="." horiz-adv-x="639" 
d="M150 147q0 73 48 121.5t121 48.5t123 -48.5t50 -121.5q0 -72 -50.5 -122t-122.5 -50t-120.5 50t-48.5 122z" />
    <glyph glyph-name="slash" unicode="/" horiz-adv-x="569" 
d="M657 1511l-507 -1701h-138l510 1701h135z" />
    <glyph glyph-name="zero" unicode="0" horiz-adv-x="1280" 
d="M641 1444q-262 0 -262 -752q0 -239 37 -402q63 -278 221 -278q262 0 262 725q0 245 -37 415q-63 292 -221 292zM61 705q0 144 34 270q58 218 195 356q155 156 365 156q184 0 329 -135q130 -121 191 -308q44 -139 44 -301q0 -293 -144 -517q-166 -259 -444 -259
q-266 0 -428 244q-142 214 -142 494z" />
    <glyph glyph-name="one" unicode="1" horiz-adv-x="1280" 
d="M494 1104q0 88 -27.5 112.5t-282.5 24.5q-59 0 -59 23q0 21 83 37q55 9 109 18q201 44 411 140q57 26 67 26q24 0 24 -35q0 -32 -4 -95.5t-4 -94.5v-914q0 -153 43 -213q31 -44 99 -60q32 -7 119 -13t87 -33t-53 -27h-922q-53 0 -53 25q0 26 68 34q46 2 91 4
q131 12 173 90q31 57 31 203v748z" />
    <glyph glyph-name="two" unicode="2" horiz-adv-x="1280" 
d="M143 240l23 2q55 188 231 188q92 0 309 -95q176 -77 242 -77q68 0 110 51q38 47 38 117q0 152 -117 152q-16 0 -46 -10.5t-46 -10.5q-33 0 -33 29q0 57 94 57q119 0 186 -100q58 -86 58 -211q0 -154 -86 -254q-91 -107 -242 -107q-109 0 -276 70q-133 57 -267 114
q-61 21 -94 21q-92 0 -92 -80q0 -19 35 -37.5t35 -38.5q0 -34 -41 -34q-92 0 -92 172q0 136 62 251t177 195q31 21 161 95q159 89 229 170q94 110 94 264q0 132 -66 213q-71 88 -201 88q-108 0 -204 -68q-105 -74 -105 -178q0 -92 64 -92q34 0 34 32q0 12 -13 27t-13 21
q0 16 20 16q63 0 111 -58q45 -55 45 -120q0 -75 -54 -121.5t-130 -46.5q-97 0 -157 61.5t-60 159.5q0 174 154.5 298t379.5 124q242 0 398.5 -120.5t156.5 -301.5q0 -212 -176 -321q-95 -58 -375 -132q-256 -67 -347 -144q-96 -81 -114 -230z" />
    <glyph glyph-name="three" unicode="3" horiz-adv-x="1280" 
d="M653 854l6 -16q94 18 156 18q170 0 271.5 -102.5t101.5 -272.5q0 -247 -197 -388q-175 -126 -432 -126q-198 0 -337 87q-165 103 -165 290q0 98 58 159.5t155 61.5q82 0 136.5 -50t54.5 -132q0 -57 -41 -96q-19 78 -82 78q-84 0 -84 -111q0 -107 91 -171q81 -58 192 -58
q154 0 239 100q80 94 80 250q0 175 -97.5 266.5t-273.5 91.5q-60 0 -142 -23q-18 -5 -24 -5q-24 0 -24 20q0 17 61 37q41 13 121 43q125 54 200 154q79 106 79 237q0 104 -56 171q-59 71 -161 71q-75 0 -147 -44q-81 -50 -81 -120q0 -31 58.5 -65t58.5 -97q0 -69 -49 -111.5
t-119 -42.5q-73 0 -121.5 46t-48.5 118q0 158 145.5 262.5t374.5 104.5q170 0 300 -71q159 -87 159 -244q0 -144 -143 -231q-107 -66 -273 -89z" />
    <glyph glyph-name="four" unicode="4" horiz-adv-x="1280" 
d="M596 397q-252 45 -371 45q-120 0 -223 -34q-7 -2 -16 -5q-25 0 -25 19t33 39q95 56 203 213q231 335 231 696q0 20 -2 60.5t-2 60.5q0 55 27 73q20 15 75 15q43 0 57 -31q9 -19 9 -69q0 -235 -134 -503q-112 -226 -296 -433l8 -6q64 38 147 38q77 0 277 -40v643
q0 33 84 68q154 64 256 143q77 61 88 61q25 0 25 -18q0 -17 -34 -56q-44 -51 -48 -57q-33 -52 -47.5 -115.5t-14.5 -171.5v-528q8 0 23.5 -1t23.5 -1q152 0 293 54q18 7 21 7q20 0 20 -10q0 -22 -26 -77t-48 -77q-35 -34 -196 -34q-93 0 -111 4v-45q0 -116 19 -164
q29 -74 122 -99l76 -8q56 -7 56 -28q0 -25 -54 -25h-749q-54 0 -54 25q0 24 59 29q148 12 188 100q28 60 30 243z" />
    <glyph glyph-name="five" unicode="5" horiz-adv-x="1280" 
d="M236 883q202 108 405 108q231 0 384 -127q163 -136 163 -362q0 -251 -198 -399q-179 -134 -439 -134q-225 0 -371.5 103.5t-146.5 255.5q0 83 55.5 138.5t138.5 55.5q91 0 147 -53t56 -143q0 -57 -35 -80q-24 67 -76 67q-83 0 -83 -96q0 -94 105 -146q84 -42 189 -42
q162 0 258.5 94.5t96.5 255.5q0 179 -115 274q-106 88 -289 88q-121 0 -260 -58q-36 -15 -43 -15q-24 0 -24 26q0 3 3 23q29 196 29 434q0 171 -27 309q-3 15 -3 17q0 34 26 34q35 0 37 -67h647q90 0 127 22q9 5 36 37q23 27 36 27q29 0 29 -23q0 -11 -13 -45l-90 -235
q-15 -39 -55 -39h-694z" />
    <glyph glyph-name="six" unicode="6" horiz-adv-x="1280" 
d="M401 473q0 -166 44 -281q64 -165 202 -165q142 0 209 147q49 108 49 270q0 459 -250 459q-139 0 -206 -155q-48 -114 -48 -275zM371 709q78 268 368 268q214 0 347 -128t133 -341q0 -243 -163 -394q-159 -147 -403 -147q-285 0 -446 215q-144 194 -144 488q0 234 115 449
q125 231 327 321q111 49 245 49q181 0 299 -77t118 -185q0 -58 -37.5 -99t-95.5 -41q-147 0 -147 144q0 15 6 43.5t6 42.5q0 119 -156 119q-352 0 -372 -727z" />
    <glyph glyph-name="seven" unicode="7" horiz-adv-x="1280" 
d="M1135 736q0 -38 -35 -38h-241q-40 -90 -68 -174q-67 -200 -91 -490q-3 -36 -20 -51q-20 -16 -64 -16h-251q-70 0 -70 41q0 42 56 178q104 251 297 512h-391q-35 0 -35 40q0 39 33 39h453q134 170 343 392h-529q-158 0 -250 -45q-16 -8 -72 -50q-51 -38 -57 -38
q-16 0 -16 23q0 6 14 40l158 386q18 45 41 45q11 0 31 -52q18 -46 96 -46h731q59 100 82 100t23 -21t-193 -345q-142 -238 -215 -389h203q37 0 37 -41z" />
    <glyph glyph-name="eight" unicode="8" horiz-adv-x="1280" 
d="M801 879q102 100 102 249q0 133 -74 219q-77 91 -208 91q-102 0 -175 -61q-77 -65 -77 -165q0 -124 161 -219q85 -50 271 -114zM406 700q-123 -144 -123 -333q0 -150 91 -248q93 -101 242 -101q131 0 219 69q97 75 97 202q0 116 -103 204q-99 83 -423 207zM354 731
q-237 104 -237 336q0 177 151.5 299.5t382.5 122.5q189 0 321 -75q161 -91 161 -267q0 -203 -281 -295q356 -137 356 -410q0 -201 -171.5 -340t-432.5 -139q-252 0 -407.5 111t-155.5 284q0 250 313 373z" />
    <glyph glyph-name="nine" unicode="9" horiz-adv-x="1280" 
d="M881 983q0 168 -43 283q-63 164 -203 164q-141 0 -207 -148q-49 -110 -49 -270q0 -457 248 -457q141 0 206 154q48 111 48 274zM911 750q-84 -271 -366 -271q-213 0 -347.5 128.5t-134.5 340.5q0 243 163 394q159 147 403 147q285 0 446 -214q144 -193 144 -487
q0 -313 -182 -556q-199 -265 -502 -265q-182 0 -300 77.5t-118 186.5q0 59 37.5 98.5t95.5 39.5q145 0 145 -144q0 -14 -5 -42t-5 -42q0 -121 154 -121q352 0 372 730z" />
    <glyph glyph-name="colon" unicode=":" horiz-adv-x="688" 
d="M172 147q0 72 50 121t122 49q73 0 121.5 -48.5t48.5 -121.5q0 -72 -49.5 -122t-120.5 -50q-72 0 -122 50t-50 122zM172 784q0 72 49.5 121t122.5 49t121.5 -48.5t48.5 -121.5q0 -71 -49.5 -120.5t-120.5 -49.5q-72 0 -122 49t-50 121z" />
    <glyph glyph-name="semicolon" unicode=";" horiz-adv-x="688" 
d="M426 -33q0 35 -39 35q2 0 -38.5 -13.5t-65.5 -13.5q-68 0 -107 42.5t-39 111.5q0 77 48.5 128.5t125.5 51.5q103 0 162 -87q51 -75 51 -183q0 -94 -48 -206.5t-116 -177.5q-38 -36 -61 -36q-29 0 -29 27q0 10 78 127.5t78 193.5zM145 784q0 72 49.5 121t122.5 49
t121.5 -48.5t48.5 -121.5q0 -72 -49 -121t-121 -49t-122 49t-50 121z" />
    <glyph glyph-name="less" unicode="&#x3c;" 
d="M1442 1194v-219l-893 -365l893 -364v-219l-1178 485v199z" />
    <glyph glyph-name="equal" unicode="=" 
d="M254 496h1198v-199h-1198v199zM254 926h1198v-199h-1198v199z" />
    <glyph glyph-name="greater" unicode="&#x3e;" 
d="M264 1194l1178 -483v-199l-1178 -485v219l895 364l-895 365v219z" />
    <glyph glyph-name="question" unicode="?" horiz-adv-x="1241" 
d="M287 1189q127 -51 127 -194q0 -72 -45.5 -121t-116.5 -49q-92 0 -147 76q-50 69 -50 164q0 184 162 309t410 125q219 0 373 -89q186 -109 186 -312q0 -77 -32 -141q-48 -96 -153 -155q-96 -43 -193 -87q-113 -53 -167.5 -127t-54.5 -166q0 -5 1 -14.5t1 -14.5
q0 -39 -31 -39q-35 0 -35 52q0 130 20 193q26 84 106 165q110 112 127 136q61 88 61 212q0 144 -75 232q-79 94 -220 94q-130 0 -230 -72q-112 -80 -112 -205q0 -65 49 -65q45 0 45 55q0 18 -6 38zM387 127q0 72 50 122t122 50q73 0 121.5 -49.5t48.5 -122.5q0 -72 -49 -121
t-121 -49t-122 49t-50 121z" />
    <glyph glyph-name="at" unicode="@" horiz-adv-x="2019" 
d="M1176 319q-121 -196 -295 -196q-149 0 -229 99q-74 90 -74 243q0 203 149 373q154 176 354 176q189 0 222 -183l49 164h190l-174 -618q-16 -57 -16 -94q0 -101 75 -101q31 0 85 25q151 71 235 236q76 150 76 329q0 286 -199 456q-188 161 -479 161q-370 0 -612 -253
q-238 -250 -238 -622q0 -344 218 -540q210 -189 558 -189q326 0 627 207l39 -51q-302 -226 -666 -226q-285 0 -499 104q-243 117 -358 353q-81 165 -81 363q0 394 299 663q290 260 688 260q335 0 545 -176q223 -187 223 -516q0 -161 -59 -299q-61 -145 -169 -239
q-123 -109 -265 -109q-205 0 -219 200zM1118 948q-61 0 -112 -44q-80 -70 -151 -252q-67 -174 -67 -290q0 -172 127 -172q132 0 237 237q89 202 89 355q0 166 -123 166z" />
    <glyph glyph-name="A" unicode="A" horiz-adv-x="1485" 
d="M289 221q0 -135 129 -162q65 -14 65 -32q0 -27 -53 -27h-477q-53 0 -53 27q0 26 26 26q97 0 184.5 91.5t151.5 261.5l322 854q-11 14 -59 44q-42 27 -42 35q0 11 68 43q44 21 88 41q55 33 109 91q51 57 59 57q18 0 63 -133l361 -1065q61 -180 103 -233q50 -64 173 -83
q56 -9 56 -30q0 -27 -54 -27h-749q-55 0 -55 31q0 19 56 23q94 7 129 21q66 27 66 99q0 46 -45 184l-63 193h-461q-29 -79 -59 -157q-39 -115 -39 -173zM829 610l-200 615l-223 -615h423z" />
    <glyph glyph-name="B" unicode="B" horiz-adv-x="1540" 
d="M573 813h267q266 0 266 299q0 297 -291 297q-142 0 -194 -59q-48 -55 -48 -199v-338zM573 762v-504q0 -203 242 -203q342 0 342 361q0 180 -84 263t-264 83h-236zM70 0q-58 0 -58 31q0 22 45 29q78 12 96 19q60 21 86 76q31 65 31 312v522q0 240 -25 303q-23 57 -70 80
q-32 17 -105 25q-58 6 -58 30q0 29 58 29h817q512 0 512 -344q0 -272 -361 -317q439 -54 439 -385q0 -219 -194 -326q-153 -84 -392 -84h-821z" />
    <glyph glyph-name="C" unicode="C" horiz-adv-x="1493" 
d="M1411 1051q0 -27 -22 -27t-59 61q-218 357 -474 357q-255 0 -368 -249q-82 -181 -82 -472q0 -703 477 -703q296 0 444 273q15 38 31 76q23 53 47 53q33 0 33 -37q0 -26 -30 -87q-166 -339 -570 -339q-338 0 -555 211.5t-217 548.5q0 339 204 558q208 224 545 224
q75 0 175 -18.5t118 -18.5q55 0 77 47t29 47q21 0 33 -34l160 -449q4 -11 4 -22z" />
    <glyph glyph-name="D" unicode="D" horiz-adv-x="1698" 
d="M70 0q-58 0 -58 31q0 24 61 32q130 16 166 92q31 65 31 312v522q0 240 -25 303q-23 57 -70 80q-33 17 -105 25q-58 6 -58 30q0 29 58 29h743q196 0 313 -33q224 -64 362 -264q132 -193 132 -432q0 -238 -133 -430q-138 -200 -361 -264q-117 -33 -313 -33h-743zM578 1118
v-780q0 -161 41 -216q50 -67 204 -67q449 0 449 672q0 300 -81 458q-110 214 -380 214q-148 0 -195 -69q-38 -55 -38 -212z" />
    <glyph glyph-name="E" unicode="E" horiz-adv-x="1516" 
d="M12 31q0 25 61 32q131 15 166 92q31 67 31 296v553q0 223 -25 288q-36 92 -175 105q-58 5 -58 30q0 29 58 29h704q296 0 363 31q18 9 50 43q30 31 32 31q20 0 38 -43l166 -403q11 -27 11 -34q0 -18 -25 -18q-14 0 -66.5 66t-109.5 112q-205 164 -434 164q-128 0 -177 -63
q-44 -55 -44 -187v-342h90q232 0 298 29q97 42 108 205q4 65 30 65q29 0 29 -68v-542q0 -76 -29 -76q-22 0 -35 113q-26 221 -291 221h-200v-436q0 -151 48 -208q53 -61 201 -61q200 0 343 80q132 74 255 243q53 73 68 73q20 0 20 -27q0 -13 -12 -39l-235 -512
q-15 -33 -33 -33q-15 0 -28 31q-17 41 -21 45q-37 44 -121 64t-254 20h-739q-58 0 -58 31z" />
    <glyph glyph-name="F" unicode="F" horiz-adv-x="1346" 
d="M578 452q0 -219 28 -284q40 -95 192 -107q62 -5 62 -30q0 -31 -63 -31h-727q-58 0 -58 31q0 22 47 32q84 16 97 21q60 22 83 72q31 66 31 295v553q0 223 -25 288q-36 93 -175 104q-58 4 -58 29q0 31 58 31h651q296 0 360 31q30 14 53.5 44t28.5 30q21 0 39 -43
q176 -428 176 -437q0 -18 -22 -18q-18 0 -58 53q-44 57 -73 84q-92 87 -206 143q-128 62 -241 62q-115 0 -162 -71q-38 -57 -38 -179v-342h167q240 0 267 171q4 37 7 74q8 54 30 54q28 0 28 -68v-542q0 -76 -28 -76q-22 0 -35 112q-26 222 -291 222h-145v-308z" />
    <glyph glyph-name="G" unicode="G" horiz-adv-x="1688" 
d="M1636 760q60 0 60 -31q0 -25 -53 -32q-69 -8 -100 -25q-43 -24 -65 -80q-26 -65 -26 -260q0 -154 28 -253q2 -4 3 -11q0 -21 -25 -21q-11 3 -40 13q-40 12 -79 12q-61 0 -188 -39q-247 -76 -365 -76q-314 0 -520 225q-200 218 -200 535q0 338 208 558q212 224 547 224
q91 0 199.5 -20.5t122.5 -20.5q59 0 82 48t28 48q23 0 35 -32q166 -460 166 -471q0 -27 -24 -27q-17 0 -90 108q-90 132 -175 200q-135 108 -301 108q-458 0 -458 -713q0 -274 69 -452q100 -257 330 -257q173 0 268 125q86 112 86 291q0 139 -38.5 194.5t-155.5 66.5
q-103 10 -103 34q0 31 64 31h710z" />
    <glyph glyph-name="H" unicode="H" horiz-adv-x="1782" 
d="M1204 1004q0 220 -27 286q-40 95 -192 107q-61 5 -61 30q0 29 63 29h725q57 0 57 -29q0 -25 -61 -32q-130 -15 -165 -91q-32 -69 -32 -299v-553q0 -218 26 -283q36 -95 176 -107q56 -5 56 -31q0 -31 -57 -31h-725q-63 0 -63 31q0 25 66 32q143 15 181 91q33 67 33 297
v311h-626v-310q0 -219 28 -284q40 -95 192 -107q62 -5 62 -30q0 -31 -64 -31h-726q-58 0 -58 31q0 25 61 32q131 15 166 92q31 67 31 296v553q0 223 -25 288q-36 92 -175 105q-58 5 -58 30q0 29 58 29h727q63 0 63 -29q0 -25 -66 -32q-143 -14 -182 -93q-34 -69 -34 -297
v-186h626v185z" />
    <glyph glyph-name="I" unicode="I" horiz-adv-x="862" 
d="M793 1456q59 0 59 -31q0 -25 -59 -29q-143 -11 -181 -105q-26 -65 -26 -287v-552q0 -222 26 -286q38 -93 181 -103q59 -5 59 -32q0 -31 -59 -31h-723q-60 0 -60 31q0 25 60 30q143 10 181 105q25 63 25 284v552q0 222 -25 286q-37 93 -181 104q-60 4 -60 31q0 33 60 33
h723z" />
    <glyph glyph-name="J" unicode="J" horiz-adv-x="1327" 
d="M788 1003q0 219 -27 283q-41 94 -193 107q-62 5 -62 30q0 33 63 33h727q58 0 58 -33q0 -24 -58 -30q-68 -7 -99 -21q-46 -20 -69 -70q-32 -68 -32 -315v-477q0 -166 -24 -239q-61 -188 -280 -269q-120 -45 -280 -45q-219 0 -360 83q-172 102 -172 306q0 91 46 150
q51 65 140 65q67 0 107 -39t40 -106q0 -53 -58 -110.5t-58 -96.5q0 -95 109 -148q86 -43 192 -43q201 0 259 158q31 82 31 327v500z" />
    <glyph glyph-name="K" unicode="K" horiz-adv-x="1698" 
d="M578 452q0 -218 28 -284q39 -95 192 -107q62 -5 62 -30q0 -31 -64 -31h-726q-58 0 -58 31q0 22 46 29q79 13 97 19q59 22 84 76q31 68 31 296v553q0 223 -25 288q-35 92 -175 105q-58 5 -58 30q0 29 58 29h727q63 0 63 -29q0 -25 -66 -32q-144 -14 -182 -93
q-34 -70 -34 -297v-331q147 138 165 158q84 92 119 192l14 60q11 44 23 44q14 0 32 -43q12 -29 23 -58q220 195 220 284q0 59 -55 75q-14 4 -103 9q-55 4 -55 32q0 29 57 29h602q57 0 57 -29q0 -26 -65 -35q-105 -14 -232 -86q-99 -56 -210 -153q-14 -12 -191 -176l457 -690
q128 -194 235 -221q29 -4 58 -9q40 -8 40 -28q0 -29 -63 -29h-737q-58 0 -58 29q0 27 59 32q98 7 108 10q59 15 59 68q0 43 -68 148l-311 479l-180 -162v-152z" />
    <glyph glyph-name="L" unicode="L" horiz-adv-x="1427" 
d="M12 31q0 25 61 32q131 15 166 92q31 67 31 296v553q0 223 -25 288q-36 93 -175 104q-58 4 -58 29q0 31 58 31h727q63 0 63 -29q0 -25 -66 -32q-143 -14 -182 -93q-34 -69 -34 -297v-691q0 -138 44 -193q50 -64 183 -64q319 0 546 324q50 70 66 70q21 0 21 -27
q0 -11 -13 -39l-235 -512q-15 -33 -31 -33q-14 0 -28 31q-18 41 -21 45q-37 44 -121 64t-254 20h-665q-58 0 -58 31z" />
    <glyph glyph-name="M" unicode="M" horiz-adv-x="2019" 
d="M330 425q0 -158 39 -246q46 -105 185 -118q62 -6 62 -32q0 -29 -63 -29h-479q-58 0 -58 29q0 19 30 27q23 3 45 6q90 15 134.5 107t44.5 263v580q0 224 -25 285q-36 85 -164 98q-50 5 -50 30q0 31 59 31h414q59 0 74 -10.5t38 -65.5l369 -864l418 873q22 46 39.5 56.5
t68.5 10.5h435q63 0 63 -31q0 -25 -57 -29q-131 -9 -170 -86q-33 -66 -33 -297v-571q0 -251 47.5 -318t181.5 -67q33 0 33 -28q0 -29 -63 -29h-707q-59 0 -59 29q0 22 45 29q82 14 96 18q59 20 84 70q33 65 33 297v896l-418 -866q11 -8 66 -28q45 -17 45 -27q0 -15 -52 -45
q-55 -32 -90 -66q-43 -42 -85.5 -111t-61.5 -69q-17 0 -43 61l-471 1121v-884z" />
    <glyph glyph-name="N" unicode="N" horiz-adv-x="1663" 
d="M330 459q0 -178 40 -271q48 -115 188 -128q58 -5 58 -31q0 -29 -63 -29h-469q-59 0 -59 29q0 21 30 27q22 2 45 5q82 14 126 116t44 278v856q-30 53 -97 71q-13 3 -108 13q-51 5 -51 30q0 31 58 31h506q32 0 45 -13q12 -31 43 -91l671 -1002v673q0 161 -39 251
q-47 110 -188 121q-59 5 -59 30q0 31 63 31h477q60 0 60 -31q0 -21 -30 -27q-23 -2 -46 -5q-91 -16 -134.5 -109t-43.5 -270v-729q30 -38 82.5 -60t52.5 -35q0 -10 -56 -36q-111 -54 -187 -141q-44 -50 -50 -50q-16 0 -51 53l-858 1293v-850z" />
    <glyph glyph-name="O" unicode="O" 
d="M422 723q0 -715 424 -715q250 0 359 246q79 177 79 463q0 729 -422 729q-249 0 -360 -254q-80 -183 -80 -469zM70 739q0 342 224 552q220 206 564 206q351 0 565.5 -211t214.5 -561q0 -344 -226 -558q-222 -210 -568 -210q-354 0 -564 214t-210 568z" />
    <glyph glyph-name="P" unicode="P" horiz-adv-x="1442" 
d="M578 452q0 -220 28 -284q40 -94 192 -107q62 -5 62 -30q0 -31 -63 -31h-727q-58 0 -58 31q0 22 46 29q78 12 96 19q60 21 85 76q31 66 31 296v553q0 224 -25 288q-37 92 -175 104q-58 4 -58 29q0 31 58 31h784q183 0 285 -28q155 -43 227 -161q47 -79 47 -175
q0 -271 -313 -348q-135 -33 -522 -33v-259zM578 762h188q324 0 324 330q0 315 -295 315q-123 0 -172 -56q-45 -52 -45 -177v-412z" />
    <glyph glyph-name="Q" unicode="Q" 
d="M422 723q0 -717 424 -717q251 0 361 245q79 178 79 464q0 733 -424 733q-250 0 -361 -254q-79 -183 -79 -471zM854 -45q-365 5 -575 212q-213 209 -213 572q0 340 227 552q222 208 565 208q350 0 566 -213.5t216 -562.5q0 -397 -294 -608q-79 -56 -233 -113
q-220 -80 -246 -92q18 2 53 2q119 0 294.5 -79t262.5 -79q182 0 254 154q9 36 19 72q13 51 32 51q24 0 24 -39q0 -29 -21 -110q-99 -380 -364 -380q-94 0 -162 38q-41 23 -199 192q-128 139 -218 139q-82 0 -82 -49q0 -11 53 -49.5t53 -112.5q0 -65 -46.5 -106t-112.5 -41
q-68 0 -111 45.5t-43 113.5q0 166 301 283z" />
    <glyph glyph-name="R" unicode="R" horiz-adv-x="1565" 
d="M578 762h59q148 0 248 102q6 6 33 51q23 39 32 39q10 0 20 -62q5 -41 11 -81q115 88 115 266q0 330 -303 330q-123 0 -171 -56q-44 -52 -44 -177v-412zM578 452q0 -220 28 -285q40 -96 192 -108q62 -5 62 -30q0 -29 -63 -29h-727q-58 0 -58 29q0 25 61 32q130 15 166 92
q31 68 31 298v553q0 223 -25 288q-36 91 -175 105q-58 5 -58 30q0 29 58 29h782q184 0 286 -28q156 -43 228 -161q47 -79 47 -175q0 -161 -121 -259q-102 -83 -274 -110l282 -469q47 -79 97 -124q66 -61 161 -71q56 -6 56 -30q0 -29 -64 -29h-383q-68 0 -92 41l-387 670
h-110v-259z" />
    <glyph glyph-name="S" unicode="S" horiz-adv-x="1319" 
d="M1171 1077q0 -33 -24 -33q-20 0 -71 75l-64 100q-64 94 -173 155q-112 62 -223 62q-125 0 -211 -57q-100 -66 -100 -185q0 -98 90 -166q37 -28 343 -111l124 -34q383 -107 383 -414q0 -234 -181 -371q-164 -125 -405 -125q-67 0 -147.5 12.5t-89.5 12.5
q-48 0 -90.5 -54.5t-48.5 -54.5q-14 0 -29 33q-223 503 -223 506q0 33 26 33q14 0 98 -111q103 -135 200 -206q152 -111 329 -111q130 0 219 65q101 72 101 197q0 180 -435 304q-245 70 -341 133q-165 109 -165 302q0 209 172 339q157 118 373 118q67 0 156.5 -16.5
t105.5 -16.5q46 0 71 47t32 47q12 0 28 -39l160 -397q10 -25 10 -39z" />
    <glyph glyph-name="T" unicode="T" horiz-adv-x="1554" 
d="M932 452q0 -219 28 -284q39 -95 191 -107q61 -5 61 -30q0 -31 -64 -31h-740q-64 0 -64 31q0 25 66 32q141 14 179 89q34 67 34 299v694q0 151 -32.5 203.5t-117.5 52.5q-103 0 -210 -88q-66 -53 -155 -162q-71 -88 -85 -88q-23 0 -23 27q0 7 172 417q23 54 39 54
q9 0 30 -25q26 -31 31 -35q59 -45 360 -45h296q271 0 332 31q17 9 49 43q29 31 34 31q16 0 39 -54l164 -391q8 -19 8 -26q0 -27 -22 -27q-15 0 -86 88q-88 109 -153 162q-108 88 -212 88q-84 0 -116.5 -52.5t-32.5 -203.5v-693z" />
    <glyph glyph-name="U" unicode="U" horiz-adv-x="1677" 
d="M8 1427q0 29 55 29h715q64 0 64 -29q0 -25 -67 -32q-141 -15 -180 -91q-34 -67 -34 -299v-621q0 -82 11 -132q49 -225 368 -225q234 0 335 117q95 109 95 348v526q0 172 -40 260q-29 64 -74 89q-36 20 -113 28q-62 6 -62 32q0 29 58 29h473q63 0 63 -29q0 -20 -33 -26
l-48 -6q-79 -15 -121.5 -110.5t-42.5 -262.5v-561q0 -279 -153 -396q-135 -102 -425 -102q-182 0 -326 51q-188 67 -243 204q-29 70 -29 216v555q0 238 -24 301q-36 93 -167 106q-55 5 -55 31z" />
    <glyph glyph-name="V" unicode="V" horiz-adv-x="1460" 
d="M-86 1427q0 29 57 29h721q64 0 64 -29q0 -25 -65 -31q-93 -7 -120 -17q-65 -24 -65 -95q0 -45 63 -201l303 -749l242 653q68 183 68 254q0 139 -170 155q-60 6 -60 31q0 29 60 29h458q64 0 64 -29q0 -19 -45 -33l-64 -18q-58 -27 -127 -136.5t-131 -272.5l-258 -682
q25 -38 71 -59t46 -36t-62.5 -43t-105.5 -59q-46 -33 -91.5 -83t-55.5 -50q-16 0 -45 72l-461 1142q-80 197 -189 220l-60 8q-42 8 -42 30z" />
    <glyph glyph-name="W" unicode="W" horiz-adv-x="1982" 
d="M1714 1229q0 93 -63 131q-33 20 -118 33q-63 10 -63 34q0 29 58 29h463q63 0 63 -29q0 -17 -34 -30q-25 -7 -50 -15q-75 -31 -133 -130q-59 -102 -106 -281l-185 -707q11 -23 52 -62q36 -35 36 -42q0 -10 -65 -39q-42 -18 -84 -37q-52 -30 -98.5 -74.5t-55.5 -44.5
q-15 0 -35 64l-295 968l-204 -733q11 -23 52 -62q36 -35 36 -42q0 -11 -64 -39l-84 -37q-50 -29 -98 -74t-57 -45q-15 0 -35 64l-309 1011q-38 126 -64 187q-56 130 -111 153q-35 7 -69 15q-49 11 -49 32q0 29 59 29h604q64 0 64 -29q0 -24 -43 -30q-60 -8 -80 -21
q-43 -27 -43 -102q0 -72 37 -193l225 -737l205 733q-52 187 -89 241t-102 71l-46 10q-31 10 -31 28q0 29 57 29h596q63 0 63 -29q0 -22 -44 -31q-61 -12 -80 -24q-44 -27 -44 -94q0 -70 39 -197l226 -737l159 647q37 151 37 238z" />
    <glyph glyph-name="X" unicode="X" horiz-adv-x="1608" 
d="M645 725l-293 432q-46 68 -63 90q-37 51 -72 82q-64 57 -162 66q-57 5 -57 30q0 31 63 31h719q58 0 58 -31q0 -22 -47 -27q-73 -6 -89 -12q-47 -17 -47 -69q0 -56 50 -131l196 -295l139 186q88 118 88 197q0 73 -62 100q-28 12 -115 21q-62 6 -62 30q0 31 65 31h584
q59 0 59 -31q0 -23 -49 -31q-107 -18 -217 -108q-98 -79 -210 -212q-94 -116 -187 -232l366 -545q82 -123 141 -171q66 -56 177 -67q59 -6 59 -30q0 -29 -63 -29h-795q-57 0 -57 29q0 27 58 32q90 6 107 12q58 18 58 79q0 58 -47 129l-260 395l-189 -275q-92 -134 -92 -221
q0 -76 54 -103q26 -13 99 -21q54 -5 54 -27q0 -29 -63 -29h-602q-60 0 -60 29q0 23 75 32q97 12 219 108t243 255z" />
    <glyph glyph-name="Y" unicode="Y" horiz-adv-x="1450" 
d="M852 452q0 -219 28 -285q39 -96 193 -108q62 -5 62 -30q0 -29 -64 -29h-743q-64 0 -64 29q0 25 67 32q142 14 180 91q34 69 34 299v208l-328 525q-34 56 -114 155q-44 41 -91 50l-64 8q-46 8 -46 30q0 29 59 29h686q64 0 64 -29q0 -22 -51 -27q-78 -8 -95 -14
q-51 -18 -51 -71q0 -24 35 -82l285 -469l217 317q90 131 90 205q0 55 -29 79q-26 21 -122 32q-81 9 -81 30q0 29 58 29h516q63 0 63 -29q0 -23 -56 -34q-109 -22 -194 -97q-79 -71 -190 -233l-254 -371v-240z" />
    <glyph glyph-name="Z" unicode="Z" horiz-adv-x="1380" 
d="M1288 1430q0 -19 -20 -48l-910 -1327h310q181 0 290 36q131 44 240 161q47 50 95 126q45 71 65 71q26 0 26 -25q0 -9 -14 -39l-237 -511q-16 -34 -31 -34t-28 31q-17 41 -21 45q-37 44 -121.5 64t-253.5 20h-631q-57 0 -57 31q0 15 26 53l902 1319h-190q-299 0 -490 -160
q-56 -47 -105 -112q-52 -68 -70 -68q-22 0 -22 27q1 2 10 24l166 404q18 43 39 43q8 0 27 -25q23 -29 28 -33q33 -26 112 -36q76 -11 275 -11h543q47 0 47 -26z" />
    <glyph glyph-name="bracketleft" unicode="[" horiz-adv-x="909" 
d="M559 -352q0 -82 84 -82h219q39 0 39 -25q0 -26 -37 -26h-493q-82 0 -82 84v1771q0 86 86 86h489q37 0 37 -26q0 -25 -39 -25h-219q-84 0 -84 -82v-1675z" />
    <glyph glyph-name="backslash" unicode="\" horiz-adv-x="569" 
d="M-90 1511h137l510 -1701h-137z" />
    <glyph glyph-name="bracketright" unicode="]" horiz-adv-x="909" 
d="M352 -352v1675q0 82 -84 82h-221q-37 0 -37 25q0 26 37 26h488q86 0 86 -86v-1771q0 -84 -82 -84h-496q-33 0 -33 26q0 25 37 25h221q84 0 84 82z" />
    <glyph glyph-name="asciicircum" unicode="^" horiz-adv-x="2048" 
d="M905 1462h236l491 -565h-112l-498 373l-498 -373h-112z" />
    <glyph glyph-name="underscore" unicode="_" horiz-adv-x="1024" 
d="M0 -279h1024v-204h-1024v204z" />
    <glyph glyph-name="grave" unicode="`" horiz-adv-x="1024" 
d="M707 1069h-91l-313 164q-94 49 -94 108q0 91 90 91q55 0 135 -82z" />
    <glyph glyph-name="a" unicode="a" horiz-adv-x="1133" 
d="M668 150q-136 -185 -338 -185q-119 0 -197 65q-84 69 -84 185q0 186 233 278q137 53 390 80v123q0 213 -170 213q-46 0 -84 -21q-45 -25 -45 -67q0 -6 18.5 -48t18.5 -71q0 -131 -164 -131q-62 0 -103 36.5t-41 97.5q0 103 119.5 178t298.5 75q116 0 216 -31
q168 -53 206 -161q14 -42 14 -188v-357q0 -129 78 -129q37 0 69.5 49t43.5 49q24 0 24 -30q0 -88 -91 -142q-77 -47 -171 -47q-204 0 -241 179zM672 514q-130 -11 -219 -73q-107 -73 -107 -193q0 -60 33 -98q35 -41 94 -41q102 0 156 95q43 77 43 187v123z" />
    <glyph glyph-name="b" unicode="b" horiz-adv-x="1309" 
d="M455 453q0 -424 243 -424q228 0 228 438q0 420 -215 420q-146 0 -210 -154q-46 -110 -46 -280zM186 1188q0 87 -34 118q-25 23 -104 29q-66 5 -66 25q0 21 65 34q43 6 86 13q130 27 266 93q37 18 43 18q19 0 19 -31v-711q109 176 311 176q200 0 330 -145
q125 -139 125 -342q0 -219 -139 -357.5t-359 -138.5q-104 0 -233.5 47t-157.5 47q-68 0 -111 -53t-59 -53q-19 0 -21 33q39 113 39 287v911z" />
    <glyph glyph-name="c" unicode="c" horiz-adv-x="1030" 
d="M59 432q0 235 163 383q158 143 396 143q131 0 224 -48q119 -61 119 -179q0 -66 -42.5 -101.5t-109.5 -35.5q-65 0 -104 39t-39 104q0 14 5 43t5 43q0 36 -30.5 56t-67.5 20q-125 0 -190 -110q-52 -89 -52 -224q0 -177 84 -306q98 -150 266 -150q76 0 149 42q46 26 103 77
q46 42 55 42q19 0 19 -18q0 -20 -28 -58t-75 -77q-179 -148 -393 -148q-207 0 -332 128t-125 335z" />
    <glyph glyph-name="d" unicode="d" horiz-adv-x="1298" 
d="M823 1188q0 81 -32 115q-29 29 -105 33q-65 3 -65 24t64 34q44 6 87 13q133 28 265 93q36 18 42 18q21 0 21 -31v-1276q0 -124 107 -150q30 -5 59 -9q43 -9 43 -27q0 -25 -56 -25h-370q-60 0 -60 61v84q-89 -176 -309 -176q-200 0 -330 146q-125 140 -125 342
q0 206 134.5 350.5t338.5 144.5q189 0 291 -143v379zM831 465q0 420 -245 420q-226 0 -226 -434q0 -414 215 -414q256 0 256 428z" />
    <glyph glyph-name="e" unicode="e" horiz-adv-x="1104" 
d="M328 484l364 124q43 15 43 43q0 22 -18 71q-60 165 -193 165q-105 0 -161 -99q-46 -80 -46 -194q0 -50 11 -110zM348 434q110 -305 340 -305q177 0 294 176q28 43 46 43q21 0 21 -22q0 -28 -35 -83q-83 -127 -220 -201.5t-288 -74.5q-199 0 -325 126t-126 325
q0 222 170 380q166 154 389 154q213 0 328 -139q24 -38 74 -88q15 -5 29 -9q18 -7 18 -22q0 -22 -57 -41z" />
    <glyph glyph-name="f" unicode="f" horiz-adv-x="729" 
d="M500 211q0 -124 113 -150q31 -4 62 -9q46 -9 46 -27q0 -25 -59 -25h-582q-53 0 -53 25q0 18 39 27q28 4 56 9q101 26 101 150v649h-160q-45 0 -45 33q0 31 45 31h101q63 0 66 84q3 91 14 154q29 171 178 268q135 88 317 88q254 0 254 -156q0 -52 -36 -84.5t-89 -32.5
q-71 0 -108 54q-5 7 -47 101q-24 54 -62 54q-104 0 -136 -173q-15 -79 -15 -251v-106h176q35 0 35 -31q0 -33 -33 -33h-178v-649z" />
    <glyph glyph-name="g" unicode="g" horiz-adv-x="1128" 
d="M379 594q0 -305 174 -305q117 0 158 108q26 67 26 209q0 134 -25 201q-39 108 -149 108q-184 0 -184 -321zM248 336q-142 114 -142 266q0 182 157 277q131 79 325 79q60 0 164 -28q152 211 268 211q46 0 81.5 -29t35.5 -74q0 -52 -33.5 -85t-85.5 -33q-38 0 -84.5 30.5
t-48.5 30.5q-43 0 -84 -72q211 -98 211 -299q0 -182 -149 -280q-129 -84 -320 -84q-124 0 -248 53q-49 -29 -49 -82q0 -52 53 -74q49 -20 258 -20q362 0 463.5 -57t101.5 -193q0 -152 -163.5 -245t-440.5 -93q-166 0 -286 36q-183 55 -183 181q0 65 57 100q47 29 117 29
q52 0 53 -20l-36 -50q-19 -29 -19 -59q0 -92 127 -135q87 -29 203 -29q131 0 240 37q153 52 153 156q0 65 -54 92q-46 23 -384 23q-183 0 -273 29q-153 50 -153 194q0 117 168 217z" />
    <glyph glyph-name="h" unicode="h" horiz-adv-x="1290" 
d="M494 213q0 -116 74 -148q22 -7 43 -14q30 -11 30 -26q0 -25 -53 -25h-512q-53 0 -53 25q0 17 94 41q102 26 102 145v977q0 81 -32 115q-30 30 -108 33q-65 3 -65 24q0 24 72 34q178 24 345 106q36 18 42 18q21 0 21 -31v-696q149 89 192 109q113 54 211 54q126 0 174 -70
q39 -58 39 -192v-481q0 -118 90 -145q26 -6 51 -13q35 -11 35 -28q0 -25 -47 -25h-496q-53 0 -53 25q0 15 29 26l42 14q75 33 75 148v442q0 86 -16 119q-24 51 -99 51q-66 0 -227 -98v-514z" />
    <glyph glyph-name="i" unicode="i" horiz-adv-x="692" 
d="M698 25q0 -25 -53 -25h-563q-53 0 -53 25q0 18 39 27q28 4 56 9q101 26 101 150v407q0 83 -33 118q-29 30 -105 33q-64 3 -64 24q0 24 67 32q51 7 83 13q127 26 265 93q35 17 43 17q19 0 19 -30v-707q0 -124 103 -150q28 -5 56 -9q39 -9 39 -27zM188 1147q0 70 48 118
t118 48q69 0 117.5 -48.5t48.5 -117.5t-48.5 -117.5t-117.5 -48.5q-70 0 -118 48t-48 118z" />
    <glyph glyph-name="j" unicode="j" horiz-adv-x="682" 
d="M193 1147q0 70 47.5 118t117.5 48t118 -48t48 -118t-48 -118t-118 -48t-117.5 48t-47.5 118zM229 618q0 83 -32 118q-30 31 -107 33q-65 3 -65 24q0 20 64 32q43 7 86 13q128 26 269 94q33 16 39 16q21 0 21 -30v-750q0 -285 -79 -434q-105 -199 -362 -199
q-118 0 -200 37q-109 50 -109 154q0 52 31.5 86t83.5 34q61 0 92 -42q20 -27 40 -98q34 -122 95 -122q92 0 120 167q13 74 13 236v631z" />
    <glyph glyph-name="k" unicode="k" horiz-adv-x="1298" 
d="M494 207q0 -110 74 -142l44 -14q29 -11 29 -26q0 -25 -53 -25h-512q-53 0 -53 25q0 17 94 41q102 26 102 145v977q0 81 -32 115q-30 31 -108 33q-65 3 -65 24q0 25 72 34q177 23 345 106q36 18 42 18q21 0 21 -31v-1032q123 87 159 138q3 4 97 179q14 0 29 -35
q9 -24 18 -49l48 44q23 26 23 59q0 50 -43 66q-14 6 -80 14q-43 5 -43 26q0 27 60 27h461q39 0 39 -29q0 -20 -55 -33q-168 -40 -378 -223l246 -393q61 -97 103 -136q33 -31 81 -44q80 -21 80 -41q0 -25 -47 -25h-518q-55 0 -55 25q0 12 48 34t48 54q0 34 -33 86l-174 272
l-114 -86v-178z" />
    <glyph glyph-name="l" unicode="l" horiz-adv-x="692" 
d="M690 25q0 -25 -53 -25h-561q-53 0 -53 25q0 18 38 27q28 4 55 9q103 26 103 150v977q0 80 -32 114.5t-111 34.5q-62 0 -62 23q0 25 72 34q178 23 345 106q36 18 42 18q21 0 21 -31v-1276q0 -123 101 -149l56 -10q39 -9 39 -27z" />
    <glyph glyph-name="m" unicode="m" horiz-adv-x="1896" 
d="M496 213q0 -116 74 -148q22 -7 43 -14q30 -11 30 -26q0 -25 -55 -25h-510q-53 0 -53 25q0 17 94 41q102 26 102 145v407q0 83 -33 118q-30 31 -107 33q-65 3 -65 24q0 23 69 32q177 22 348 106q35 17 42 17q21 0 21 -30v-127q138 86 189 110q112 53 210 53
q190 0 207 -166q137 86 191 112q113 54 212 54q125 0 172 -71q39 -58 39 -191v-481q0 -118 88 -145q25 -6 51 -13q35 -11 35 -28q0 -25 -47 -25h-491q-54 0 -54 25q0 15 30 27q23 7 45 14q71 32 71 147v442q0 87 -15 120q-24 54 -98 54q-66 0 -225 -102v-514q0 -115 73 -147
q22 -7 44 -15q30 -11 30 -26q0 -25 -55 -25h-457q-53 0 -53 25q0 15 30 26q21 7 43 14q73 32 73 148v442q0 86 -15 120q-24 54 -98 54q-50 0 -118 -36q-53 -33 -107 -66v-514z" />
    <glyph glyph-name="n" unicode="n" horiz-adv-x="1294" 
d="M500 791q136 84 190 110q113 53 211 53q126 0 174 -70q39 -58 39 -192v-481q0 -117 92 -145q26 -6 51 -13q35 -11 35 -28q0 -25 -55 -25h-489q-54 0 -54 25q0 15 30 26q22 8 44 15q72 32 72 147v442q0 87 -15 121q-25 53 -100 53q-66 0 -225 -102v-514q0 -116 72 -148
q22 -7 43 -14q30 -11 30 -26q0 -25 -53 -25h-512q-53 0 -53 25q0 17 40 28q28 7 56 13q62 16 83 55q17 30 17 90v407q0 83 -33 118q-30 30 -106 33q-64 3 -64 24q0 23 69 32q178 22 348 106q34 17 42 17q21 0 21 -30v-127z" />
    <glyph glyph-name="o" unicode="o" horiz-adv-x="1239" 
d="M375 469q0 -449 241 -449q248 0 248 435q0 452 -250 452q-239 0 -239 -438zM53 467q0 224 179 363q165 128 395 128q234 0 391 -126q168 -136 168 -365t-175 -369q-163 -131 -397 -131q-242 0 -396 127q-165 136 -165 373z" />
    <glyph glyph-name="p" unicode="p" horiz-adv-x="1298" 
d="M463 457q0 -420 246 -420q225 0 225 434q0 416 -215 416q-145 0 -210 -152q-46 -109 -46 -278zM471 -225q0 -124 109 -150q30 -5 61 -9q43 -9 43 -28q0 -24 -57 -24h-584q-57 0 -57 24q0 20 43 28q31 5 61 9q107 26 107 150v848q0 81 -32 115q-30 30 -108 33
q-65 3 -65 24q0 20 65 33l86 14q126 27 265 93q35 17 43 17q20 0 20 -30v-146q109 176 305 176q202 0 333 -144q126 -138 126 -343q0 -206 -133 -349q-136 -147 -340 -147q-188 0 -291 144v-338z" />
    <glyph glyph-name="q" unicode="q" horiz-adv-x="1276" 
d="M1100 -225q0 -123 103 -150q28 -5 56 -9q39 -9 39 -28q0 -24 -53 -24h-563q-55 0 -55 24q0 19 40 28q29 4 57 9q101 25 101 150v377q-96 -177 -311 -177q-200 0 -330 145q-125 140 -125 343q0 217 140.5 357.5t357.5 140.5q97 0 228.5 -48.5t168.5 -48.5q50 0 101 51.5
t59 51.5q25 0 25 -29q0 -3 -6 -24q-33 -121 -33 -244v-895zM831 475q0 426 -245 426q-226 0 -226 -440q0 -418 215 -418q256 0 256 432z" />
    <glyph glyph-name="r" unicode="r" horiz-adv-x="985" 
d="M500 211q0 -84 43 -118q33 -26 122 -39q52 -7 52 -29q0 -25 -60 -25h-577q-53 0 -53 25q0 17 39 27q28 6 56 11q101 25 101 148v407q0 83 -33 118q-30 30 -106 33q-64 3 -64 24q0 23 69 32q178 22 348 106q34 17 42 17q21 0 21 -30v-125q157 163 301 163q76 0 125 -38
q53 -41 53 -115q0 -64 -42 -106t-106 -42q-78 0 -126.5 73t-75.5 73q-50 0 -129 -88v-502z" />
    <glyph glyph-name="s" unicode="s" horiz-adv-x="1038" 
d="M78 340q0 29 20 29q23 0 54 -55q165 -291 421 -291q179 0 179 145q0 113 -287 184q-236 59 -304.5 120.5t-68.5 174.5q0 141 115 228q104 79 250 79q62 0 139 -15t90 -15q38 0 64.5 28.5t27.5 28.5q18 0 29 -35l82 -262q6 -19 6 -35q0 -22 -23 -22q-15 0 -44 49
q-11 19 -35 57q-126 172 -301 172q-64 0 -108 -31q-50 -35 -50 -96q0 -111 277 -178q170 -41 244 -87q122 -75 122 -212q0 -153 -124 -246q-112 -84 -271 -84q-62 0 -143 17.5t-101 17.5q-39 0 -78 -33.5t-47 -33.5q-10 0 -24 41q-8 22 -109 339q-2 6 -2 21z" />
    <glyph glyph-name="t" unicode="t" horiz-adv-x="815" 
d="M180 860h-166q-39 0 -39 33t60 33q168 0 268 137q27 37 45 79q18 72 49 162q10 13 23 13q35 0 35 -62v-331h254q41 0 41 -33q0 -31 -43 -31h-252v-645q0 -170 139 -170q74 0 121 46q26 27 54 86q22 46 36 46q22 0 22 -24q0 -116 -112 -180q-92 -52 -217 -52
q-158 0 -229 46q-89 57 -89 204v643z" />
    <glyph glyph-name="u" unicode="u" horiz-adv-x="1284" 
d="M-27 793q0 23 69 32q177 22 348 106q35 17 42 17q21 0 21 -30v-639q0 -93 13 -126q24 -57 101 -57q50 0 119 37q55 33 109 66v419q0 83 -33 118q-29 30 -107 33q-65 3 -65 24q0 23 69 32q176 22 347 106q35 17 43 17q20 0 20 -30v-707q0 -124 91 -150q26 -5 52 -9
q35 -9 35 -27q0 -25 -49 -25h-348q-47 0 -53 25q-2 10 -2 30v80q-146 -88 -192 -110q-114 -54 -212 -54q-125 0 -174 71q-39 58 -39 191v385q0 83 -33 118q-30 31 -107 33q-65 3 -65 24z" />
    <glyph glyph-name="v" unicode="v" horiz-adv-x="1028" 
d="M-80 901q0 23 53 23h572q53 0 53 -23q0 -19 -85 -35.5t-85 -70.5q0 -28 23 -84l176 -428l129 288q53 118 53 193q0 55 -41 82q-19 12 -76 27q-41 10 -41 28q0 23 54 23h352q53 0 53 -23q0 -18 -39 -31q-88 -29 -152 -112q-52 -68 -100 -174l-164 -361q19 -29 52.5 -51.5
t33.5 -32.5t-50 -34q-32 -14 -64 -29q-47 -25 -95 -73t-55 -48q-10 0 -35 60l-280 671q-72 172 -135 172q-107 0 -107 43z" />
    <glyph glyph-name="w" unicode="w" horiz-adv-x="1587" 
d="M791 575l-136 -352q22 -31 55 -53t33 -31l-133 -73q-39 -21 -82 -66t-51 -45q-11 0 -29 45l-6 15l-280 671q-61 147 -141 174q-23 7 -45 13q-31 12 -31 28q0 23 53 23h467q53 0 53 -23q0 -9 -46 -36t-46 -64q0 -29 25 -90l176 -428l137 352q-24 65 -34 88q-22 48 -47 82
q-42 53 -96 68q-36 10 -36 28q0 23 53 23h504q53 0 53 -23q0 -20 -76.5 -40t-76.5 -66q0 -30 22 -84l174 -428l109 288q49 129 49 191q0 55 -41 81q-17 11 -76 27q-41 12 -41 31q0 23 53 23h351q53 0 53 -23q0 -19 -42 -33q-93 -30 -152 -116q-52 -74 -103 -203l-127 -322
q19 -32 53.5 -54.5t34.5 -31.5q0 -11 -49 -35l-64 -30q-46 -25 -95.5 -73t-57.5 -48q-10 0 -35 59z" />
    <glyph glyph-name="x" unicode="x" horiz-adv-x="1128" 
d="M408 446l-222 299q-44 60 -73 83q-32 24 -76 38q-55 18 -55 35q0 23 53 23h489q54 0 54 -23q0 -16 -48.5 -33.5t-48.5 -44.5q0 -22 27 -63l110 -168q113 132 113 203q0 39 -50 68t-50 38q0 23 53 23h373q55 0 55 -23q0 -22 -54 -32q-101 -19 -185 -80q-64 -46 -224 -236
l271 -360q38 -51 78 -81q49 -37 125 -57q44 -11 44 -30q0 -25 -53 -25h-571q-56 0 -56 25q0 20 68 35.5t68 56.5q0 28 -41 86l-146 205l-96 -123q-55 -70 -55 -127q0 -53 39 -78q17 -11 73 -26q39 -11 39 -29q0 -25 -53 -25h-401q-54 0 -54 25q0 15 32 26q24 8 47 15
q118 57 227 192q4 5 174 188z" />
    <glyph glyph-name="y" unicode="y" horiz-adv-x="1028" 
d="M-82 901q0 23 55 23h572q53 0 53 -23q0 -22 -85 -40.5t-85 -65.5q0 -28 23 -84l176 -428l129 288q53 118 53 193q0 54 -41 79q-16 10 -76 26q-41 12 -41 32q0 23 54 23h354q53 0 53 -23q0 -18 -40 -31q-90 -30 -151 -111q-55 -72 -102 -175l-164 -361q44 -41 88 -84
q0 -5 -74 -42.5t-124 -108.5q-23 -33 -68 -128q-70 -149 -120 -212q-90 -113 -201 -113q-79 0 -128 42q-53 45 -53 122q0 66 42.5 105.5t109.5 39.5q51 0 112.5 -56t84.5 -56q64 0 147 248l-309 706q-69 157 -157 178q-26 5 -51 10q-36 9 -36 27z" />
    <glyph glyph-name="z" unicode="z" horiz-adv-x="1012" 
d="M616 877h-79q-190 0 -326 -138q-39 -40 -74.5 -100.5t-52.5 -60.5q-25 0 -25 22q0 8 156 346q18 39 33 39q-1 0 34.5 -30.5t88.5 -30.5h528q53 0 53 -21q0 -14 -22 -45l-570 -809h82q109 0 219.5 45.5t184.5 122.5q31 32 66 90q33 55 51 55q20 0 20 -22q0 -11 -10 -33
l-174 -383q-12 -26 -25 -26t-26 27q-18 35 -23 40q-35 35 -240 35h-387q-42 0 -56 5q-17 5 -17 13q0 21 32 66z" />
    <glyph glyph-name="braceleft" unicode="{" horiz-adv-x="1024" 
d="M852 1516v-61q-120 -3 -164.5 -54.5t-44.5 -210.5v-133q0 -226 -54 -307.5t-196 -114.5q142 -32 197 -113q52 -79 52 -296v-57v-56q0 -190 45 -242.5t165 -55.5v-59q-236 0 -320 72q-87 74 -87 310q0 22 1 66t1 65q0 190 -56.5 252t-212.5 77v76q156 15 212.5 77
t56.5 251q0 22 -1 65.5t-1 65.5q0 236 87 310q84 73 320 73z" />
    <glyph glyph-name="bar" unicode="|" horiz-adv-x="1024" 
d="M410 1565h206v-2048h-206v2048z" />
    <glyph glyph-name="braceright" unicode="}" horiz-adv-x="1024" 
d="M172 1516q237 0 323 -73.5t86 -309.5q0 -22 -1 -66t-1 -65q0 -189 56.5 -251t212.5 -77v-76q-156 -15 -212 -77t-56 -249v-66q1 -45 1 -67q0 -234 -85 -308.5t-324 -74.5v59q118 2 164 55.5t46 243.5v56.5v56.5q0 216 53.5 296t195.5 112q-142 33 -195.5 114t-53.5 296
v55.5v54.5q0 190 -46 244t-164 56v61z" />
    <glyph glyph-name="asciitilde" unicode="~" 
d="M1530 803v-221q-202 -138 -379 -138q-93 0 -255 56q-217 75 -333 75q-165 0 -385 -157v221q212 143 387 143q86 0 295 -59q73 -24 145 -47q86 -27 150 -27q163 0 375 154z" />
    <glyph glyph-name="exclamdown" unicode="&#xa1;" horiz-adv-x="692" 
d="M516 1327q0 -72 -49 -121t-121 -49t-121 49t-49 121t49 121t121 49t121 -49t49 -121zM516 162q0 -86 -41 -142q-46 -63 -129 -63t-129 63q-41 56 -41 142q0 68 67.5 367t67.5 522q0 43 35 43t35 -64q0 -205 67.5 -498.5t67.5 -369.5z" />
    <glyph glyph-name="cent" unicode="&#xa2;" horiz-adv-x="1280" 
d="M580 0l-158 -332q-12 -25 -32 -31q-7 -2 -46 -2q-25 0 -25 23q0 10 166 354q-154 40 -242 166q-85 120 -85 283q0 234 163 382q157 144 394 144q115 0 219 -45l98 205q12 26 30 31q7 2 46 2q27 0 27 -25q0 -8 -127 -268q51 -65 51 -127q0 -145 -178 -137l-222 -459
q70 -29 127 -29q140 0 255 129q29 33 49 33q18 0 18 -27q0 -22 -61 -84q-182 -186 -467 -186zM582 215l217 449q-35 28 -35 104q0 14 5 42t5 42q0 76 -98 76q-125 0 -190 -110q-52 -89 -52 -224q0 -253 148 -379z" />
    <glyph glyph-name="sterling" unicode="&#xa3;" horiz-adv-x="1280" 
d="M502 109q-71 67 -142 133q-105 88 -165 88q-54 0 -90.5 -38.5t-36.5 -92.5q0 -84 73 -127q59 -35 150 -35q106 0 211 72zM543 63q-128 -79 -273 -79q-110 0 -183 48q-85 56 -85 161q0 109 95 171q82 54 196 54q155 0 381 -114q6 42 6 67q0 80 -147 209q-22 20 -205 159
h-164q-47 0 -47 37q0 35 63 35h84q-110 112 -110 264q0 195 157 312q142 106 344 106q59 0 148 -16.5t115 -16.5q24 0 51.5 36t36.5 36q19 0 36 -41l158 -379q6 -14 6 -27q0 -24 -14 -24q-20 0 -59 61q-201 316 -428 316q-111 0 -179.5 -67.5t-68.5 -178.5q0 -107 98 -217
q53 -60 184 -164h283q41 0 41 -35q0 -37 -45 -37h-207q74 -78 74 -190q0 -164 -129 -270q137 -52 229 -52q73 0 117.5 41.5t44.5 114.5q0 104 -92 106q-6 0 -17 -1t-16 -1q-45 0 -45 39q0 41 51 41q84 0 141 -87q50 -77 50 -165q0 -163 -91 -262q-94 -102 -256 -102
q-190 0 -329 112z" />
    <glyph glyph-name="currency" unicode="&#xa4;" horiz-adv-x="1280" 
d="M1200 354q0 -127 -116.5 -258t-301.5 -131q-235 0 -394 175q-141 155 -185 401h-117q-29 0 -29 26q0 54 43 54h92q-6 56 -6 112q0 55 6 111h-106q-29 0 -29 26q0 54 43 54h105q46 232 192 390q163 177 385 177q32 0 86 -10.5t76 -10.5q32 0 54 31q18 27 36 55
q22 0 31 -32l119 -443q2 -7 2 -16q0 -25 -25 -25q-12 0 -69 103q-71 130 -123 192q-86 103 -168 103q-233 0 -285 -514h510q29 0 29 -27q0 -53 -43 -53h-504q-4 -56 -4 -164q0 -10 1 -30t1 -29h438q29 0 29 -27q0 -53 -43 -53h-420q16 -193 72 -323q83 -191 237 -191
q116 0 205 96q82 87 104 207q11 59 35 59q37 0 37 -35z" />
    <glyph glyph-name="yen" unicode="&#xa5;" horiz-adv-x="1432" 
d="M1100 1034h248q32 0 32 -41q0 -35 -26 -35q-1 0 -5 1.5t-6 1.5h-296l-152 -230h453q32 0 32 -47q0 -33 -37 -33h-479v-205q0 -218 27 -283q39 -93 188 -104q60 -5 60 -30q0 -29 -62 -29h-725q-63 0 -63 29q0 24 61 30q143 13 180 91q33 69 33 296v205h-479q-35 0 -35 39
q0 41 33 41h430l-137 230h-291q-35 0 -35 38q0 24 4.5 29.5t28.5 5.5h240q-42 73 -83 145q-53 87 -101 135q-46 45 -95 56q-31 4 -62 9q-44 8 -44 30q0 29 57 29h670q63 0 63 -29q0 -23 -50 -28q-78 -8 -92 -13q-50 -17 -50 -68q0 -30 32 -83l279 -461l213 311
q86 126 86 203q0 55 -28 78q-24 19 -119 30q-80 10 -80 31q0 29 57 29h506q61 0 61 -29q0 -18 -35 -28q-26 -6 -51 -11q-98 -27 -200 -139q-78 -98 -156 -197z" />
    <glyph glyph-name="brokenbar" unicode="&#xa6;" horiz-adv-x="1024" 
d="M410 408h206v-758h-206v758zM410 1432h206v-758h-206v758z" />
    <glyph glyph-name="section" unicode="&#xa7;" horiz-adv-x="1024" 
d="M262 762q0 -45 29 -90q38 -61 158 -162q132 -109 186 -109t91.5 37.5t37.5 91.5q0 38 -27 81q-46 70 -156 160q-124 103 -190 103q-53 0 -89 -29q-40 -32 -40 -83zM659 336q175 -127 175 -291q0 -130 -109 -203q-94 -63 -231 -63q-127 0 -220 44q-120 58 -120 171
q0 66 38.5 106.5t104.5 40.5q54 0 91.5 -34t37.5 -87q0 -40 -35 -78t-35 -46q0 -56 117 -56q73 0 121 34q55 38 55 108t-207 245l-184 156q-174 148 -174 299q0 116 83 186q76 65 195 72q-180 147 -180 277q0 138 97 212q87 68 229 68q127 0 215 -45q113 -57 113 -172
q0 -143 -138 -143q-51 0 -89 29q-42 31 -42 81q0 37 33 83t33 52q0 24 -37 42q-32 16 -59 16q-162 0 -162 -127q0 -66 82 -153q29 -30 135 -120l176 -149q174 -147 174 -303q0 -113 -87 -183q-79 -63 -196 -69z" />
    <glyph glyph-name="dieresis" unicode="&#xa8;" horiz-adv-x="1024" 
d="M573 1233q0 49 36 84t85 35t84 -35t35 -84q0 -54 -32.5 -87.5t-86.5 -33.5q-52 0 -86.5 34.5t-34.5 86.5zM209 1233q0 49 36 84t85 35t84 -35t35 -84q0 -53 -33 -87t-86 -34q-52 0 -86.5 34.5t-34.5 86.5z" />
    <glyph glyph-name="copyright" unicode="&#xa9;" horiz-adv-x="1683" 
d="M1126 1102h45v-326h-47q-65 273 -264 273q-233 0 -233 -365q0 -377 245 -377q160 0 273 174l45 -28q-127 -215 -348 -215q-184 0 -308 121t-124 305q0 189 119 315.5t307 126.5q77 0 153 -33t80 -33q46 0 57 62zM844 1309q-261 0 -444 -185t-183 -446q0 -263 181.5 -445
t443.5 -182q259 0 441.5 183.5t182.5 443.5t-181.5 445.5t-440.5 185.5zM844 1413q300 0 515.5 -217.5t215.5 -517.5q0 -302 -215.5 -516.5t-517.5 -214.5q-304 0 -517.5 213.5t-213.5 517.5t214.5 519.5t518.5 215.5z" />
    <glyph glyph-name="ordfeminine" unicode="&#xaa;" horiz-adv-x="850" 
d="M502 913q-103 -129 -254 -129q-87 0 -146 44q-65 49 -65 133q0 204 467 249v86q0 150 -127 150q-33 0 -61 -14q-35 -18 -35 -48q0 -4 13 -33.5t13 -50.5q0 -92 -123 -92q-106 0 -106 95q0 91 118 140q89 38 195 38q87 0 162 -22q123 -38 153 -113q11 -30 11 -134v-247
q0 -91 59 -91q28 0 52 34t32 34q19 0 19 -20q0 -63 -70 -102q-58 -32 -127 -32q-154 0 -180 125zM504 1169q-95 -9 -161 -49q-83 -52 -83 -137q0 -98 94 -98q75 0 116 64q34 54 34 134v86z" />
    <glyph glyph-name="guillemotleft" unicode="&#xab;" horiz-adv-x="819" 
d="M422 707q27 0 29 -11q-28 -33 -80 -106q-56 -94 -105 -129q51 -37 105 -127q28 -35 80 -107q-1 -10 -29 -10h-154q-54 0 -96 72t-84 126q-12 15 -35 46q11 17 35 48q44 56 85 127t95 71h154zM754 707q28 0 28 -11q-29 -33 -80 -106q-54 -92 -104 -129q50 -36 104 -127
q28 -35 80 -107q0 -10 -28 -10h-154q-54 0 -94.5 70t-85.5 128q-12 15 -35 46q11 17 35 48q44 55 85 126.5t95 71.5h154z" />
    <glyph glyph-name="logicalnot" unicode="&#xac;" 
d="M254 864h1198v-502h-199v306h-999v196z" />
    <glyph glyph-name="registered" unicode="&#xae;" horiz-adv-x="1683" 
d="M760 723q14 -2 43 -2q192 0 192 180q0 62 -43.5 104t-105.5 42q-86 0 -86 -66v-258zM465 1098h403q119 0 207 -41q115 -53 115 -158q0 -101 -94 -154q-61 -33 -185 -55q186 -43 219 -194l12 -94q11 -64 44 -64q57 0 57 129h51v-23q0 -180 -172 -180q-132 0 -160 106
l-30 198q-32 106 -172 106v-246q0 -49 25 -69q20 -16 73 -23v-51h-393v50q56 4 78 20q28 21 28 73v522q0 52 -28 74q-22 16 -78 21v53zM844 1309q-260 0 -443.5 -185t-183.5 -446q0 -263 181.5 -445t443.5 -182q259 0 441.5 183.5t182.5 443.5q0 258 -182.5 444.5
t-439.5 186.5zM844 1413q145 0 284 -59q210 -90 327.5 -274t117.5 -414q0 -139 -61 -277q-90 -204 -269.5 -323t-400.5 -119q-303 0 -517 214t-214 517q0 304 214.5 519.5t518.5 215.5z" />
    <glyph glyph-name="degree" unicode="&#xb0;" horiz-adv-x="674" 
d="M338 1335q-73 0 -124.5 -50.5t-51.5 -123.5q0 -74 51 -125t125 -51q72 0 123 51.5t51 124.5t-51 123.5t-123 50.5zM338 1464q127 0 215 -89t88 -216t-89 -215t-216 -88t-214 88t-87 215t88 216t215 89z" />
    <glyph glyph-name="plusminus" unicode="&#xb1;" 
d="M254 197h1198v-199h-1198v199zM752 1223h202v-326h498v-199h-498v-325h-202v325h-498v199h498v326z" />
    <glyph glyph-name="twosuperior" unicode="&#xb2;" horiz-adv-x="846" 
d="M94 725l15 2q36 113 153 113q62 0 188 -51.5t177 -51.5q96 0 96 101q0 90 -78 90q-10 0 -29.5 -6.5t-29.5 -6.5q-23 0 -23 19q0 33 64 33q76 0 120 -57q39 -52 39 -130q0 -96 -59.5 -155.5t-155.5 -59.5q-84 0 -231 61.5t-190 61.5q-60 0 -60 -49q0 -11 22.5 -22
t22.5 -23q0 -21 -26 -21q-62 0 -62 103q0 82 41 152q45 76 164 142q161 88 185 108q87 71 87 184q0 82 -47 131t-129 49q-69 0 -131 -39q-72 -44 -72 -109q0 -55 41 -55q23 0 23 21q0 5 -7.5 14t-8.5 12q0 10 12 10q40 0 71 -33t31 -73q0 -47 -36.5 -73.5t-84.5 -26.5
q-62 0 -102.5 36t-40.5 97q0 119 122 191q103 61 230 61q136 0 240 -57q127 -70 127 -195q0 -129 -117 -195q-63 -35 -249 -79q-168 -39 -227 -86q-63 -49 -75 -138z" />
    <glyph glyph-name="threesuperior" unicode="&#xb3;" horiz-adv-x="846" 
d="M432 1094l4 -11q63 13 103 13q107 0 174 -59q71 -62 71 -167q0 -153 -137 -238q-115 -71 -278 -71q-126 0 -218 50q-114 61 -114 177q0 61 39.5 97.5t101.5 36.5q52 0 89.5 -30t37.5 -81q0 -35 -29 -57q-12 47 -53 47q-55 0 -55 -68q0 -65 63 -104q54 -33 123 -33
q98 0 154.5 56.5t56.5 154.5q0 215 -246 215q-37 0 -93 -15q-11 -3 -15 -3q-16 0 -16 12q0 8 53 27q33 11 67 22q185 72 185 233q0 66 -39 106t-105 40q-47 0 -95 -25q-56 -30 -56 -73q0 -18 39 -39t39 -58q0 -43 -35 -69q-31 -23 -76 -23q-47 0 -78 25q-35 28 -35 73
q0 112 123 172q97 48 221 48q108 0 194 -41q110 -52 110 -148q0 -154 -275 -192z" />
    <glyph glyph-name="acute" unicode="&#xb4;" horiz-adv-x="1024" 
d="M317 1069l273 281q80 82 135 82q90 0 90 -91q0 -59 -94 -108l-313 -164h-91z" />
    <glyph glyph-name="paragraph" unicode="&#xb6;" horiz-adv-x="1024" 
d="M983 1479v-111h-113v-1368h-151v1368h-158v-1368h-153v784q-160 6 -260 95q-107 94 -107 251q0 166 115 261q107 88 276 88h551z" />
    <glyph glyph-name="cedilla" unicode="&#xb8;" horiz-adv-x="1024" 
d="M233 -375l41 88q137 -73 248 -73q86 0 86 81q0 86 -100 86q-29 0 -61 -6l-1 199h70v-112q49 6 66 6q83 0 133 -43q53 -46 53 -127q0 -181 -229 -181q-104 0 -306 82z" />
    <glyph glyph-name="onesuperior" unicode="&#xb9;" horiz-adv-x="846" 
d="M326 1249q0 58 -37 72q-18 6 -90 6h-19q-98 0 -98 12q0 14 55 23q35 5 71 10q134 27 273 85q38 16 43 16q17 0 17 -21q0 -18 -2 -55t-2 -55v-553q0 -84 22 -118q28 -44 110 -50q97 -7 97 -23t-35 -16h-608q-37 0 -37 14q0 17 107 25q83 6 111 50q22 34 22 118v460z" />
    <glyph glyph-name="ordmasculine" unicode="&#xba;" horiz-adv-x="930" 
d="M281 1137q0 -314 182 -314q186 0 186 303q0 318 -188 318q-180 0 -180 -307zM41 1137q0 161 139 258q124 86 291 86q170 0 287 -85q131 -95 131 -259q0 -165 -136 -263q-121 -88 -292 -88q-177 0 -292 85q-128 95 -128 266z" />
    <glyph glyph-name="guillemotright" unicode="&#xbb;" horiz-adv-x="819" 
d="M399 217q-30 0 -30 10q28 34 80 107q52 88 106 127q-51 37 -106 129q-27 35 -80 106q0 11 30 11h152q55 0 99 -75q39 -66 82 -122q23 -31 34 -49q-11 -17 -34 -47q-41 -53 -82 -123q-44 -74 -99 -74h-152zM68 217q-31 0 -31 10q28 34 80 107q52 88 106 127
q-51 37 -106 129q-27 35 -80 106q0 11 31 11h151q55 0 99 -75q39 -66 82 -122q23 -31 34 -49q-10 -17 -33 -47q-46 -60 -83 -123q-44 -74 -99 -74h-151z" />
    <glyph glyph-name="onequarter" unicode="&#xbc;" horiz-adv-x="1956" 
d="M1524 223q-138 25 -234 25q-86 0 -141 -20q-3 -1 -8 -3q-17 0 -17 11t21 23q62 35 127 118q147 188 147 391q0 11 -2 34t-2 34q0 49 66 49q41 0 41 -58q0 -251 -271 -524l4 -2q42 21 95 21q55 0 174 -23v360q0 19 51 38q101 38 162 80q48 34 55 34q16 0 16 -10t-21 -31
q-29 -29 -30 -31q-39 -53 -39 -162v-294q5 0 14.5 -1t14.5 -1q95 0 185 30q12 4 14 4q4 0 9 -1l3 -5q0 -12 -16 -42q-18 -33 -31 -44q-34 -29 -192 -16q-1 -34 -1 -41q0 -110 88 -131q24 -2 48 -5q36 -4 36 -16q0 -14 -35 -14h-471q-34 0 -34 14q0 12 39 17q27 3 53 6
q57 17 73 75q9 30 9 111zM1468 1489q25 0 25 -25q0 -7 -4 -14l-885 -1454q-16 -26 -53 -30q8 1 -64 1q-24 0 -24 23q0 7 4 14l885 1457q15 25 53 29q-9 -1 63 -1zM311 1263q0 44 -16.5 57t-177.5 13q-37 0 -37 15q0 11 54 20q34 5 67 10q125 24 259 78q35 14 42 14
q14 0 14 -20q0 -17 -2 -50.5t-2 -50.5v-517q0 -79 22 -111q27 -40 105 -47q92 -8 92 -21q0 -14 -33 -14h-581q-33 0 -33 14q0 15 44 19q28 1 57 2q77 6 104 47q22 33 22 111v431z" />
    <glyph glyph-name="onehalf" unicode="&#xbd;" horiz-adv-x="1956" 
d="M1239 135h14q34 107 146 107q58 0 178 -48.5t170 -48.5q92 0 92 93q0 86 -74 86q-10 0 -28.5 -6.5t-28.5 -6.5q-20 0 -20 17q0 32 59 32q71 0 114 -52q40 -49 40 -122q0 -90 -58 -146t-149 -56q-77 0 -217.5 57t-184.5 57q-57 0 -57 -45q0 -10 21.5 -20t21.5 -21
q0 -20 -27 -20q-57 0 -57 96q0 76 40 141q42 70 156 132q152 83 176 102q83 68 83 172q0 78 -44 123t-122 45q-66 0 -127 -35q-70 -41 -70 -102q0 -52 41 -52q23 0 23 19q0 -3 -19 24q0 11 15 11q38 0 68 -31.5t30 -69.5q0 -44 -38 -70q-33 -24 -79 -24q-58 0 -97.5 34
t-39.5 91q0 113 118 180q99 56 220 56q128 0 227 -53q121 -65 121 -183q0 -119 -112 -180q-61 -34 -237 -75q-161 -37 -216 -78q-61 -46 -72 -130zM1468 1489q25 0 25 -25q0 -7 -4 -14l-885 -1454q-16 -26 -53 -30q8 1 -64 1q-24 0 -24 23q0 7 4 14l885 1457q15 25 53 29
q-9 -1 63 -1zM311 1263q0 44 -16.5 57t-177.5 13q-37 0 -37 15q0 11 54 20q34 5 67 10q125 24 259 78q35 14 42 14q14 0 14 -20q0 -17 -2 -50.5t-2 -50.5v-517q0 -79 22 -111q27 -40 105 -47q92 -8 92 -21q0 -14 -33 -14h-581q-33 0 -33 14q0 15 44 19q28 1 57 2
q77 6 104 47q22 33 22 111v431z" />
    <glyph glyph-name="threequarters" unicode="&#xbe;" horiz-adv-x="1956" 
d="M1524 223q-138 25 -234 25q-86 0 -141 -20q-3 -1 -8 -3q-17 0 -17 11t21 23q62 35 127 118q147 188 147 391q0 11 -2 34t-2 34q0 49 66 49q41 0 41 -58q0 -251 -271 -524l4 -2q42 21 95 21q55 0 174 -23v360q0 19 51 38q101 38 162 80q48 34 55 34q16 0 16 -10t-21 -31
q-29 -29 -30 -31q-39 -53 -39 -162v-294q5 0 14.5 -1t14.5 -1q95 0 185 30q12 4 14 4q4 0 9 -1l3 -5q0 -12 -16 -42q-18 -33 -31 -44q-34 -29 -192 -16q-1 -34 -1 -41q0 -110 88 -131q24 -2 48 -5q36 -4 36 -16q0 -14 -35 -14h-471q-34 0 -34 14q0 12 39 17q27 3 53 6
q57 17 73 75q9 30 9 111zM1468 1489q25 0 25 -25q0 -7 -4 -14l-885 -1454q-16 -26 -53 -30q8 1 -64 1q-24 0 -24 23q0 7 4 14l885 1457q15 25 53 29q-9 -1 63 -1zM412 1118l4 -10q68 10 98 10q101 0 165 -53q69 -57 69 -156q0 -144 -132 -222q-110 -66 -264 -66
q-119 0 -206 45q-109 57 -109 165q0 57 37.5 91t95.5 34q49 0 83 -26q38 -28 38 -76q0 -32 -27 -55q-11 45 -51 45q-53 0 -53 -64q0 -62 61 -97q51 -30 117 -30q93 0 147 51.5t54 143.5q0 201 -234 201q-38 0 -89 -12q-13 -3 -15 -3q-15 0 -15 10q0 9 50 26q33 10 65 20
q174 65 174 219q0 61 -37 98t-98 37q-45 0 -90 -24q-53 -27 -53 -68q0 -17 36.5 -36.5t36.5 -53.5q0 -40 -34 -65q-30 -21 -72 -21q-44 0 -74 24q-33 26 -33 68q0 105 118 161q92 44 210 44q102 0 184 -38q105 -49 105 -139q0 -146 -262 -178z" />
    <glyph glyph-name="questiondown" unicode="&#xbf;" horiz-adv-x="1241" 
d="M956 267q-127 53 -127 194q0 72 45 120t117 48q92 0 147 -76q50 -69 50 -164q0 -183 -162.5 -307.5t-411.5 -124.5q-218 0 -371 89q-186 108 -186 310q0 77 32 141q46 94 152 155q97 44 194 89q115 54 168.5 127t53.5 164q0 5 -1 15.5t-1 15.5q0 37 31 37q35 0 35 -51
q0 -131 -19 -194q-27 -85 -107 -165q-110 -109 -126 -133q-61 -88 -61 -215q0 -143 74 -231q79 -93 220 -93q130 0 230 71q112 79 112 204q0 65 -49 65q-45 0 -45 -53q0 -11 6 -38zM856 1327q0 -73 -49.5 -121.5t-122.5 -48.5q-72 0 -121 49t-49 121t49 121t121 49
q73 0 122.5 -48.5t49.5 -121.5z" />
    <glyph glyph-name="Agrave" unicode="&#xc0;" horiz-adv-x="1485" 
d="M289 221q0 -135 129 -162q65 -14 65 -32q0 -27 -53 -27h-477q-53 0 -53 27q0 26 26 26q97 0 184.5 91.5t151.5 261.5l322 854q-11 14 -59 44q-42 27 -42 35q0 11 68 43q44 21 88 41q55 33 109 91q51 57 59 57q18 0 63 -133l361 -1065q61 -180 103 -233q50 -64 173 -83
q56 -9 56 -30q0 -27 -54 -27h-749q-55 0 -55 31q0 19 56 23q94 7 129 21q66 27 66 99q0 46 -45 184l-63 193h-461q-29 -79 -59 -157q-39 -115 -39 -173zM829 610l-200 615l-223 -615h423zM936 1610h-91l-313 164q-94 49 -94 108q0 91 90 91q55 0 135 -82z" />
    <glyph glyph-name="Aacute" unicode="&#xc1;" horiz-adv-x="1485" 
d="M289 221q0 -135 129 -162q65 -14 65 -32q0 -27 -53 -27h-477q-53 0 -53 27q0 26 26 26q97 0 184.5 91.5t151.5 261.5l322 854q-11 14 -59 44q-42 27 -42 35q0 11 68 43q44 21 88 41q55 33 109 91q51 57 59 57q18 0 63 -133l361 -1065q61 -180 103 -233q50 -64 173 -83
q56 -9 56 -30q0 -27 -54 -27h-749q-55 0 -55 31q0 19 56 23q94 7 129 21q66 27 66 99q0 46 -45 184l-63 193h-461q-29 -79 -59 -157q-39 -115 -39 -173zM829 610l-200 615l-223 -615h423zM546 1610l273 281q80 82 135 82q90 0 90 -91q0 -59 -94 -108l-313 -164h-91z" />
    <glyph glyph-name="Acircumflex" unicode="&#xc2;" horiz-adv-x="1485" 
d="M289 221q0 -135 129 -162q65 -14 65 -32q0 -27 -53 -27h-477q-53 0 -53 27q0 26 26 26q97 0 184.5 91.5t151.5 261.5l322 854q-11 14 -59 44q-42 27 -42 35q0 11 68 43q44 21 88 41q55 33 109 91q51 57 59 57q18 0 63 -133l361 -1065q61 -180 103 -233q50 -64 173 -83
q56 -9 56 -30q0 -27 -54 -27h-749q-55 0 -55 31q0 19 56 23q94 7 129 21q66 27 66 99q0 46 -45 184l-63 193h-461q-29 -79 -59 -157q-39 -115 -39 -173zM829 610l-200 615l-223 -615h423zM442 1590l225 348h148l225 -348h-84l-215 178l-215 -178h-84z" />
    <glyph glyph-name="Atilde" unicode="&#xc3;" horiz-adv-x="1485" 
d="M289 221q0 -135 129 -162q65 -14 65 -32q0 -27 -53 -27h-477q-53 0 -53 27q0 26 26 26q97 0 184.5 91.5t151.5 261.5l322 854q-11 14 -59 44q-42 27 -42 35q0 11 68 43q44 21 88 41q55 33 109 91q51 57 59 57q18 0 63 -133l361 -1065q61 -180 103 -233q50 -64 173 -83
q56 -9 56 -30q0 -27 -54 -27h-749q-55 0 -55 31q0 19 56 23q94 7 129 21q66 27 66 99q0 46 -45 184l-63 193h-461q-29 -79 -59 -157q-39 -115 -39 -173zM829 610l-200 615l-223 -615h423zM1030 1932q-29 -248 -205 -248q-37 0 -109 22.5t-110 22.5q-59 0 -90 -88h-66
q34 248 211 248q35 0 106 -21.5t105 -21.5q62 0 92 86h66z" />
    <glyph glyph-name="Adieresis" unicode="&#xc4;" horiz-adv-x="1485" 
d="M289 221q0 -135 129 -162q65 -14 65 -32q0 -27 -53 -27h-477q-53 0 -53 27q0 26 26 26q97 0 184.5 91.5t151.5 261.5l322 854q-11 14 -59 44q-42 27 -42 35q0 11 68 43q44 21 88 41q55 33 109 91q51 57 59 57q18 0 63 -133l361 -1065q61 -180 103 -233q50 -64 173 -83
q56 -9 56 -30q0 -27 -54 -27h-749q-55 0 -55 31q0 19 56 23q94 7 129 21q66 27 66 99q0 46 -45 184l-63 193h-461q-29 -79 -59 -157q-39 -115 -39 -173zM829 610l-200 615l-223 -615h423zM802 1774q0 49 36 84t85 35t84 -35t35 -84q0 -54 -32.5 -87.5t-86.5 -33.5
q-52 0 -86.5 34.5t-34.5 86.5zM438 1774q0 49 36 84t85 35t84 -35t35 -84q0 -53 -33 -87t-86 -34q-52 0 -86.5 34.5t-34.5 86.5z" />
    <glyph glyph-name="Aring" unicode="&#xc5;" horiz-adv-x="1485" 
d="M600 1763q0 -46 32.5 -77t78.5 -31q44 0 76 32t32 76q0 43 -32.5 77t-75.5 34q-45 0 -78 -33t-33 -78zM504 1763q0 88 59.5 148.5t147.5 60.5q85 0 147 -62t62 -147q0 -86 -61.5 -146.5t-147.5 -60.5q-88 0 -147.5 59.5t-59.5 147.5zM829 598l-200 602l-223 -602h423z
M289 217q0 -78 50 -119q30 -25 94 -43q50 -14 50 -28q0 -27 -53 -27h-477q-53 0 -53 27q0 24 26 24q98 0 185 89.5t151 256.5l322 838q-12 15 -60 44q-41 25 -41 34q0 11 69 43q45 19 89 39q57 29 107.5 77t60.5 48q22 0 65 -125l357 -1030q60 -173 102 -226q50 -64 170 -82
q60 -9 60 -30q0 -27 -54 -27h-749q-55 0 -55 31q0 18 61 23q93 7 126 21q64 25 64 97q0 45 -108 369h-461q-30 -77 -59 -155q-39 -110 -39 -169z" />
    <glyph glyph-name="AE" unicode="&#xc6;" horiz-adv-x="2157" 
d="M659 31q0 22 46 29q80 12 97 18q60 21 85 74q31 67 31 299v309h-388l-284 -404q-70 -100 -70 -170q0 -68 57 -98q27 -15 105 -30q57 -11 57 -31q0 -27 -55 -27h-498q-55 0 -55 27q0 21 50 30q92 17 172 95q71 70 186 233l593 842q39 55 39 96q0 47 -58 61q-5 2 -107 11
q-58 6 -58 32q0 29 58 29h753q296 0 363 31q19 9 50 43q30 31 32 31q20 0 38 -43q177 -430 177 -437q0 -18 -25 -18q-15 0 -66.5 66t-109.5 112q-205 164 -434 164q-128 0 -177 -63q-44 -55 -44 -187v-342h90q231 0 298 29q97 42 108 205q4 65 30 65q29 0 29 -68v-542
q0 -76 -29 -76q-24 0 -31 73q-13 147 -88 204t-207 57h-200v-460q0 -76 8 -111q30 -134 241 -134q200 0 343 80q132 75 255 243q53 73 68 73q20 0 20 -27q0 -13 -12 -39l-235 -512q-15 -33 -33 -33q-15 0 -28 31q-17 41 -21 45q-37 44 -121 64t-254 20h-731q-60 0 -60 31z
M918 813v506l-351 -506h351z" />
    <glyph glyph-name="Ccedilla" unicode="&#xc7;" horiz-adv-x="1493" 
d="M1411 1051q0 -27 -22 -27t-59 61q-218 357 -474 357q-255 0 -368 -249q-82 -181 -82 -472q0 -703 477 -703q296 0 444 273q15 38 31 76q23 53 47 53q33 0 33 -37q0 -26 -30 -87q-166 -339 -570 -339q-338 0 -555 211.5t-217 548.5q0 339 204 558q208 224 545 224
q75 0 175 -18.5t118 -18.5q55 0 77 47t29 47q21 0 33 -34l160 -449q4 -11 4 -22zM530 -375l41 88q137 -73 248 -73q86 0 86 81q0 86 -100 86q-29 0 -61 -6l-1 199h70v-112q49 6 66 6q83 0 133 -43q53 -46 53 -127q0 -181 -229 -181q-104 0 -306 82z" />
    <glyph glyph-name="Egrave" unicode="&#xc8;" horiz-adv-x="1516" 
d="M12 31q0 25 61 32q131 15 166 92q31 67 31 296v553q0 223 -25 288q-36 92 -175 105q-58 5 -58 30q0 29 58 29h704q296 0 363 31q18 9 50 43q30 31 32 31q20 0 38 -43l166 -403q11 -27 11 -34q0 -18 -25 -18q-14 0 -66.5 66t-109.5 112q-205 164 -434 164q-128 0 -177 -63
q-44 -55 -44 -187v-342h90q232 0 298 29q97 42 108 205q4 65 30 65q29 0 29 -68v-542q0 -76 -29 -76q-22 0 -35 113q-26 221 -291 221h-200v-436q0 -151 48 -208q53 -61 201 -61q200 0 343 80q132 74 255 243q53 73 68 73q20 0 20 -27q0 -13 -12 -39l-235 -512
q-15 -33 -33 -33q-15 0 -28 31q-17 41 -21 45q-37 44 -121 64t-254 20h-739q-58 0 -58 31zM908 1610h-91l-313 164q-94 49 -94 108q0 91 90 91q55 0 135 -82z" />
    <glyph glyph-name="Eacute" unicode="&#xc9;" horiz-adv-x="1516" 
d="M12 31q0 25 61 32q131 15 166 92q31 67 31 296v553q0 223 -25 288q-36 92 -175 105q-58 5 -58 30q0 29 58 29h704q296 0 363 31q18 9 50 43q30 31 32 31q20 0 38 -43l166 -403q11 -27 11 -34q0 -18 -25 -18q-14 0 -66.5 66t-109.5 112q-205 164 -434 164q-128 0 -177 -63
q-44 -55 -44 -187v-342h90q232 0 298 29q97 42 108 205q4 65 30 65q29 0 29 -68v-542q0 -76 -29 -76q-22 0 -35 113q-26 221 -291 221h-200v-436q0 -151 48 -208q53 -61 201 -61q200 0 343 80q132 74 255 243q53 73 68 73q20 0 20 -27q0 -13 -12 -39l-235 -512
q-15 -33 -33 -33q-15 0 -28 31q-17 41 -21 45q-37 44 -121 64t-254 20h-739q-58 0 -58 31zM518 1610l273 281q80 82 135 82q90 0 90 -91q0 -59 -94 -108l-313 -164h-91z" />
    <glyph glyph-name="Ecircumflex" unicode="&#xca;" horiz-adv-x="1516" 
d="M12 31q0 25 61 32q131 15 166 92q31 67 31 296v553q0 223 -25 288q-36 92 -175 105q-58 5 -58 30q0 29 58 29h704q296 0 363 31q18 9 50 43q30 31 32 31q20 0 38 -43l166 -403q11 -27 11 -34q0 -18 -25 -18q-14 0 -66.5 66t-109.5 112q-205 164 -434 164q-128 0 -177 -63
q-44 -55 -44 -187v-342h90q232 0 298 29q97 42 108 205q4 65 30 65q29 0 29 -68v-542q0 -76 -29 -76q-22 0 -35 113q-26 221 -291 221h-200v-436q0 -151 48 -208q53 -61 201 -61q200 0 343 80q132 74 255 243q53 73 68 73q20 0 20 -27q0 -13 -12 -39l-235 -512
q-15 -33 -33 -33q-15 0 -28 31q-17 41 -21 45q-37 44 -121 64t-254 20h-739q-58 0 -58 31zM412 1590l225 348h148l225 -348h-84l-215 178l-215 -178h-84z" />
    <glyph glyph-name="Edieresis" unicode="&#xcb;" horiz-adv-x="1516" 
d="M12 31q0 25 61 32q131 15 166 92q31 67 31 296v553q0 223 -25 288q-36 92 -175 105q-58 5 -58 30q0 29 58 29h704q296 0 363 31q18 9 50 43q30 31 32 31q20 0 38 -43l166 -403q11 -27 11 -34q0 -18 -25 -18q-14 0 -66.5 66t-109.5 112q-205 164 -434 164q-128 0 -177 -63
q-44 -55 -44 -187v-342h90q232 0 298 29q97 42 108 205q4 65 30 65q29 0 29 -68v-542q0 -76 -29 -76q-22 0 -35 113q-26 221 -291 221h-200v-436q0 -151 48 -208q53 -61 201 -61q200 0 343 80q132 74 255 243q53 73 68 73q20 0 20 -27q0 -13 -12 -39l-235 -512
q-15 -33 -33 -33q-15 0 -28 31q-17 41 -21 45q-37 44 -121 64t-254 20h-739q-58 0 -58 31zM774 1774q0 49 36 84t85 35t84 -35t35 -84q0 -54 -32.5 -87.5t-86.5 -33.5q-52 0 -86.5 34.5t-34.5 86.5zM410 1774q0 49 36 84t85 35t84 -35t35 -84q0 -53 -33 -87t-86 -34
q-52 0 -86.5 34.5t-34.5 86.5z" />
    <glyph glyph-name="Igrave" unicode="&#xcc;" horiz-adv-x="862" 
d="M793 1456q59 0 59 -31q0 -25 -59 -29q-143 -11 -181 -105q-26 -65 -26 -287v-552q0 -222 26 -286q38 -93 181 -103q59 -5 59 -32q0 -31 -59 -31h-723q-60 0 -60 31q0 25 60 30q143 10 181 105q25 63 25 284v552q0 222 -25 286q-37 93 -181 104q-60 4 -60 31q0 33 60 33
h723zM625 1610h-91l-313 164q-94 49 -94 108q0 91 90 91q55 0 135 -82z" />
    <glyph glyph-name="Iacute" unicode="&#xcd;" horiz-adv-x="862" 
d="M793 1456q59 0 59 -31q0 -25 -59 -29q-143 -11 -181 -105q-26 -65 -26 -287v-552q0 -222 26 -286q38 -93 181 -103q59 -5 59 -32q0 -31 -59 -31h-723q-60 0 -60 31q0 25 60 30q143 10 181 105q25 63 25 284v552q0 222 -25 286q-37 93 -181 104q-60 4 -60 31q0 33 60 33
h723zM235 1610l273 281q80 82 135 82q90 0 90 -91q0 -59 -94 -108l-313 -164h-91z" />
    <glyph glyph-name="Icircumflex" unicode="&#xce;" horiz-adv-x="862" 
d="M793 1456q59 0 59 -31q0 -25 -59 -29q-143 -11 -181 -105q-26 -65 -26 -287v-552q0 -222 26 -286q38 -93 181 -103q59 -5 59 -32q0 -31 -59 -31h-723q-60 0 -60 31q0 25 60 30q143 10 181 105q25 63 25 284v552q0 222 -25 286q-37 93 -181 104q-60 4 -60 31q0 33 60 33
h723zM131 1610l225 348h148l225 -348h-84l-215 178l-215 -178h-84z" />
    <glyph glyph-name="Idieresis" unicode="&#xcf;" horiz-adv-x="862" 
d="M793 1456q59 0 59 -31q0 -25 -59 -29q-143 -11 -181 -105q-26 -65 -26 -287v-552q0 -222 26 -286q38 -93 181 -103q59 -5 59 -32q0 -31 -59 -31h-723q-60 0 -60 31q0 25 60 30q143 10 181 105q25 63 25 284v552q0 222 -25 286q-37 93 -181 104q-60 4 -60 31q0 33 60 33
h723zM491 1774q0 49 36 84t85 35t84 -35t35 -84q0 -54 -32.5 -87.5t-86.5 -33.5q-52 0 -86.5 34.5t-34.5 86.5zM127 1774q0 49 36 84t85 35t84 -35t35 -84q0 -53 -33 -87t-86 -34q-52 0 -86.5 34.5t-34.5 86.5z" />
    <glyph glyph-name="Eth" unicode="&#xd0;" 
d="M588 748v-410q0 -161 40 -216q49 -67 203 -67q451 0 451 672q0 301 -81 458q-109 214 -380 214q-147 0 -195 -69q-38 -55 -38 -212v-291h350q37 0 37 -41q0 -38 -35 -38h-352zM80 0q-57 0 -57 31q0 25 60 32q130 16 167 92q31 65 31 296v297h-214q-35 0 -35 40
q0 39 33 39h216v178q0 220 -25 284q-37 93 -176 107q-57 6 -57 31q0 29 57 29h754q185 0 302 -33q226 -66 362 -264q130 -191 130 -432q0 -240 -131 -431q-136 -197 -361 -262q-116 -34 -302 -34h-754z" />
    <glyph glyph-name="Ntilde" unicode="&#xd1;" horiz-adv-x="1663" 
d="M330 459q0 -178 40 -271q48 -115 188 -128q58 -5 58 -31q0 -29 -63 -29h-469q-59 0 -59 29q0 21 30 27q22 2 45 5q82 14 126 116t44 278v856q-30 53 -97 71q-13 3 -108 13q-51 5 -51 30q0 31 58 31h506q32 0 45 -13q12 -31 43 -91l671 -1002v673q0 161 -39 251
q-47 110 -188 121q-59 5 -59 30q0 31 63 31h477q60 0 60 -31q0 -21 -30 -27q-23 -2 -46 -5q-91 -16 -134.5 -109t-43.5 -270v-729q30 -38 82.5 -60t52.5 -35q0 -10 -56 -36q-111 -54 -187 -141q-44 -50 -50 -50q-16 0 -51 53l-858 1293v-850zM1120 1932q-29 -248 -205 -248
q-37 0 -109 22.5t-110 22.5q-59 0 -90 -88h-66q34 248 211 248q35 0 106 -21.5t105 -21.5q62 0 92 86h66z" />
    <glyph glyph-name="Ograve" unicode="&#xd2;" 
d="M422 723q0 -715 424 -715q250 0 359 246q79 177 79 463q0 729 -422 729q-249 0 -360 -254q-80 -183 -80 -469zM70 739q0 342 224 552q220 206 564 206q351 0 565.5 -211t214.5 -561q0 -344 -226 -558q-222 -210 -568 -210q-354 0 -564 214t-210 568zM1072 1610h-91
l-313 164q-94 49 -94 108q0 91 90 91q55 0 135 -82z" />
    <glyph glyph-name="Oacute" unicode="&#xd3;" 
d="M422 723q0 -715 424 -715q250 0 359 246q79 177 79 463q0 729 -422 729q-249 0 -360 -254q-80 -183 -80 -469zM70 739q0 342 224 552q220 206 564 206q351 0 565.5 -211t214.5 -561q0 -344 -226 -558q-222 -210 -568 -210q-354 0 -564 214t-210 568zM682 1610l273 281
q80 82 135 82q90 0 90 -91q0 -59 -94 -108l-313 -164h-91z" />
    <glyph glyph-name="Ocircumflex" unicode="&#xd4;" 
d="M422 723q0 -715 424 -715q250 0 359 246q79 177 79 463q0 729 -422 729q-249 0 -360 -254q-80 -183 -80 -469zM70 739q0 342 224 552q220 206 564 206q351 0 565.5 -211t214.5 -561q0 -344 -226 -558q-222 -210 -568 -210q-354 0 -564 214t-210 568zM562 1590l225 348
h148l225 -348h-84l-215 178l-215 -178h-84z" />
    <glyph glyph-name="Otilde" unicode="&#xd5;" 
d="M422 723q0 -715 424 -715q250 0 359 246q79 177 79 463q0 729 -422 729q-249 0 -360 -254q-80 -183 -80 -469zM70 739q0 342 224 552q220 206 564 206q351 0 565.5 -211t214.5 -561q0 -344 -226 -558q-222 -210 -568 -210q-354 0 -564 214t-210 568zM1166 1932
q-29 -248 -205 -248q-37 0 -109 22.5t-110 22.5q-59 0 -90 -88h-66q34 248 211 248q35 0 106 -21.5t105 -21.5q62 0 92 86h66z" />
    <glyph glyph-name="Odieresis" unicode="&#xd6;" 
d="M422 723q0 -715 424 -715q250 0 359 246q79 177 79 463q0 729 -422 729q-249 0 -360 -254q-80 -183 -80 -469zM70 739q0 342 224 552q220 206 564 206q351 0 565.5 -211t214.5 -561q0 -344 -226 -558q-222 -210 -568 -210q-354 0 -564 214t-210 568zM938 1774q0 49 36 84
t85 35t84 -35t35 -84q0 -54 -32.5 -87.5t-86.5 -33.5q-52 0 -86.5 34.5t-34.5 86.5zM574 1774q0 49 36 84t85 35t84 -35t35 -84q0 -53 -33 -87t-86 -34q-52 0 -86.5 34.5t-34.5 86.5z" />
    <glyph glyph-name="multiply" unicode="&#xd7;" 
d="M416 1202l450 -450l451 450l141 -139l-450 -453l450 -450l-141 -140l-451 451l-450 -451l-140 140l451 450l-451 453z" />
    <glyph glyph-name="Oslash" unicode="&#xd8;" 
d="M473 305l703 973q-109 170 -314 170q-247 0 -360 -253q-82 -185 -82 -468q0 -269 53 -422zM1231 1161l-707 -971q115 -184 322 -184q250 0 360 241q80 176 80 460q0 277 -55 454zM336 117q-268 222 -268 612q0 352 223 563q219 207 573 207q204 0 400 -98l96 133
q18 25 43 29q-1 0 55 0q43 0 43 -19q0 -9 -139 -203q278 -207 278 -610q0 -357 -229 -569q-222 -205 -582 -205q-207 0 -399 98l-123 -172q-21 -30 -98 -30q-43 0 -43 20q0 13 16 35z" />
    <glyph glyph-name="Ugrave" unicode="&#xd9;" horiz-adv-x="1677" 
d="M8 1427q0 29 55 29h715q64 0 64 -29q0 -25 -67 -32q-141 -15 -180 -91q-34 -67 -34 -299v-621q0 -82 11 -132q49 -225 368 -225q234 0 335 117q95 109 95 348v526q0 172 -40 260q-29 64 -74 89q-36 20 -113 28q-62 6 -62 32q0 29 58 29h473q63 0 63 -29q0 -20 -33 -26
l-48 -6q-79 -15 -121.5 -110.5t-42.5 -262.5v-561q0 -279 -153 -396q-135 -102 -425 -102q-182 0 -326 51q-188 67 -243 204q-29 70 -29 216v555q0 238 -24 301q-36 93 -167 106q-55 5 -55 31zM1137 1610h-91l-313 164q-94 49 -94 108q0 91 90 91q55 0 135 -82z" />
    <glyph glyph-name="Uacute" unicode="&#xda;" horiz-adv-x="1677" 
d="M8 1427q0 29 55 29h715q64 0 64 -29q0 -25 -67 -32q-141 -15 -180 -91q-34 -67 -34 -299v-621q0 -82 11 -132q49 -225 368 -225q234 0 335 117q95 109 95 348v526q0 172 -40 260q-29 64 -74 89q-36 20 -113 28q-62 6 -62 32q0 29 58 29h473q63 0 63 -29q0 -20 -33 -26
l-48 -6q-79 -15 -121.5 -110.5t-42.5 -262.5v-561q0 -279 -153 -396q-135 -102 -425 -102q-182 0 -326 51q-188 67 -243 204q-29 70 -29 216v555q0 238 -24 301q-36 93 -167 106q-55 5 -55 31zM747 1610l273 281q80 82 135 82q90 0 90 -91q0 -59 -94 -108l-313 -164h-91z
" />
    <glyph glyph-name="Ucircumflex" unicode="&#xdb;" horiz-adv-x="1677" 
d="M8 1427q0 29 55 29h715q64 0 64 -29q0 -25 -67 -32q-141 -15 -180 -91q-34 -67 -34 -299v-621q0 -82 11 -132q49 -225 368 -225q234 0 335 117q95 109 95 348v526q0 172 -40 260q-29 64 -74 89q-36 20 -113 28q-62 6 -62 32q0 29 58 29h473q63 0 63 -29q0 -20 -33 -26
l-48 -6q-79 -15 -121.5 -110.5t-42.5 -262.5v-561q0 -279 -153 -396q-135 -102 -425 -102q-182 0 -326 51q-188 67 -243 204q-29 70 -29 216v555q0 238 -24 301q-36 93 -167 106q-55 5 -55 31zM643 1610l225 348h148l225 -348h-84l-215 178l-215 -178h-84z" />
    <glyph glyph-name="Udieresis" unicode="&#xdc;" horiz-adv-x="1677" 
d="M8 1427q0 29 55 29h715q64 0 64 -29q0 -25 -67 -32q-141 -15 -180 -91q-34 -67 -34 -299v-621q0 -82 11 -132q49 -225 368 -225q234 0 335 117q95 109 95 348v526q0 172 -40 260q-29 64 -74 89q-36 20 -113 28q-62 6 -62 32q0 29 58 29h473q63 0 63 -29q0 -20 -33 -26
l-48 -6q-79 -15 -121.5 -110.5t-42.5 -262.5v-561q0 -279 -153 -396q-135 -102 -425 -102q-182 0 -326 51q-188 67 -243 204q-29 70 -29 216v555q0 238 -24 301q-36 93 -167 106q-55 5 -55 31zM1003 1774q0 49 36 84t85 35t84 -35t35 -84q0 -54 -32.5 -87.5t-86.5 -33.5
q-52 0 -86.5 34.5t-34.5 86.5zM639 1774q0 49 36 84t85 35t84 -35t35 -84q0 -53 -33 -87t-86 -34q-52 0 -86.5 34.5t-34.5 86.5z" />
    <glyph glyph-name="Yacute" unicode="&#xdd;" horiz-adv-x="1450" 
d="M852 452q0 -219 28 -285q39 -96 193 -108q62 -5 62 -30q0 -29 -64 -29h-743q-64 0 -64 29q0 25 67 32q142 14 180 91q34 69 34 299v208l-328 525q-34 56 -114 155q-44 41 -91 50l-64 8q-46 8 -46 30q0 29 59 29h686q64 0 64 -29q0 -22 -51 -27q-78 -8 -95 -14
q-51 -18 -51 -71q0 -24 35 -82l285 -469l217 317q90 131 90 205q0 55 -29 79q-26 21 -122 32q-81 9 -81 30q0 29 58 29h516q63 0 63 -29q0 -23 -56 -34q-109 -22 -194 -97q-79 -71 -190 -233l-254 -371v-240zM530 1610l273 281q80 82 135 82q90 0 90 -91q0 -59 -94 -108
l-313 -164h-91z" />
    <glyph glyph-name="Thorn" unicode="&#xde;" horiz-adv-x="1442" 
d="M270 1004q0 224 -25 288q-37 93 -175 104q-58 4 -58 29q0 31 58 31h708q58 0 58 -31q0 -20 -47 -29q-33 -4 -65 -8q-125 -25 -149 -214h267q188 0 291 -27q159 -43 233 -163q47 -78 47 -173q0 -273 -313 -350q-135 -33 -525 -33q0 -10 -1 -31t-1 -32q0 -145 39 -213
q44 -78 185 -91q63 -6 63 -30q0 -31 -63 -31h-727q-58 0 -58 31q0 25 57 30q132 11 170 92q31 69 31 298v553zM578 889v-412h188q324 0 324 330q0 315 -295 315q-124 0 -172 -56q-45 -51 -45 -177z" />
    <glyph glyph-name="germandbls" unicode="&#xdf;" horiz-adv-x="1346" 
d="M41 0q-49 0 -49 23q0 17 48 33l66 20q61 29 76 96q6 27 6 129q0 91 -5 273.5t-5 273.5q0 163 24 263q44 188 189 298q143 107 338 107q198 0 329 -75q161 -92 161 -276q0 -160 -148 -246q-113 -66 -293 -79v-19q8 0 24.5 1t24.5 1q207 0 326 -103q125 -108 125 -312
q0 -192 -122.5 -317.5t-313.5 -125.5q-151 0 -245 73q-103 81 -103 228q0 102 51 168q56 74 155 74q82 0 135.5 -54.5t53.5 -136.5q0 -68 -38 -115q-42 -50 -108 -50q-22 0 -34 4q43 47 43 88q0 78 -70 78q-42 0 -68 -39q-22 -34 -22 -78q0 -79 54 -129.5t134 -50.5
q207 0 207 342q0 188 -74.5 310t-177.5 122q-47 0 -66.5 -54.5t-23.5 -54.5q-17 0 -41 29l-102 123q-17 21 -17 35q0 16 21 16q6 -1 18 -6q66 -25 125 -25q147 0 235 102q83 96 83 246q0 112 -55 181q-59 75 -169 75q-165 0 -240 -159q-57 -118 -57 -303q0 -95 9.5 -284
t9.5 -284q0 -305 -18 -378q-9 -34 -24.5 -46t-70.5 -12h-311z" />
    <glyph glyph-name="agrave" unicode="&#xe0;" horiz-adv-x="1133" 
d="M668 150q-136 -185 -338 -185q-119 0 -197 65q-84 69 -84 185q0 186 233 278q137 53 390 80v123q0 213 -170 213q-46 0 -84 -21q-45 -25 -45 -67q0 -6 18.5 -48t18.5 -71q0 -131 -164 -131q-62 0 -103 36.5t-41 97.5q0 103 119.5 178t298.5 75q116 0 216 -31
q168 -53 206 -161q14 -42 14 -188v-357q0 -129 78 -129q37 0 69.5 49t43.5 49q24 0 24 -30q0 -88 -91 -142q-77 -47 -171 -47q-204 0 -241 179zM672 514q-130 -11 -219 -73q-107 -73 -107 -193q0 -60 33 -98q35 -41 94 -41q102 0 156 95q43 77 43 187v123zM742 1069h-91
l-313 164q-94 49 -94 108q0 91 90 91q55 0 135 -82z" />
    <glyph glyph-name="aacute" unicode="&#xe1;" horiz-adv-x="1133" 
d="M668 150q-136 -185 -338 -185q-119 0 -197 65q-84 69 -84 185q0 186 233 278q137 53 390 80v123q0 213 -170 213q-46 0 -84 -21q-45 -25 -45 -67q0 -6 18.5 -48t18.5 -71q0 -131 -164 -131q-62 0 -103 36.5t-41 97.5q0 103 119.5 178t298.5 75q116 0 216 -31
q168 -53 206 -161q14 -42 14 -188v-357q0 -129 78 -129q37 0 69.5 49t43.5 49q24 0 24 -30q0 -88 -91 -142q-77 -47 -171 -47q-204 0 -241 179zM672 514q-130 -11 -219 -73q-107 -73 -107 -193q0 -60 33 -98q35 -41 94 -41q102 0 156 95q43 77 43 187v123zM352 1069l273 281
q80 82 135 82q90 0 90 -91q0 -59 -94 -108l-313 -164h-91z" />
    <glyph glyph-name="acircumflex" unicode="&#xe2;" horiz-adv-x="1133" 
d="M668 150q-136 -185 -338 -185q-119 0 -197 65q-84 69 -84 185q0 186 233 278q137 53 390 80v123q0 213 -170 213q-46 0 -84 -21q-45 -25 -45 -67q0 -6 18.5 -48t18.5 -71q0 -131 -164 -131q-62 0 -103 36.5t-41 97.5q0 103 119.5 178t298.5 75q116 0 216 -31
q168 -53 206 -161q14 -42 14 -188v-357q0 -129 78 -129q37 0 69.5 49t43.5 49q24 0 24 -30q0 -88 -91 -142q-77 -47 -171 -47q-204 0 -241 179zM672 514q-130 -11 -219 -73q-107 -73 -107 -193q0 -60 33 -98q35 -41 94 -41q102 0 156 95q43 77 43 187v123zM248 1069l225 348
h148l225 -348h-84l-215 178l-215 -178h-84z" />
    <glyph glyph-name="atilde" unicode="&#xe3;" horiz-adv-x="1133" 
d="M668 150q-136 -185 -338 -185q-119 0 -197 65q-84 69 -84 185q0 186 233 278q137 53 390 80v123q0 213 -170 213q-46 0 -84 -21q-45 -25 -45 -67q0 -6 18.5 -48t18.5 -71q0 -131 -164 -131q-62 0 -103 36.5t-41 97.5q0 103 119.5 178t298.5 75q116 0 216 -31
q168 -53 206 -161q14 -42 14 -188v-357q0 -129 78 -129q37 0 69.5 49t43.5 49q24 0 24 -30q0 -88 -91 -142q-77 -47 -171 -47q-204 0 -241 179zM672 514q-130 -11 -219 -73q-107 -73 -107 -193q0 -60 33 -98q35 -41 94 -41q102 0 156 95q43 77 43 187v123zM836 1391
q-29 -248 -205 -248q-37 0 -109 22.5t-110 22.5q-59 0 -90 -88h-66q34 248 211 248q35 0 106 -21.5t105 -21.5q62 0 92 86h66z" />
    <glyph glyph-name="adieresis" unicode="&#xe4;" horiz-adv-x="1133" 
d="M668 150q-136 -185 -338 -185q-119 0 -197 65q-84 69 -84 185q0 186 233 278q137 53 390 80v123q0 213 -170 213q-46 0 -84 -21q-45 -25 -45 -67q0 -6 18.5 -48t18.5 -71q0 -131 -164 -131q-62 0 -103 36.5t-41 97.5q0 103 119.5 178t298.5 75q116 0 216 -31
q168 -53 206 -161q14 -42 14 -188v-357q0 -129 78 -129q37 0 69.5 49t43.5 49q24 0 24 -30q0 -88 -91 -142q-77 -47 -171 -47q-204 0 -241 179zM672 514q-130 -11 -219 -73q-107 -73 -107 -193q0 -60 33 -98q35 -41 94 -41q102 0 156 95q43 77 43 187v123zM608 1233
q0 49 36 84t85 35t84 -35t35 -84q0 -54 -32.5 -87.5t-86.5 -33.5q-52 0 -86.5 34.5t-34.5 86.5zM244 1233q0 49 36 84t85 35t84 -35t35 -84q0 -53 -33 -87t-86 -34q-52 0 -86.5 34.5t-34.5 86.5z" />
    <glyph glyph-name="aring" unicode="&#xe5;" horiz-adv-x="1133" 
d="M446 1231q0 -46 32.5 -77.5t78.5 -31.5q45 0 77 32t32 77q0 43 -33 76.5t-76 33.5q-44 0 -77.5 -33t-33.5 -77zM350 1231q0 87 60 148t147 61q85 0 147 -62t62 -147q0 -87 -61 -147t-148 -60q-88 0 -147.5 59.5t-59.5 147.5zM672 514q-130 -11 -219 -73
q-107 -73 -107 -193q0 -60 33 -98q35 -41 94 -41q102 0 156 95q43 77 43 187v123zM668 150q-136 -185 -338 -185q-119 0 -197 65q-84 69 -84 185q0 186 233 278q137 53 390 80v123q0 213 -170 213q-46 0 -84 -21q-45 -25 -45 -67q0 -6 18.5 -48t18.5 -71q0 -131 -164 -131
q-62 0 -103 36.5t-41 97.5q0 103 119.5 178t298.5 75q116 0 216 -31q168 -53 206 -161q14 -42 14 -188v-357q0 -129 78 -129q37 0 69.5 49t43.5 49q24 0 24 -30q0 -88 -91 -142q-77 -47 -171 -47q-204 0 -241 179z" />
    <glyph glyph-name="ae" unicode="&#xe6;" horiz-adv-x="1735" 
d="M995 565h359q53 0 53 49q0 110 -34 184q-45 99 -142 99q-111 0 -176 -116q-52 -92 -60 -216zM690 508q-138 -10 -227 -65q-113 -70 -113 -195q0 -61 36 -100t97 -39q105 0 161 92q46 76 46 188v119zM883 825q143 129 325 129q331 0 429 -306q11 -34 17 -45q9 -17 30 -37
q18 -19 18 -29q0 -29 -66 -29h-645q5 -169 86 -287q94 -137 254 -137q77 0 162 39q11 5 67 41q50 33 56 33q29 0 29 -21t-26.5 -49.5t-82.5 -63.5q-163 -102 -342 -102q-359 0 -455 295q-114 -293 -401 -293q-125 0 -205 64q-86 70 -86 192q0 299 643 346v129
q0 211 -170 211q-51 0 -89 -20q-48 -26 -48 -72q0 -3 16.5 -42t16.5 -64q0 -134 -162 -134q-61 0 -103 36t-42 96q0 132 161 199q120 50 273 50q271 0 340 -129z" />
    <glyph glyph-name="ccedilla" unicode="&#xe7;" horiz-adv-x="1030" 
d="M59 432q0 235 163 383q158 143 396 143q131 0 224 -48q119 -61 119 -179q0 -66 -42.5 -101.5t-109.5 -35.5q-65 0 -104 39t-39 104q0 14 5 43t5 43q0 36 -30.5 56t-67.5 20q-125 0 -190 -110q-52 -89 -52 -224q0 -177 84 -306q98 -150 266 -150q76 0 149 42q46 26 103 77
q46 42 55 42q19 0 19 -18q0 -20 -28 -58t-75 -77q-179 -148 -393 -148q-207 0 -332 128t-125 335zM253 -375l41 88q137 -73 248 -73q86 0 86 81q0 86 -100 86q-29 0 -61 -6l-1 199h70v-112q49 6 66 6q83 0 133 -43q53 -46 53 -127q0 -181 -229 -181q-104 0 -306 82z" />
    <glyph glyph-name="egrave" unicode="&#xe8;" horiz-adv-x="1104" 
d="M328 484l364 124q43 15 43 43q0 22 -18 71q-60 165 -193 165q-105 0 -161 -99q-46 -80 -46 -194q0 -50 11 -110zM348 434q110 -305 340 -305q177 0 294 176q28 43 46 43q21 0 21 -22q0 -28 -35 -83q-83 -127 -220 -201.5t-288 -74.5q-199 0 -325 126t-126 325
q0 222 170 380q166 154 389 154q213 0 328 -139q24 -38 74 -88q15 -5 29 -9q18 -7 18 -22q0 -22 -57 -41zM779 1069h-91l-313 164q-94 49 -94 108q0 91 90 91q55 0 135 -82z" />
    <glyph glyph-name="eacute" unicode="&#xe9;" horiz-adv-x="1104" 
d="M328 484l364 124q43 15 43 43q0 22 -18 71q-60 165 -193 165q-105 0 -161 -99q-46 -80 -46 -194q0 -50 11 -110zM348 434q110 -305 340 -305q177 0 294 176q28 43 46 43q21 0 21 -22q0 -28 -35 -83q-83 -127 -220 -201.5t-288 -74.5q-199 0 -325 126t-126 325
q0 222 170 380q166 154 389 154q213 0 328 -139q24 -38 74 -88q15 -5 29 -9q18 -7 18 -22q0 -22 -57 -41zM389 1069l273 281q80 82 135 82q90 0 90 -91q0 -59 -94 -108l-313 -164h-91z" />
    <glyph glyph-name="ecircumflex" unicode="&#xea;" horiz-adv-x="1104" 
d="M328 484l364 124q43 15 43 43q0 22 -18 71q-60 165 -193 165q-105 0 -161 -99q-46 -80 -46 -194q0 -50 11 -110zM348 434q110 -305 340 -305q177 0 294 176q28 43 46 43q21 0 21 -22q0 -28 -35 -83q-83 -127 -220 -201.5t-288 -74.5q-199 0 -325 126t-126 325
q0 222 170 380q166 154 389 154q213 0 328 -139q24 -38 74 -88q15 -5 29 -9q18 -7 18 -22q0 -22 -57 -41zM285 1069l225 348h148l225 -348h-84l-215 178l-215 -178h-84z" />
    <glyph glyph-name="edieresis" unicode="&#xeb;" horiz-adv-x="1104" 
d="M328 484l364 124q43 15 43 43q0 22 -18 71q-60 165 -193 165q-105 0 -161 -99q-46 -80 -46 -194q0 -50 11 -110zM348 434q110 -305 340 -305q177 0 294 176q28 43 46 43q21 0 21 -22q0 -28 -35 -83q-83 -127 -220 -201.5t-288 -74.5q-199 0 -325 126t-126 325
q0 222 170 380q166 154 389 154q213 0 328 -139q24 -38 74 -88q15 -5 29 -9q18 -7 18 -22q0 -22 -57 -41zM645 1233q0 49 36 84t85 35t84 -35t35 -84q0 -54 -32.5 -87.5t-86.5 -33.5q-52 0 -86.5 34.5t-34.5 86.5zM281 1233q0 49 36 84t85 35t84 -35t35 -84q0 -53 -33 -87
t-86 -34q-52 0 -86.5 34.5t-34.5 86.5z" />
    <glyph glyph-name="igrave" unicode="&#xec;" horiz-adv-x="692" 
d="M698 25q0 -25 -53 -25h-563q-53 0 -53 25q0 18 39 27q28 4 56 9q101 26 101 150v407q0 83 -33 118q-29 30 -105 33q-64 3 -64 24q0 24 67 32q51 7 83 13q127 26 265 93q35 17 43 17q19 0 19 -30v-707q0 -124 103 -150q28 -5 56 -9q39 -9 39 -27zM551 1069h-91l-313 164
q-94 49 -94 108q0 91 90 91q55 0 135 -82z" />
    <glyph glyph-name="iacute" unicode="&#xed;" horiz-adv-x="692" 
d="M698 25q0 -25 -53 -25h-563q-53 0 -53 25q0 18 39 27q28 4 56 9q101 26 101 150v407q0 83 -33 118q-29 30 -105 33q-64 3 -64 24q0 24 67 32q51 7 83 13q127 26 265 93q35 17 43 17q19 0 19 -30v-707q0 -124 103 -150q28 -5 56 -9q39 -9 39 -27zM161 1069l273 281
q80 82 135 82q90 0 90 -91q0 -59 -94 -108l-313 -164h-91z" />
    <glyph glyph-name="icircumflex" unicode="&#xee;" horiz-adv-x="692" 
d="M698 25q0 -25 -53 -25h-563q-53 0 -53 25q0 18 39 27q28 4 56 9q101 26 101 150v407q0 83 -33 118q-29 30 -105 33q-64 3 -64 24q0 24 67 32q51 7 83 13q127 26 265 93q35 17 43 17q19 0 19 -30v-707q0 -124 103 -150q28 -5 56 -9q39 -9 39 -27zM57 1069l225 348h148
l225 -348h-84l-215 178l-215 -178h-84z" />
    <glyph glyph-name="idieresis" unicode="&#xef;" horiz-adv-x="692" 
d="M698 25q0 -25 -53 -25h-563q-53 0 -53 25q0 18 39 27q28 4 56 9q101 26 101 150v407q0 83 -33 118q-29 30 -105 33q-64 3 -64 24q0 24 67 32q51 7 83 13q127 26 265 93q35 17 43 17q19 0 19 -30v-707q0 -124 103 -150q28 -5 56 -9q39 -9 39 -27zM417 1233q0 49 36 84
t85 35t84 -35t35 -84q0 -54 -32.5 -87.5t-86.5 -33.5q-52 0 -86.5 34.5t-34.5 86.5zM53 1233q0 49 36 84t85 35t84 -35t35 -84q0 -53 -33 -87t-86 -34q-52 0 -86.5 34.5t-34.5 86.5z" />
    <glyph glyph-name="eth" unicode="&#xf0;" horiz-adv-x="1239" 
d="M680 1272q504 -368 504 -795q0 -237 -169 -378q-159 -132 -401 -132q-235 0 -391 121q-170 133 -170 361q0 225 175 362q161 125 393 125q75 0 133 -18q-62 126 -207 284q-323 -162 -334 -162q-25 0 -25 33q0 17 27 31l287 145q-68 65 -137 131q-113 108 -113 115
q0 21 20 21q60 0 353 -203q320 162 327 162q25 0 25 -35q0 -15 -27 -29zM614 887q-239 0 -239 -406q0 -461 241 -461q248 0 248 424q0 443 -250 443z" />
    <glyph glyph-name="ntilde" unicode="&#xf1;" horiz-adv-x="1294" 
d="M500 791q136 84 190 110q113 53 211 53q126 0 174 -70q39 -58 39 -192v-481q0 -117 92 -145q26 -6 51 -13q35 -11 35 -28q0 -25 -55 -25h-489q-54 0 -54 25q0 15 30 26q22 8 44 15q72 32 72 147v442q0 87 -15 121q-25 53 -100 53q-66 0 -225 -102v-514q0 -116 72 -148
q22 -7 43 -14q30 -11 30 -26q0 -25 -53 -25h-512q-53 0 -53 25q0 17 40 28q28 7 56 13q62 16 83 55q17 30 17 90v407q0 83 -33 118q-30 30 -106 33q-64 3 -64 24q0 23 69 32q178 22 348 106q34 17 42 17q21 0 21 -30v-127zM959 1391q-29 -248 -205 -248q-37 0 -109 22.5
t-110 22.5q-59 0 -90 -88h-66q34 248 211 248q35 0 106 -21.5t105 -21.5q62 0 92 86h66z" />
    <glyph glyph-name="ograve" unicode="&#xf2;" horiz-adv-x="1239" 
d="M375 469q0 -449 241 -449q248 0 248 435q0 452 -250 452q-239 0 -239 -438zM53 467q0 224 179 363q165 128 395 128q234 0 391 -126q168 -136 168 -365t-175 -369q-163 -131 -397 -131q-242 0 -396 127q-165 136 -165 373zM816 1069h-91l-313 164q-94 49 -94 108
q0 91 90 91q55 0 135 -82z" />
    <glyph glyph-name="oacute" unicode="&#xf3;" horiz-adv-x="1239" 
d="M375 469q0 -449 241 -449q248 0 248 435q0 452 -250 452q-239 0 -239 -438zM53 467q0 224 179 363q165 128 395 128q234 0 391 -126q168 -136 168 -365t-175 -369q-163 -131 -397 -131q-242 0 -396 127q-165 136 -165 373zM426 1069l273 281q80 82 135 82q90 0 90 -91
q0 -59 -94 -108l-313 -164h-91z" />
    <glyph glyph-name="ocircumflex" unicode="&#xf4;" horiz-adv-x="1239" 
d="M375 469q0 -449 241 -449q248 0 248 435q0 452 -250 452q-239 0 -239 -438zM53 467q0 224 179 363q165 128 395 128q234 0 391 -126q168 -136 168 -365t-175 -369q-163 -131 -397 -131q-242 0 -396 127q-165 136 -165 373zM322 1069l225 348h148l225 -348h-84l-215 178
l-215 -178h-84z" />
    <glyph glyph-name="otilde" unicode="&#xf5;" horiz-adv-x="1239" 
d="M375 469q0 -449 241 -449q248 0 248 435q0 452 -250 452q-239 0 -239 -438zM53 467q0 224 179 363q165 128 395 128q234 0 391 -126q168 -136 168 -365t-175 -369q-163 -131 -397 -131q-242 0 -396 127q-165 136 -165 373zM910 1391q-29 -248 -205 -248q-37 0 -109 22.5
t-110 22.5q-59 0 -90 -88h-66q34 248 211 248q35 0 106 -21.5t105 -21.5q62 0 92 86h66z" />
    <glyph glyph-name="odieresis" unicode="&#xf6;" horiz-adv-x="1239" 
d="M375 469q0 -449 241 -449q248 0 248 435q0 452 -250 452q-239 0 -239 -438zM53 467q0 224 179 363q165 128 395 128q234 0 391 -126q168 -136 168 -365t-175 -369q-163 -131 -397 -131q-242 0 -396 127q-165 136 -165 373zM682 1233q0 49 36 84t85 35t84 -35t35 -84
q0 -54 -32.5 -87.5t-86.5 -33.5q-52 0 -86.5 34.5t-34.5 86.5zM318 1233q0 49 36 84t85 35t84 -35t35 -84q0 -53 -33 -87t-86 -34q-52 0 -86.5 34.5t-34.5 86.5z" />
    <glyph glyph-name="divide" unicode="&#xf7;" 
d="M854 369q62 0 107 -45t45 -107t-45 -105.5t-107 -43.5q-64 0 -108 43t-44 106t44.5 107.5t107.5 44.5zM254 711h1198v-199h-1198v199zM854 1155q62 0 107 -44.5t45 -106.5q0 -63 -44.5 -107.5t-107.5 -44.5t-107.5 44.5t-44.5 107.5t44.5 107t107.5 44z" />
    <glyph glyph-name="oslash" unicode="&#xf8;" horiz-adv-x="1239" 
d="M397 0l-121 -207q-16 -28 -29 -33q-8 -4 -44 -4q-25 0 -25 21q0 8 141 254q-266 127 -266 424q0 231 177 371q164 130 401 130q103 0 207 -32l104 188q14 26 31 32q9 3 45 3q24 0 24 -21q0 -8 -131 -231q273 -130 273 -424q0 -235 -175 -375q-162 -129 -403 -129
q-114 0 -209 33zM410 184l374 650q-57 69 -170 69q-245 0 -245 -461q0 -147 41 -258zM829 750l-378 -652q44 -78 167 -78q252 0 252 447q0 168 -41 283z" />
    <glyph glyph-name="ugrave" unicode="&#xf9;" horiz-adv-x="1284" 
d="M-27 793q0 23 69 32q177 22 348 106q35 17 42 17q21 0 21 -30v-639q0 -93 13 -126q24 -57 101 -57q50 0 119 37q55 33 109 66v419q0 83 -33 118q-29 30 -107 33q-65 3 -65 24q0 23 69 32q176 22 347 106q35 17 43 17q20 0 20 -30v-707q0 -124 91 -150q26 -5 52 -9
q35 -9 35 -27q0 -25 -49 -25h-348q-47 0 -53 25q-2 10 -2 30v80q-146 -88 -192 -110q-114 -54 -212 -54q-125 0 -174 71q-39 58 -39 191v385q0 83 -33 118q-30 31 -107 33q-65 3 -65 24zM795 1069h-91l-313 164q-94 49 -94 108q0 91 90 91q55 0 135 -82z" />
    <glyph glyph-name="uacute" unicode="&#xfa;" horiz-adv-x="1284" 
d="M-27 793q0 23 69 32q177 22 348 106q35 17 42 17q21 0 21 -30v-639q0 -93 13 -126q24 -57 101 -57q50 0 119 37q55 33 109 66v419q0 83 -33 118q-29 30 -107 33q-65 3 -65 24q0 23 69 32q176 22 347 106q35 17 43 17q20 0 20 -30v-707q0 -124 91 -150q26 -5 52 -9
q35 -9 35 -27q0 -25 -49 -25h-348q-47 0 -53 25q-2 10 -2 30v80q-146 -88 -192 -110q-114 -54 -212 -54q-125 0 -174 71q-39 58 -39 191v385q0 83 -33 118q-30 31 -107 33q-65 3 -65 24zM405 1069l273 281q80 82 135 82q90 0 90 -91q0 -59 -94 -108l-313 -164h-91z" />
    <glyph glyph-name="ucircumflex" unicode="&#xfb;" horiz-adv-x="1284" 
d="M-27 793q0 23 69 32q177 22 348 106q35 17 42 17q21 0 21 -30v-639q0 -93 13 -126q24 -57 101 -57q50 0 119 37q55 33 109 66v419q0 83 -33 118q-29 30 -107 33q-65 3 -65 24q0 23 69 32q176 22 347 106q35 17 43 17q20 0 20 -30v-707q0 -124 91 -150q26 -5 52 -9
q35 -9 35 -27q0 -25 -49 -25h-348q-47 0 -53 25q-2 10 -2 30v80q-146 -88 -192 -110q-114 -54 -212 -54q-125 0 -174 71q-39 58 -39 191v385q0 83 -33 118q-30 31 -107 33q-65 3 -65 24zM301 1069l225 348h148l225 -348h-84l-215 178l-215 -178h-84z" />
    <glyph glyph-name="udieresis" unicode="&#xfc;" horiz-adv-x="1284" 
d="M-27 793q0 23 69 32q177 22 348 106q35 17 42 17q21 0 21 -30v-639q0 -93 13 -126q24 -57 101 -57q50 0 119 37q55 33 109 66v419q0 83 -33 118q-29 30 -107 33q-65 3 -65 24q0 23 69 32q176 22 347 106q35 17 43 17q20 0 20 -30v-707q0 -124 91 -150q26 -5 52 -9
q35 -9 35 -27q0 -25 -49 -25h-348q-47 0 -53 25q-2 10 -2 30v80q-146 -88 -192 -110q-114 -54 -212 -54q-125 0 -174 71q-39 58 -39 191v385q0 83 -33 118q-30 31 -107 33q-65 3 -65 24zM661 1233q0 49 36 84t85 35t84 -35t35 -84q0 -54 -32.5 -87.5t-86.5 -33.5
q-52 0 -86.5 34.5t-34.5 86.5zM297 1233q0 49 36 84t85 35t84 -35t35 -84q0 -53 -33 -87t-86 -34q-52 0 -86.5 34.5t-34.5 86.5z" />
    <glyph glyph-name="yacute" unicode="&#xfd;" horiz-adv-x="1028" 
d="M-82 901q0 23 55 23h572q53 0 53 -23q0 -22 -85 -40.5t-85 -65.5q0 -28 23 -84l176 -428l129 288q53 118 53 193q0 54 -41 79q-16 10 -76 26q-41 12 -41 32q0 23 54 23h354q53 0 53 -23q0 -18 -40 -31q-90 -30 -151 -111q-55 -72 -102 -175l-164 -361q44 -41 88 -84
q0 -5 -74 -42.5t-124 -108.5q-23 -33 -68 -128q-70 -149 -120 -212q-90 -113 -201 -113q-79 0 -128 42q-53 45 -53 122q0 66 42.5 105.5t109.5 39.5q51 0 112.5 -56t84.5 -56q64 0 147 248l-309 706q-69 157 -157 178q-26 5 -51 10q-36 9 -36 27zM319 1069l273 281
q80 82 135 82q90 0 90 -91q0 -59 -94 -108l-313 -164h-91z" />
    <glyph glyph-name="thorn" unicode="&#xfe;" horiz-adv-x="1298" 
d="M729 887q-142 0 -207 -149q-47 -108 -47 -271q0 -430 244 -430q227 0 227 434q0 416 -217 416zM207 1188q0 81 -32 115q-30 30 -108 33q-65 3 -65 24q0 20 65 34q44 6 87 13q133 28 265 93q36 18 42 18q20 0 20 -31v-711q108 176 312 176q199 0 329 -146
q125 -140 125 -341q0 -206 -135 -351t-340 -145q-186 0 -291 144v-338q0 -124 109 -150q30 -4 61 -9q43 -9 43 -28q0 -24 -57 -24h-584q-57 0 -57 24q0 23 55 31q73 10 101 29q55 36 55 127v1413z" />
    <glyph glyph-name="ydieresis" unicode="&#xff;" horiz-adv-x="1028" 
d="M-82 901q0 23 55 23h572q53 0 53 -23q0 -22 -85 -40.5t-85 -65.5q0 -28 23 -84l176 -428l129 288q53 118 53 193q0 54 -41 79q-16 10 -76 26q-41 12 -41 32q0 23 54 23h354q53 0 53 -23q0 -18 -40 -31q-90 -30 -151 -111q-55 -72 -102 -175l-164 -361q44 -41 88 -84
q0 -5 -74 -42.5t-124 -108.5q-23 -33 -68 -128q-70 -149 -120 -212q-90 -113 -201 -113q-79 0 -128 42q-53 45 -53 122q0 66 42.5 105.5t109.5 39.5q51 0 112.5 -56t84.5 -56q64 0 147 248l-309 706q-69 157 -157 178q-26 5 -51 10q-36 9 -36 27zM575 1233q0 49 36 84t85 35
t84 -35t35 -84q0 -54 -32.5 -87.5t-86.5 -33.5q-52 0 -86.5 34.5t-34.5 86.5zM211 1233q0 49 36 84t85 35t84 -35t35 -84q0 -53 -33 -87t-86 -34q-52 0 -86.5 34.5t-34.5 86.5z" />
    <glyph glyph-name="Cacute" unicode="&#x106;" horiz-adv-x="1493" 
d="M1411 1051q0 -27 -22 -27t-59 61q-218 357 -474 357q-255 0 -368 -249q-82 -181 -82 -472q0 -703 477 -703q296 0 444 273q15 38 31 76q23 53 47 53q33 0 33 -37q0 -26 -30 -87q-166 -339 -570 -339q-338 0 -555 211.5t-217 548.5q0 339 204 558q208 224 545 224
q75 0 175 -18.5t118 -18.5q55 0 77 47t29 47q21 0 33 -34l160 -449q4 -11 4 -22zM647 1610l273 281q80 82 135 82q90 0 90 -91q0 -59 -94 -108l-313 -164h-91z" />
    <glyph glyph-name="cacute" unicode="&#x107;" horiz-adv-x="1030" 
d="M59 432q0 235 163 383q158 143 396 143q131 0 224 -48q119 -61 119 -179q0 -66 -42.5 -101.5t-109.5 -35.5q-65 0 -104 39t-39 104q0 14 5 43t5 43q0 36 -30.5 56t-67.5 20q-125 0 -190 -110q-52 -89 -52 -224q0 -177 84 -306q98 -150 266 -150q76 0 149 42q46 26 103 77
q46 42 55 42q19 0 19 -18q0 -20 -28 -58t-75 -77q-179 -148 -393 -148q-207 0 -332 128t-125 335zM378 1069l273 281q80 82 135 82q90 0 90 -91q0 -59 -94 -108l-313 -164h-91z" />
    <glyph glyph-name="Ccaron" unicode="&#x10c;" horiz-adv-x="1493" 
d="M1411 1051q0 -27 -22 -27t-59 61q-218 357 -474 357q-255 0 -368 -249q-82 -181 -82 -472q0 -703 477 -703q296 0 444 273q15 38 31 76q23 53 47 53q33 0 33 -37q0 -26 -30 -87q-166 -339 -570 -339q-338 0 -555 211.5t-217 548.5q0 339 204 558q208 224 545 224
q75 0 175 -18.5t118 -18.5q55 0 77 47t29 47q21 0 33 -34l160 -449q4 -11 4 -22zM543 1958h84l215 -178l215 178h84l-225 -348h-148z" />
    <glyph glyph-name="ccaron" unicode="&#x10d;" horiz-adv-x="1030" 
d="M59 432q0 235 163 383q158 143 396 143q131 0 224 -48q119 -61 119 -179q0 -66 -42.5 -101.5t-109.5 -35.5q-65 0 -104 39t-39 104q0 14 5 43t5 43q0 36 -30.5 56t-67.5 20q-125 0 -190 -110q-52 -89 -52 -224q0 -177 84 -306q98 -150 266 -150q76 0 149 42q46 26 103 77
q46 42 55 42q19 0 19 -18q0 -20 -28 -58t-75 -77q-179 -148 -393 -148q-207 0 -332 128t-125 335zM274 1417h84l215 -178l215 178h84l-225 -348h-148z" />
    <glyph glyph-name="Dslash" unicode="&#x110;" 
d="M588 748v-410q0 -161 40 -216q49 -67 203 -67q451 0 451 672q0 301 -81 458q-109 214 -380 214q-147 0 -195 -69q-38 -55 -38 -212v-291h350q37 0 37 -41q0 -38 -35 -38h-352zM80 0q-57 0 -57 31q0 25 60 32q130 16 167 92q31 65 31 296v297h-214q-35 0 -35 40
q0 39 33 39h216v178q0 220 -25 284q-37 93 -176 107q-57 6 -57 31q0 29 57 29h754q185 0 302 -33q226 -66 362 -264q130 -191 130 -432q0 -240 -131 -431q-136 -197 -361 -262q-116 -34 -302 -34h-754z" />
    <glyph glyph-name="dcroat" unicode="&#x111;" horiz-adv-x="1309" 
d="M823 1081h-340q-34 0 -34 37t32 37h342v33q0 81 -32 115q-29 30 -106 33q-64 3 -64 24q0 25 71 34q181 23 346 106q36 18 41 18q21 0 21 -31v-330h164q34 0 34 -39q0 -37 -32 -37h-166v-870q0 -115 92 -145l68 -12q49 -11 49 -29q0 -25 -56 -25h-370q-60 0 -60 61v84
q-89 -176 -309 -176q-199 0 -329 146q-126 141 -126 342q0 206 134.5 350.5t338.5 144.5q187 0 291 -143v272zM831 465q0 420 -245 420q-226 0 -226 -434q0 -414 215 -414q145 0 210 151q46 109 46 277z" />
    <glyph glyph-name="Gbreve" unicode="&#x11e;" horiz-adv-x="1688" 
d="M1636 760q60 0 60 -31q0 -25 -53 -32q-69 -8 -100 -25q-43 -24 -65 -80q-26 -65 -26 -260q0 -154 28 -253q2 -4 3 -11q0 -21 -25 -21q-11 3 -40 13q-40 12 -79 12q-61 0 -188 -39q-247 -76 -365 -76q-314 0 -520 225q-200 218 -200 535q0 338 208 558q212 224 547 224
q91 0 199.5 -20.5t122.5 -20.5q59 0 82 48t28 48q23 0 35 -32q166 -460 166 -471q0 -27 -24 -27q-17 0 -90 108q-90 132 -175 200q-135 108 -301 108q-458 0 -458 -713q0 -274 69 -452q100 -257 330 -257q173 0 268 125q86 112 86 291q0 139 -38.5 194.5t-155.5 66.5
q-103 10 -103 34q0 31 64 31h710zM535 1927h76q32 -122 233 -122q204 0 231 122h76q-41 -286 -307 -286t-309 286z" />
    <glyph glyph-name="gbreve" unicode="&#x11f;" horiz-adv-x="1128" 
d="M379 594q0 -305 174 -305q117 0 158 108q26 67 26 209q0 134 -25 201q-39 108 -149 108q-184 0 -184 -321zM248 336q-142 114 -142 266q0 182 157 277q131 79 325 79q60 0 164 -28q152 211 268 211q46 0 81.5 -29t35.5 -74q0 -52 -33.5 -85t-85.5 -33q-38 0 -84.5 30.5
t-48.5 30.5q-43 0 -84 -72q211 -98 211 -299q0 -182 -149 -280q-129 -84 -320 -84q-124 0 -248 53q-49 -29 -49 -82q0 -52 53 -74q49 -20 258 -20q362 0 463.5 -57t101.5 -193q0 -152 -163.5 -245t-440.5 -93q-166 0 -286 36q-183 55 -183 181q0 65 57 100q47 29 117 29
q52 0 53 -20l-36 -50q-19 -29 -19 -59q0 -92 127 -135q87 -29 203 -29q131 0 240 37q153 52 153 156q0 65 -54 92q-46 23 -384 23q-183 0 -273 29q-153 50 -153 194q0 117 168 217zM256 1386h76q32 -122 233 -122q204 0 231 122h76q-41 -286 -307 -286t-309 286z" />
    <glyph glyph-name="Idotaccent" unicode="&#x130;" horiz-adv-x="862" 
d="M793 1456q59 0 59 -31q0 -25 -59 -29q-143 -11 -181 -105q-26 -65 -26 -287v-552q0 -222 26 -286q38 -93 181 -103q59 -5 59 -32q0 -31 -59 -31h-723q-60 0 -60 31q0 25 60 30q143 10 181 105q25 63 25 284v552q0 222 -25 286q-37 93 -181 104q-60 4 -60 31q0 33 60 33
h723zM303 1774q0 51 38 89t89 38q52 0 89.5 -37.5t37.5 -89.5q0 -55 -36 -91t-91 -36q-54 0 -90.5 36.5t-36.5 90.5z" />
    <glyph glyph-name="dotlessi" unicode="&#x131;" horiz-adv-x="692" 
d="M698 25q0 -25 -53 -25h-563q-53 0 -53 25q0 18 39 27q28 4 56 9q101 26 101 150v407q0 83 -33 118q-29 30 -105 33q-64 3 -64 24q0 24 67 32q51 7 83 13q127 26 265 93q35 17 43 17q19 0 19 -30v-707q0 -124 103 -150q28 -5 56 -9q39 -9 39 -27z" />
    <glyph glyph-name="Lslash" unicode="&#x141;" horiz-adv-x="1436" 
d="M23 31q0 22 46 29q78 13 96 19q60 21 85 76q31 68 31 312v78l-228 -156q-12 -8 -22 -8q-14 0 -27.5 16.5t-13.5 30.5t16 25l275 190v361q0 218 -25 285q-37 96 -177 107q-56 4 -56 29q0 31 57 31h725q63 0 63 -29q0 -26 -66 -32q-142 -14 -180 -91q-34 -69 -34 -299v-192
l317 217q12 8 21 8q14 0 27.5 -16t13.5 -31q0 -14 -15 -24l-364 -252v-391q0 -144 40 -200q49 -67 185 -67q320 0 549 324q49 70 65 70q19 0 19 -27q0 -13 -12 -39l-234 -512q-15 -33 -33 -33q-14 0 -26 31q-17 40 -21 45q-37 45 -122 64.5t-255 19.5h-663q-57 0 -57 31z
" />
    <glyph glyph-name="lslash" unicode="&#x142;" horiz-adv-x="711" 
d="M504 838l182 129q11 8 23 8q13 0 26 -16t13 -29q0 -11 -19 -25l-225 -160v-538q0 -120 101 -146q28 -5 56 -9q39 -9 39 -27q0 -25 -48 -25h-573q-48 0 -48 25q0 18 39 27q28 4 56 9q103 26 103 146v373l-181 -129q-13 -9 -23 -9q-14 0 -26.5 15.5t-12.5 29.5t16 25
l227 160v521q0 144 -143 144q-61 0 -61 23q0 25 71 34q178 23 345 106q36 18 42 18q21 0 21 -31v-649z" />
    <glyph glyph-name="OE" unicode="&#x152;" horiz-adv-x="2439" 
d="M1728 1456q269 0 332 31q18 9 51 43q30 31 31 31q21 0 39 -43l166 -404q10 -24 10 -33q0 -18 -22 -18q-15 0 -68 66q-101 125 -243 199q-148 77 -302 77q-127 0 -176 -63q-43 -55 -43 -187v-342h88q234 0 299 29q94 42 107 204q5 66 31 66q28 0 28 -68v-542
q0 -76 -28 -76q-23 0 -31 73q-15 148 -89.5 204.5t-205.5 56.5h-199v-420q0 -161 43 -218q51 -67 205 -67q199 0 342 80q133 75 256 243q53 73 68 73q20 0 20 -27q0 -13 -248 -551q-15 -33 -32 -33q-14 0 -27 31q-17 41 -21 46q-69 83 -361 83h-386q-108 0 -285.5 -18.5
t-232.5 -18.5q-353 0 -565.5 211.5t-212.5 564.5q0 340 228 549q221 203 564 203q105 0 270 -17.5t214 -17.5h386zM1202 399v645q0 201 -69 293q-80 105 -275 105q-248 0 -361 -252q-83 -184 -83 -467q0 -709 444 -709q188 0 270 101q74 91 74 284z" />
    <glyph glyph-name="oe" unicode="&#x153;" horiz-adv-x="1925" 
d="M1145 432q104 -303 358 -303q100 0 181 46q50 27 108 84q47 46 61 46q19 0 19 -24q0 -19 -36 -67q-88 -114 -221.5 -181.5t-275.5 -67.5q-206 0 -340 152q-138 -150 -403 -150q-233 0 -383 131q-158 138 -158 367q0 220 176 361q164 130 390 130q272 0 399 -172
q157 179 375 179q225 0 348 -150q25 -38 74 -88q15 -5 29 -9q18 -7 18 -22q0 -22 -58 -41zM1130 484l373 128q47 16 47 41q0 15 -12 53q-61 193 -207 193q-108 0 -165 -100q-46 -82 -46 -199q0 -46 10 -116zM367 467q0 -447 241 -447q248 0 248 433q0 450 -250 450
q-239 0 -239 -436z" />
    <glyph glyph-name="Scedilla" unicode="&#x15e;" horiz-adv-x="1319" 
d="M1171 1077q0 -33 -24 -33q-20 0 -71 75l-64 100q-64 94 -173 155q-112 62 -223 62q-125 0 -211 -57q-100 -66 -100 -185q0 -98 90 -166q37 -28 343 -111l124 -34q383 -107 383 -414q0 -234 -181 -371q-164 -125 -405 -125q-67 0 -147.5 12.5t-89.5 12.5
q-48 0 -90.5 -54.5t-48.5 -54.5q-14 0 -29 33q-223 503 -223 506q0 33 26 33q14 0 98 -111q103 -135 200 -206q152 -111 329 -111q130 0 219 65q101 72 101 197q0 180 -435 304q-245 70 -341 133q-165 109 -165 302q0 209 172 339q157 118 373 118q67 0 156.5 -16.5
t105.5 -16.5q46 0 71 47t32 47q12 0 28 -39l160 -397q10 -25 10 -39zM374 -375l41 88q137 -73 248 -73q86 0 86 81q0 86 -100 86q-29 0 -61 -6l-1 199h70v-112q49 6 66 6q83 0 133 -43q53 -46 53 -127q0 -181 -229 -181q-104 0 -306 82z" />
    <glyph glyph-name="scedilla" unicode="&#x15f;" horiz-adv-x="1038" 
d="M78 340q0 29 20 29q23 0 54 -55q165 -291 421 -291q179 0 179 145q0 113 -287 184q-236 59 -304.5 120.5t-68.5 174.5q0 141 115 228q104 79 250 79q62 0 139 -15t90 -15q38 0 64.5 28.5t27.5 28.5q18 0 29 -35l82 -262q6 -19 6 -35q0 -22 -23 -22q-15 0 -44 49
q-11 19 -35 57q-126 172 -301 172q-64 0 -108 -31q-50 -35 -50 -96q0 -111 277 -178q170 -41 244 -87q122 -75 122 -212q0 -153 -124 -246q-112 -84 -271 -84q-62 0 -143 17.5t-101 17.5q-39 0 -78 -33.5t-47 -33.5q-10 0 -24 41q-8 22 -109 339q-2 6 -2 21zM241 -375l41 88
q137 -73 248 -73q86 0 86 81q0 86 -100 86q-29 0 -61 -6l-1 199h70v-112q49 6 66 6q83 0 133 -43q53 -46 53 -127q0 -181 -229 -181q-104 0 -306 82z" />
    <glyph glyph-name="Scaron" unicode="&#x160;" horiz-adv-x="1319" 
d="M1171 1077q0 -33 -24 -33q-20 0 -71 75l-64 100q-64 94 -173 155q-112 62 -223 62q-125 0 -211 -57q-100 -66 -100 -185q0 -98 90 -166q37 -28 343 -111l124 -34q383 -107 383 -414q0 -234 -181 -371q-164 -125 -405 -125q-67 0 -147.5 12.5t-89.5 12.5
q-48 0 -90.5 -54.5t-48.5 -54.5q-14 0 -29 33q-223 503 -223 506q0 33 26 33q14 0 98 -111q103 -135 200 -206q152 -111 329 -111q130 0 219 65q101 72 101 197q0 180 -435 304q-245 70 -341 133q-165 109 -165 302q0 209 172 339q157 118 373 118q67 0 156.5 -16.5
t105.5 -16.5q46 0 71 47t32 47q12 0 28 -39l160 -397q10 -25 10 -39zM360 1958h84l215 -178l215 178h84l-225 -348h-148z" />
    <glyph glyph-name="scaron" unicode="&#x161;" horiz-adv-x="1038" 
d="M78 340q0 29 20 29q23 0 54 -55q165 -291 421 -291q179 0 179 145q0 113 -287 184q-236 59 -304.5 120.5t-68.5 174.5q0 141 115 228q104 79 250 79q62 0 139 -15t90 -15q38 0 64.5 28.5t27.5 28.5q18 0 29 -35l82 -262q6 -19 6 -35q0 -22 -23 -22q-15 0 -44 49
q-11 19 -35 57q-126 172 -301 172q-64 0 -108 -31q-50 -35 -50 -96q0 -111 277 -178q170 -41 244 -87q122 -75 122 -212q0 -153 -124 -246q-112 -84 -271 -84q-62 0 -143 17.5t-101 17.5q-39 0 -78 -33.5t-47 -33.5q-10 0 -24 41q-8 22 -109 339q-2 6 -2 21zM221 1417h84
l215 -178l215 178h84l-225 -348h-148z" />
    <glyph glyph-name="Ydieresis" unicode="&#x178;" horiz-adv-x="1450" 
d="M852 452q0 -219 28 -285q39 -96 193 -108q62 -5 62 -30q0 -29 -64 -29h-743q-64 0 -64 29q0 25 67 32q142 14 180 91q34 69 34 299v208l-328 525q-34 56 -114 155q-44 41 -91 50l-64 8q-46 8 -46 30q0 29 59 29h686q64 0 64 -29q0 -22 -51 -27q-78 -8 -95 -14
q-51 -18 -51 -71q0 -24 35 -82l285 -469l217 317q90 131 90 205q0 55 -29 79q-26 21 -122 32q-81 9 -81 30q0 29 58 29h516q63 0 63 -29q0 -23 -56 -34q-109 -22 -194 -97q-79 -71 -190 -233l-254 -371v-240zM786 1774q0 49 36 84t85 35t84 -35t35 -84q0 -54 -32.5 -87.5
t-86.5 -33.5q-52 0 -86.5 34.5t-34.5 86.5zM422 1774q0 49 36 84t85 35t84 -35t35 -84q0 -53 -33 -87t-86 -34q-52 0 -86.5 34.5t-34.5 86.5z" />
    <glyph glyph-name="Zcaron" unicode="&#x17d;" horiz-adv-x="1380" 
d="M1288 1430q0 -19 -20 -48l-910 -1327h310q181 0 290 36q131 44 240 161q47 50 95 126q45 71 65 71q26 0 26 -25q0 -9 -14 -39l-237 -511q-16 -34 -31 -34t-28 31q-17 41 -21 45q-37 44 -121.5 64t-253.5 20h-631q-57 0 -57 31q0 15 26 53l902 1319h-190q-299 0 -490 -160
q-56 -47 -105 -112q-52 -68 -70 -68q-22 0 -22 27q1 2 10 24l166 404q18 43 39 43q8 0 27 -25q23 -29 28 -33q33 -26 112 -36q76 -11 275 -11h543q47 0 47 -26zM391 1958h84l215 -178l215 178h84l-225 -348h-148z" />
    <glyph glyph-name="zcaron" unicode="&#x17e;" horiz-adv-x="1012" 
d="M616 877h-79q-190 0 -326 -138q-39 -40 -74.5 -100.5t-52.5 -60.5q-25 0 -25 22q0 8 156 346q18 39 33 39q-1 0 34.5 -30.5t88.5 -30.5h528q53 0 53 -21q0 -14 -22 -45l-570 -809h82q109 0 219.5 45.5t184.5 122.5q31 32 66 90q33 55 51 55q20 0 20 -22q0 -11 -10 -33
l-174 -383q-12 -26 -25 -26t-26 27q-18 35 -23 40q-35 35 -240 35h-387q-42 0 -56 5q-17 5 -17 13q0 21 32 66zM207 1417h84l215 -178l215 178h84l-225 -348h-148z" />
    <glyph glyph-name="florin" unicode="&#x192;" horiz-adv-x="1280" 
d="M512 807h-172q-49 0 -49 35q0 37 47 37h186q75 610 432 610q99 0 170 -52q78 -57 78 -153q0 -81 -39 -133q-43 -57 -121 -57q-67 0 -111 38.5t-44 104.5q0 117 123 117q-21 -37 -21 -58q0 -61 56 -61q67 0 67 82q0 61 -48 95q-42 30 -105 30q-98 0 -140.5 -119.5
t-42.5 -415.5v-28h205q41 0 41 -37q0 -35 -43 -35h-203q-13 -640 -128.5 -932.5t-352.5 -292.5q-105 0 -179 53q-83 59 -83 160q0 86 46 143q50 62 134 62q74 0 121 -39q49 -42 49 -115q0 -58 -38 -91.5t-97 -33.5q24 39 24 64q0 63 -63 63q-74 0 -74 -84q0 -62 49 -100
q46 -35 109 -35q90 0 133.5 71.5t56.5 298.5q1 19 7 314q6 290 20 494z" />
    <glyph glyph-name="circumflex" unicode="&#x2c6;" horiz-adv-x="1024" 
d="M213 1069l225 348h148l225 -348h-84l-215 178l-215 -178h-84z" />
    <glyph glyph-name="caron" unicode="&#x2c7;" horiz-adv-x="1024" 
d="M213 1417h84l215 -178l215 178h84l-225 -348h-148z" />
    <glyph glyph-name="macron" unicode="&#xaf;" horiz-adv-x="1024" 
d="M236 1159v146h552v-146h-552z" />
    <glyph glyph-name="macron" unicode="&#x2c9;" horiz-adv-x="1024" 
d="M236 1159v146h552v-146h-552z" />
    <glyph glyph-name="breve" unicode="&#x2d8;" horiz-adv-x="1024" 
d="M203 1386h76q32 -122 233 -122q204 0 231 122h76q-41 -286 -307 -286t-309 286z" />
    <glyph glyph-name="dotaccent" unicode="&#x2d9;" horiz-adv-x="1024" 
d="M385 1233q0 51 38 89t89 38q52 0 89.5 -37.5t37.5 -89.5q0 -55 -36 -91t-91 -36q-54 0 -90.5 36.5t-36.5 90.5z" />
    <glyph glyph-name="ring" unicode="&#x2da;" horiz-adv-x="1024" 
d="M377 1303q0 -57 39 -96.5t96 -39.5t96 39.5t39 96.5q0 56 -39.5 95.5t-95.5 39.5q-57 0 -96 -39t-39 -96zM260 1303q0 107 72.5 179t179.5 72q106 0 180 -72.5t74 -178.5q0 -107 -73.5 -180.5t-180.5 -73.5t-179.5 73.5t-72.5 180.5z" />
    <glyph glyph-name="ogonek" unicode="&#x2db;" horiz-adv-x="1024" 
d="M684 31q-174 -140 -174 -264q0 -113 92 -113q68 0 117 72l33 -19q-82 -164 -240 -164q-66 0 -108 42t-42 108q0 167 269 338h53z" />
    <glyph glyph-name="tilde" unicode="&#x2dc;" horiz-adv-x="1024" 
d="M801 1391q-29 -248 -205 -248q-37 0 -109 22.5t-110 22.5q-59 0 -90 -88h-66q34 248 211 248q35 0 106 -21.5t105 -21.5q62 0 92 86h66z" />
    <glyph glyph-name="hungarumlaut" unicode="&#x2dd;" horiz-adv-x="1024" 
d="M565 1069l197 281q59 84 104 84q33 0 56.5 -23.5t23.5 -56.5q0 -52 -65 -101l-242 -184h-74zM313 1069l144 270q51 95 102 95q33 0 55.5 -21.5t22.5 -54.5q0 -47 -51 -96l-199 -193h-74z" />
    <glyph glyph-name="Delta" unicode="&#x394;" horiz-adv-x="1350" 
d="M547 1116l-381 -827h764zM647 1497h68l692 -1497h-1460z" />
    <glyph glyph-name="Delta" unicode="&#x2206;" horiz-adv-x="1350" 
d="M547 1116l-381 -827h764zM647 1497h68l692 -1497h-1460z" />
    <glyph glyph-name="Omega" unicode="&#x3a9;" horiz-adv-x="1569" 
d="M1133 258v-14h290l43 145h78l-117 -389h-530q197 436 197 854q0 555 -308 555q-309 0 -309 -555q0 -416 199 -854h-533l-116 389h75l45 -145h289v14q-342 183 -342 582q0 292 202 477q195 180 490 180t490 -180q201 -185 201 -477q0 -394 -344 -582z" />
    <glyph glyph-name="Omega" unicode="&#x2126;" horiz-adv-x="1569" 
d="M1133 258v-14h290l43 145h78l-117 -389h-530q197 436 197 854q0 555 -308 555q-309 0 -309 -555q0 -416 199 -854h-533l-116 389h75l45 -145h289v14q-342 183 -342 582q0 292 202 477q195 180 490 180t490 -180q201 -185 201 -477q0 -394 -344 -582z" />
    <glyph glyph-name="mu" unicode="&#xb5;" horiz-adv-x="1202" 
d="M178 209q-11 -84 -29 -252q-42 -381 -155 -381q-115 0 -115 115q0 46 68 274q67 224 106 408l109 512h256l-99 -459q-22 -102 -22 -147q0 -125 115 -125q137 0 184 219l109 512h256l-115 -533q-17 -79 -17 -110q0 -88 74 -88q61 0 96 51q12 16 44 94q21 51 47 51
q32 0 32 -39q0 -34 -16 -88q-75 -248 -279 -248q-165 0 -184 199q-75 -199 -248 -199q-194 0 -217 234z" />
    <glyph glyph-name="mu" unicode="&#x3bc;" horiz-adv-x="1202" 
d="M178 209q-11 -84 -29 -252q-42 -381 -155 -381q-115 0 -115 115q0 46 68 274q67 224 106 408l109 512h256l-99 -459q-22 -102 -22 -147q0 -125 115 -125q137 0 184 219l109 512h256l-115 -533q-17 -79 -17 -110q0 -88 74 -88q61 0 96 51q12 16 44 94q21 51 47 51
q32 0 32 -39q0 -34 -16 -88q-75 -248 -279 -248q-165 0 -184 199q-75 -199 -248 -199q-194 0 -217 234z" />
    <glyph glyph-name="pi" unicode="&#x3c0;" horiz-adv-x="1477" 
d="M1444 885l-60 -275h-348q-8 -128 -8 -198q0 -38 4 -115t4 -115q0 -225 -159 -225q-111 0 -111 121q0 72 73.5 246t100.5 286h-375q-8 -136 -8 -198q0 -38 3 -115t3 -115q0 -225 -160 -225q-108 0 -108 121q0 73 72.5 247t99.5 285h-156q-104 0 -150 -23q-64 -32 -83 -126
h-64q41 219 120 310q98 114 302 114h1008z" />
    <glyph glyph-name="endash" unicode="&#x2013;" horiz-adv-x="1024" 
d="M-39 367l78 190h1024l-78 -190h-1024z" />
    <glyph glyph-name="emdash" unicode="&#x2014;" horiz-adv-x="2048" 
d="M2087 557l-78 -190h-2048l78 190h2048z" />
    <glyph glyph-name="quoteleft" unicode="&#x2018;" horiz-adv-x="639" 
d="M236 1149q0 -37 38 -37l39 14.5t64 14.5q68 0 106.5 -42.5t38.5 -111.5q0 -78 -47.5 -129t-124.5 -51q-102 0 -161 87q-52 76 -52 183q0 96 47 207t116 176q39 37 62 37q29 0 29 -27q0 -8 -77.5 -125t-77.5 -196z" />
    <glyph glyph-name="quoteright" unicode="&#x2019;" horiz-adv-x="639" 
d="M416 1157q0 35 -39 35l-39 -14.5t-64 -14.5q-68 0 -106.5 43.5t-38.5 112.5q0 78 47.5 129t124.5 51q102 0 161 -87q52 -76 52 -183q0 -96 -47 -207t-116 -176q-39 -37 -62 -37q-29 0 -29 27q0 6 78 124t78 197z" />
    <glyph glyph-name="quotesinglbase" unicode="&#x201a;" horiz-adv-x="639" 
d="M399 -33q0 35 -39 35q2 0 -38.5 -13.5t-65.5 -13.5q-68 0 -107 44q-38 41 -38 110q0 77 48.5 128.5t125.5 51.5q102 0 161 -87q52 -76 52 -183q0 -95 -48 -206.5t-117 -177.5q-38 -36 -61 -36q-28 0 -28 27q0 10 77.5 127.5t77.5 193.5z" />
    <glyph glyph-name="quotedblleft" unicode="&#x201c;" horiz-adv-x="1124" 
d="M233 1149q0 -37 39 -37l39 14.5t64 14.5q68 0 106.5 -42.5t38.5 -111.5q0 -78 -47.5 -129t-124.5 -51q-102 0 -161 87q-52 76 -52 183q0 96 47 207t116 176q39 37 62 37q29 0 29 -27q0 -12 -78 -129.5t-78 -191.5zM717 1149q0 -37 39 -37l38.5 14.5t63.5 14.5
q68 0 108 -42.5t40 -111.5q0 -78 -49 -129t-126 -51q-102 0 -161 87q-52 76 -52 183q0 69 23.5 141.5t80.5 163.5q71 115 122 115q28 0 28 -27q0 -12 -77.5 -129t-77.5 -192z" />
    <glyph glyph-name="quotedblright" unicode="&#x201d;" horiz-adv-x="1124" 
d="M420 1159q0 35 -39 35l-40 -14.5t-65 -14.5q-68 0 -107 44q-38 41 -38 110q0 78 48.5 130t125.5 52q102 0 161 -88q52 -77 52 -184q0 -94 -48 -206t-116 -176q-38 -36 -61 -36q-29 0 -29 27q0 9 78 127.5t78 193.5zM903 1159q0 35 -39 35l-38.5 -14.5t-63.5 -14.5
q-68 0 -108 42.5t-40 111.5q0 77 48.5 129.5t125.5 52.5q102 0 161 -88q52 -77 52 -184q0 -94 -47.5 -205.5t-115.5 -176.5q-38 -36 -62 -36q-28 0 -28 27q0 10 77.5 128t77.5 193z" />
    <glyph glyph-name="quotedblbase" unicode="&#x201e;" horiz-adv-x="1124" 
d="M883 -33q0 35 -39 35q1 0 -38.5 -13.5t-64.5 -13.5q-68 0 -107 44q-38 41 -38 110q0 78 47.5 129t124.5 51q102 0 161 -87q52 -76 52 -183q0 -96 -47 -207t-116 -176q-39 -37 -62 -37q-29 0 -29 27q0 7 78 124.5t78 196.5zM399 -33q0 35 -39 35q1 0 -38 -13.5t-64 -13.5
q-68 0 -107 44q-38 41 -38 110q0 78 47.5 129t124.5 51q102 0 161 -87q52 -76 52 -183q0 -98 -46.5 -207t-116.5 -176q-39 -37 -63 -37q-28 0 -28 27q0 7 77.5 124.5t77.5 196.5z" />
    <glyph glyph-name="dagger" unicode="&#x2020;" horiz-adv-x="1024" 
d="M475 -238q0 443 -100 859q100 164 100 362q-39 -7 -151 -52q-100 -40 -134 -40q-116 0 -116 115q0 51 36 83.5t87 32.5q31 0 130 -38q110 -43 150 -50v23q0 93 -44 203t-44 129q0 108 123 108q125 0 125 -108q0 -19 -44 -129t-44 -226q65 12 154.5 50t117.5 38
q55 0 92 -32t37 -86q0 -113 -114 -113q-42 0 -138 41q-105 44 -149 51v-18q0 -175 102 -344q-86 -356 -102 -859h-74z" />
    <glyph glyph-name="daggerdbl" unicode="&#x2021;" horiz-adv-x="1024" 
d="M373 627q102 150 102 356q-39 -7 -152 -52q-100 -40 -135 -40q-112 0 -112 115q0 52 34.5 84t86.5 32q30 0 129 -38q109 -43 149 -50v23q0 94 -43 203t-43 129q0 108 123 108q125 0 125 -108q0 -20 -44 -129t-44 -226q65 12 154.5 50t117.5 38q55 0 93 -32t38 -86
q0 -113 -116 -113q-42 0 -138 41q-105 44 -149 51q0 -213 102 -354q-102 -165 -102 -363q40 8 152 53q100 41 135 41q116 0 116 -114q0 -52 -36 -84.5t-89 -32.5q-31 0 -129 38q-107 41 -149 48v-22q0 -95 44 -203t44 -127q0 -111 -123 -111q-125 0 -125 111q0 19 44 127
t44 225q-64 -12 -153.5 -49t-118.5 -37q-55 0 -92 31.5t-37 85.5q0 114 114 114q43 0 138 -41q103 -44 149 -50v10q0 195 -104 348z" />
    <glyph glyph-name="bullet" unicode="&#x2022;" horiz-adv-x="1208" 
d="M307 762q0 124 86.5 209.5t210.5 85.5q123 0 209 -86t86 -209t-87 -210t-210 -87q-124 0 -209.5 86.5t-85.5 210.5z" />
    <glyph glyph-name="ellipsis" unicode="&#x2026;" horiz-adv-x="2048" 
d="M173 147q0 73 48 121.5t121 48.5t123 -48.5t50 -121.5q0 -72 -50.5 -122t-122.5 -50t-120.5 50t-48.5 122zM855 147q0 73 48 121.5t121 48.5t123 -48.5t50 -121.5q0 -72 -50.5 -122t-122.5 -50t-120.5 50t-48.5 122zM1539 147q0 73 48 121.5t121 48.5t123 -48.5
t50 -121.5q0 -72 -50.5 -122t-122.5 -50t-120.5 50t-48.5 122z" />
    <glyph glyph-name="perthousand" unicode="&#x2030;" horiz-adv-x="2773" 
d="M2159 387q0 -362 170 -362q165 0 165 372q0 375 -167 375q-168 0 -168 -385zM1913 393q0 187 109 309q113 127 298 127q190 0 305 -115.5t115 -305.5q0 -195 -110 -316q-114 -125 -308 -125q-187 0 -299 121q-110 117 -110 305zM1247 387q0 -362 172 -362q164 0 164 372
q0 375 -168 375t-168 -385zM1004 393q0 187 108 309q113 127 297 127q190 0 305 -115.5t115 -305.5q0 -196 -110 -316q-114 -125 -308 -125q-187 0 -298 121q-109 117 -109 305zM279 1042q0 -360 170 -360q165 0 165 371q0 377 -168 377q-167 0 -167 -388zM786 1321
q74 -118 74 -266q0 -191 -113 -310q-115 -122 -305 -122q-185 0 -299 121q-110 118 -110 305q0 183 108 307q113 131 293 131q83 0 246 -58.5t244 -58.5q85 0 168 45q44 25 116 84q55 45 74 45h61q15 0 15 -16q0 -6 -709 -1579q-12 -27 -28 -27h-86q-17 0 -17 15
q0 6 647 1439q-116 -80 -231 -80q-52 0 -148 25z" />
    <glyph glyph-name="guilsinglleft" unicode="&#x2039;" horiz-adv-x="487" 
d="M422 707q27 0 29 -11q-28 -33 -80 -106q-56 -94 -105 -129q28 -20 52 -47q32 -53 105 -152q26 -30 26 -35q0 -10 -17 -10h-164q-54 0 -96 72.5t-84 125.5q-12 15 -35 46q11 17 35 48q44 56 85 127t95 71h154z" />
    <glyph glyph-name="guilsinglright" unicode="&#x203a;" horiz-adv-x="487" 
d="M68 217q-31 0 -31 10q30 37 88 121q46 75 98 113q-26 19 -49 46q-33 53 -107 154q-26 30 -26 35t3 8q7 3 13 3h162q55 0 99 -75q39 -66 82 -122q23 -31 34 -49q-11 -18 -33 -47q-46 -59 -83 -123q-44 -74 -99 -74h-151z" />
    <glyph glyph-name="fraction" unicode="&#x2044;" horiz-adv-x="342" 
d="M662 1489q24 0 24 -25q0 -7 -4 -14l-885 -1454q-18 -29 -51 -29h-65q-25 0 -25 23q0 7 4 14l885 1456q16 26 53 30q-10 -1 64 -1z" />
    <glyph glyph-name="franc" unicode="&#x20a3;" horiz-adv-x="2331" 
d="M578 452q0 -219 28 -284q40 -95 192 -107q62 -5 62 -30q0 -31 -63 -31h-727q-58 0 -58 31q0 22 47 32q84 16 97 21q60 22 83 72q31 66 31 295v553q0 223 -25 288q-36 93 -175 104q-58 4 -58 29q0 31 58 31h651q296 0 360 31q30 14 53.5 44t28.5 30q21 0 39 -43
q176 -428 176 -437q0 -18 -22 -18q-18 0 -58 53q-44 57 -73 84q-92 87 -206 143q-128 62 -241 62q-115 0 -162 -71q-38 -57 -38 -179v-342h167q240 0 267 171q4 37 7 74q8 54 30 54q28 0 28 -68v-542q0 -76 -28 -76q-22 0 -35 112q-26 222 -291 222h-145v-308zM1846 211
q0 -84 43 -118q33 -26 122 -39q52 -7 52 -29q0 -25 -60 -25h-577q-53 0 -53 25q0 17 39 27q28 6 56 11q101 25 101 148v407q0 83 -33 118q-30 30 -106 33q-64 3 -64 24q0 23 69 32q178 22 348 106q34 17 42 17q21 0 21 -30v-125q157 163 301 163q76 0 125 -38
q53 -41 53 -115q0 -64 -42 -106t-106 -42q-78 0 -126.5 73t-75.5 73q-50 0 -129 -88v-502z" />
    <glyph glyph-name="trademark" unicode="&#x2122;" horiz-adv-x="1683" 
d="M758 1454h211l131 -369l129 369h198v-27q-37 -5 -46 -11q-17 -10 -17 -41v-385q0 -30 17 -41q10 -6 46 -11v-33h-253v33q67 9 67 52v368l-156 -455h-36l-166 463v-376q0 -32 21 -42q10 -5 50 -10v-33h-196v33q40 5 50 10q21 10 21 42v379q0 32 -21 43q-9 4 -50 9v33z
M238 1454h450l12 -192h-32q-15 151 -138 151v-420q0 -33 18 -44q11 -7 48 -11v-33h-266v33q37 5 48 11q17 12 17 44v420h-10q-112 0 -127 -151h-33z" />
    <glyph glyph-name="partialdiff" unicode="&#x2202;" horiz-adv-x="1094" 
d="M762 662q39 203 39 344q0 215 -96 215q-39 0 -146 -73t-160 -73q-43 0 -71.5 30t-28.5 73q0 63 86 117.5t211 54.5q219 0 333 -197q93 -162 93 -397q0 -339 -156.5 -560t-396.5 -221q-174 0 -283.5 115.5t-109.5 290.5q0 187 106 319q114 142 297 142q196 0 283 -180z
M700 518q0 240 -149 240q-100 0 -167 -133t-67 -342q0 -238 150 -238q125 0 188 184q45 132 45 289z" />
    <glyph glyph-name="product" unicode="&#x220f;" horiz-adv-x="1724" 
d="M47 1473h1624v-84h-190v-1698h190v-84h-698v84h178v1698h-582v-1698h176v-84h-698v84h191v1698h-191v84z" />
    <glyph glyph-name="summation" unicode="&#x2211;" horiz-adv-x="1542" 
d="M25 1473h1235l139 -429h-88l-92 250q-24 65 -90 84q-37 11 -129 11h-566l666 -783v-41l-735 -680h886q44 0 61.5 11t30.5 53l72 229h88l-174 -571h-1309v71l822 756l-817 973v66z" />
    <glyph glyph-name="minus" unicode="&#x2212;" 
d="M254 713h1198v-203h-1198v203z" />
    <glyph glyph-name="periodcentered" horiz-adv-x="639" 
d="M150 727q0 73 48.5 122.5t120.5 49.5q73 0 123 -49.5t50 -122.5q0 -72 -50.5 -121t-122.5 -49t-120.5 49t-48.5 121z" />
    <glyph glyph-name="radical" unicode="&#x221a;" horiz-adv-x="1346" 
d="M1141 1694h207v-129h-103l-592 -1606h-100l-311 858l-140 -51l-30 113l331 116l236 -661z" />
    <glyph glyph-name="infinity" unicode="&#x221e;" 
d="M942 561q91 -151 246 -151q92 0 151.5 54.5t59.5 145.5q0 84 -52.5 141.5t-136.5 57.5q-138 0 -268 -248zM766 659q-91 150 -246 150q-91 0 -151 -55t-60 -146q0 -84 53 -141t136 -57q143 0 268 249zM858 457q-134 -258 -321 -258q-154 0 -248 133q-84 118 -84 278
q0 163 71 276q84 134 238 134q173 0 334 -258q134 260 323 260q154 0 248 -133q84 -119 84 -279q0 -162 -71 -276q-85 -133 -238 -133q-108 0 -199 82q-60 54 -137 174z" />
    <glyph glyph-name="integral" unicode="&#x222b;" horiz-adv-x="1186" 
d="M342 -252q102 0 121 639l6 211q18 512 123 732q107 224 328 224q90 0 150 -43q67 -48 67 -135q0 -61 -38.5 -97t-99.5 -36q-72 0 -101 50q-13 24 -24 93q-8 50 -30 50q-98 0 -119 -633l-6 -178q-12 -342 -38 -492q-53 -306 -200 -429q-94 -77 -215 -77q-88 0 -149 43
q-68 48 -68 133q0 136 144 136q50 0 85 -31t37 -103q1 -57 27 -57z" />
    <glyph glyph-name="approxequal" unicode="&#x2248;" 
d="M1530 596v-219q-205 -139 -379 -139q-94 0 -290 66.5t-298 66.5q-159 0 -385 -158v219q217 143 387 143q121 0 315.5 -65.5t274.5 -65.5q163 0 375 152zM1530 1008v-220q-204 -137 -377 -137q-93 0 -290 65.5t-300 65.5q-156 0 -385 -157v219q215 143 387 143
q122 0 316.5 -65.5t273.5 -65.5q158 0 375 152z" />
    <glyph glyph-name="approxequal" unicode="&#x22f2;" 
d="M1530 596v-219q-205 -139 -379 -139q-94 0 -290 66.5t-298 66.5q-159 0 -385 -158v219q217 143 387 143q121 0 315.5 -65.5t274.5 -65.5q163 0 375 152zM1530 1008v-220q-204 -137 -377 -137q-93 0 -290 65.5t-300 65.5q-156 0 -385 -157v219q215 143 387 143
q122 0 316.5 -65.5t273.5 -65.5q158 0 375 152z" />
    <glyph glyph-name="notequal" unicode="&#x2260;" 
d="M1198 1233l148 -119l-154 -192h260v-191h-389l-191 -239h580v-193h-707l-245 -309l-148 119l154 190h-252v193h377l190 239h-567v191h696z" />
    <glyph glyph-name="lessequal" unicode="&#x2264;" 
d="M258 195h1192v-197h-1192v197zM1448 1241v-209l-834 -264l834 -262v-209l-1190 385v174z" />
    <glyph glyph-name="greaterequal" unicode="&#x2265;" 
d="M258 195h1192v-197h-1192v197zM260 1241l1188 -385v-174l-1188 -385v209l832 262l-832 264v209z" />
    <glyph glyph-name="SF370000" unicode="&#x255f;" horiz-adv-x="1485" 
d="M289 221q0 -135 129 -162q65 -14 65 -32q0 -27 -53 -27h-477q-53 0 -53 27q0 26 26 26q97 0 184.5 91.5t151.5 261.5l322 854q-11 14 -59 44q-42 27 -42 35q0 11 68 43q44 21 88 41q55 33 109 91q51 57 59 57q18 0 63 -133l361 -1065q61 -180 103 -233q50 -64 173 -83
q56 -9 56 -30q0 -27 -54 -27h-749q-55 0 -55 31q0 19 56 23q94 7 129 21q66 27 66 99q0 46 -45 184l-63 193h-461q-29 -79 -59 -157q-39 -115 -39 -173zM829 610l-200 615l-223 -615h423z" />
    <glyph glyph-name="SF420000" unicode="&#x2560;" horiz-adv-x="1516" 
d="M12 31q0 25 61 32q131 15 166 92q31 67 31 296v553q0 223 -25 288q-36 92 -175 105q-58 5 -58 30q0 29 58 29h704q296 0 363 31q18 9 50 43q30 31 32 31q20 0 38 -43l166 -403q11 -27 11 -34q0 -18 -25 -18q-14 0 -66.5 66t-109.5 112q-205 164 -434 164q-128 0 -177 -63
q-44 -55 -44 -187v-342h90q232 0 298 29q97 42 108 205q4 65 30 65q29 0 29 -68v-542q0 -76 -29 -76q-22 0 -35 113q-26 221 -291 221h-200v-436q0 -151 48 -208q53 -61 201 -61q200 0 343 80q132 74 255 243q53 73 68 73q20 0 20 -27q0 -13 -12 -39l-235 -512
q-15 -33 -33 -33q-15 0 -28 31q-17 41 -21 45q-37 44 -121 64t-254 20h-739q-58 0 -58 31z" />
    <glyph glyph-name="SF190000" unicode="&#x2561;" horiz-adv-x="862" 
d="M793 1456q59 0 59 -31q0 -25 -59 -29q-143 -11 -181 -105q-26 -65 -26 -287v-552q0 -222 26 -286q38 -93 181 -103q59 -5 59 -32q0 -31 -59 -31h-723q-60 0 -60 31q0 25 60 30q143 10 181 105q25 63 25 284v552q0 222 -25 286q-37 93 -181 104q-60 4 -60 31q0 33 60 33
h723z" />
    <glyph glyph-name="SF200000" unicode="&#x2562;" 
d="M422 723q0 -715 424 -715q250 0 359 246q79 177 79 463q0 729 -422 729q-249 0 -360 -254q-80 -183 -80 -469zM70 739q0 342 224 552q220 206 564 206q351 0 565.5 -211t214.5 -561q0 -344 -226 -558q-222 -210 -568 -210q-354 0 -564 214t-210 568z" />
    <glyph glyph-name="SF230000" unicode="&#x2563;" horiz-adv-x="1677" 
d="M8 1427q0 29 55 29h715q64 0 64 -29q0 -25 -67 -32q-141 -15 -180 -91q-34 -67 -34 -299v-621q0 -82 11 -132q49 -225 368 -225q234 0 335 117q95 109 95 348v526q0 172 -40 260q-29 64 -74 89q-36 20 -113 28q-62 6 -62 32q0 29 58 29h473q63 0 63 -29q0 -20 -33 -26
l-48 -6q-79 -15 -121.5 -110.5t-42.5 -262.5v-561q0 -279 -153 -396q-135 -102 -425 -102q-182 0 -326 51q-188 67 -243 204q-29 70 -29 216v555q0 238 -24 301q-36 93 -167 106q-55 5 -55 31z" />
    <glyph glyph-name="SF470000" unicode="&#x2564;" horiz-adv-x="1450" 
d="M852 452q0 -219 28 -285q39 -96 193 -108q62 -5 62 -30q0 -29 -64 -29h-743q-64 0 -64 29q0 25 67 32q142 14 180 91q34 69 34 299v208l-328 525q-34 56 -114 155q-44 41 -91 50l-64 8q-46 8 -46 30q0 29 59 29h686q64 0 64 -29q0 -22 -51 -27q-78 -8 -95 -14
q-51 -18 -51 -71q0 -24 35 -82l285 -469l217 317q90 131 90 205q0 55 -29 79q-26 21 -122 32q-81 9 -81 30q0 29 58 29h516q63 0 63 -29q0 -23 -56 -34q-109 -22 -194 -97q-79 -71 -190 -233l-254 -371v-240z" />
    <glyph glyph-name="SF480000" unicode="&#x2565;" horiz-adv-x="1133" 
d="M668 150q-136 -185 -338 -185q-119 0 -197 65q-84 69 -84 185q0 186 233 278q137 53 390 80v123q0 213 -170 213q-46 0 -84 -21q-45 -25 -45 -67q0 -6 18.5 -48t18.5 -71q0 -131 -164 -131q-62 0 -103 36.5t-41 97.5q0 103 119.5 178t298.5 75q116 0 216 -31
q168 -53 206 -161q14 -42 14 -188v-357q0 -129 78 -129q37 0 69.5 49t43.5 49q24 0 24 -30q0 -88 -91 -142q-77 -47 -171 -47q-204 0 -241 179zM672 514q-130 -11 -219 -73q-107 -73 -107 -193q0 -60 33 -98q35 -41 94 -41q102 0 156 95q43 77 43 187v123z" />
    <glyph glyph-name="SF410000" unicode="&#x2566;" horiz-adv-x="1104" 
d="M328 484l364 124q43 15 43 43q0 22 -18 71q-60 165 -193 165q-105 0 -161 -99q-46 -80 -46 -194q0 -50 11 -110zM348 434q110 -305 340 -305q177 0 294 176q28 43 46 43q21 0 21 -22q0 -28 -35 -83q-83 -127 -220 -201.5t-288 -74.5q-199 0 -325 126t-126 325
q0 222 170 380q166 154 389 154q213 0 328 -139q24 -38 74 -88q15 -5 29 -9q18 -7 18 -22q0 -22 -57 -41z" />
    <glyph glyph-name="SF450000" unicode="&#x2567;" horiz-adv-x="692" 
d="M698 25q0 -25 -53 -25h-563q-53 0 -53 25q0 18 39 27q28 4 56 9q101 26 101 150v407q0 83 -33 118q-29 30 -105 33q-64 3 -64 24q0 24 67 32q51 7 83 13q127 26 265 93q35 17 43 17q19 0 19 -30v-707q0 -124 103 -150q28 -5 56 -9q39 -9 39 -27zM188 1147q0 70 48 118
t118 48q69 0 117.5 -48.5t48.5 -117.5t-48.5 -117.5t-117.5 -48.5q-70 0 -118 48t-48 118z" />
    <glyph glyph-name="SF460000" unicode="&#x2568;" horiz-adv-x="692" 
d="M698 25q0 -25 -53 -25h-563q-53 0 -53 25q0 18 39 27q28 4 56 9q101 26 101 150v407q0 83 -33 118q-29 30 -105 33q-64 3 -64 24q0 24 67 32q51 7 83 13q127 26 265 93q35 17 43 17q19 0 19 -30v-707q0 -124 103 -150q28 -5 56 -9q39 -9 39 -27z" />
    <glyph glyph-name="SF400000" unicode="&#x2569;" horiz-adv-x="1239" 
d="M375 469q0 -449 241 -449q248 0 248 435q0 452 -250 452q-239 0 -239 -438zM53 467q0 224 179 363q165 128 395 128q234 0 391 -126q168 -136 168 -365t-175 -369q-163 -131 -397 -131q-242 0 -396 127q-165 136 -165 373z" />
    <glyph glyph-name="SF540000" unicode="&#x256a;" horiz-adv-x="1284" 
d="M-27 793q0 23 69 32q177 22 348 106q35 17 42 17q21 0 21 -30v-639q0 -93 13 -126q24 -57 101 -57q50 0 119 37q55 33 109 66v419q0 83 -33 118q-29 30 -107 33q-65 3 -65 24q0 23 69 32q176 22 347 106q35 17 43 17q20 0 20 -30v-707q0 -124 91 -150q26 -5 52 -9
q35 -9 35 -27q0 -25 -49 -25h-348q-47 0 -53 25q-2 10 -2 30v80q-146 -88 -192 -110q-114 -54 -212 -54q-125 0 -174 71q-39 58 -39 191v385q0 83 -33 118q-30 31 -107 33q-65 3 -65 24z" />
    <glyph glyph-name="SF530000" unicode="&#x256b;" horiz-adv-x="1028" 
d="M-82 901q0 23 55 23h572q53 0 53 -23q0 -22 -85 -40.5t-85 -65.5q0 -28 23 -84l176 -428l129 288q53 118 53 193q0 54 -41 79q-16 10 -76 26q-41 12 -41 32q0 23 54 23h354q53 0 53 -23q0 -18 -40 -31q-90 -30 -151 -111q-55 -72 -102 -175l-164 -361q44 -41 88 -84
q0 -5 -74 -42.5t-124 -108.5q-23 -33 -68 -128q-70 -149 -120 -212q-90 -113 -201 -113q-79 0 -128 42q-53 45 -53 122q0 66 42.5 105.5t109.5 39.5q51 0 112.5 -56t84.5 -56q64 0 147 248l-309 706q-69 157 -157 178q-26 5 -51 10q-36 9 -36 27z" />
    <glyph glyph-name="lozenge" unicode="&#x25ca;" horiz-adv-x="1012" 
d="M506 1409l-385 -817l385 -825l385 825zM506 1653l500 -1061l-500 -1069l-500 1069z" />
    <glyph glyph-name="circle" unicode="&#x25cb;" horiz-adv-x="1485" 
d="M442 1590l225 348h148l225 -348h-84l-215 178l-215 -178h-84zM494 1981l273 281q80 82 135 82q90 0 90 -91q0 -59 -94 -108l-313 -164h-91z" />
    <glyph glyph-name="H18533" unicode="&#x25cf;" horiz-adv-x="1485" 
d="M442 1590l225 348h148l225 -348h-84l-215 178l-215 -178h-84zM991 1980h-91l-313 164q-94 49 -94 108q0 91 90 91q55 0 135 -82z" />
    <glyph glyph-name="invbullet" unicode="&#x25d8;" horiz-adv-x="1485" 
d="M442 1590l225 348h148l225 -348h-84l-215 178l-215 -178h-84zM887 1963q0 35 8 54q28 31 56 61q44 51 44 104q0 34 -24.5 57t-51.5 23q-46 0 -78 -22.5t-32 -50.5q0 -32 20 -32q19 0 12 29q35 -5 35 -43q0 -44 -53 -44q-26 0 -44 22t-18 47q0 79 57.5 131.5t144.5 52.5
q81 0 136 -41q63 -47 63 -133t-85 -140q-55 -31 -111 -61q-7 -7 -6 -30.5t-3.5 -29.5t-32.5 -8q-37 0 -37 54z" />
    <glyph glyph-name="invcircle" unicode="&#x25d9;" horiz-adv-x="1485" 
d="M442 1590l225 348h148l225 -348h-84l-215 178l-215 -178h-84zM1094 2295q-29 -248 -205 -248q-37 0 -109 22.5t-110 22.5q-59 0 -90 -88h-66q34 248 211 248q35 0 106 -21.5t105 -21.5q62 0 92 86h66z" />
    <glyph glyph-name="fi" unicode="&#xf001;" horiz-adv-x="1337" 
d="M500 211q0 -162 188 -162q178 0 178 162v594q0 55 -37 55h-329v-649zM1337 25q0 -25 -71 -25h-1186q-53 0 -53 25q0 17 40 28q28 7 56 13q59 15 81 51q19 30 19 94v649h-160q-45 0 -45 33q0 31 45 31h101q63 0 66 85q3 92 14 152q30 168 179 267q137 90 316 90
q121 0 218 -41q128 -53 128 -158q0 -117 -122 -117q-72 0 -117 67l-66 124q-41 67 -102 67q-98 0 -138 -89.5t-40 -340.5v-106h408q83 0 185 22q18 4 23 4q22 0 25 -22q0 2 0 -39v-676q0 -114 98 -147q28 -7 57 -14q41 -12 41 -27z" />
    <glyph glyph-name="fl" unicode="&#xf002;" horiz-adv-x="1352" 
d="M1348 25q0 -25 -54 -25h-1214q-53 0 -53 25q0 18 39 27q28 4 56 9q101 26 101 150v649h-160q-45 0 -45 33q0 31 45 31h101q64 0 67 82q2 58 7 96q24 197 159 307q131 107 332 107q49 0 142.5 -19.5t136.5 -19.5q21 0 60.5 9t55.5 9q27 0 27 -31v-1253q0 -124 103 -150
q28 -5 55 -9q39 -9 39 -27zM877 1239q-62 21 -82 80q-12 48 -25 95q-20 46 -86 46q-102 0 -143 -89t-41 -341v-106h176q35 0 35 -33q0 -31 -33 -31h-178v-649q0 -164 186 -164q191 0 191 164v1028z" />
    <glyph glyph-name="u20AB" unicode="&#x20ab;" horiz-adv-x="991" 
d="M606 1249h-247q-25 0 -25 26q0 27 23 27h249v24q0 59 -23 84q-21 22 -77 24q-47 2 -47 17q0 19 52 25q132 17 252 77q26 13 29 13q16 0 16 -22v-240h119q25 0 25 -29q0 -26 -24 -26h-120v-633q0 -84 67 -106q24 -4 49 -9q36 -7 36 -20q0 -19 -41 -19h-269q-44 0 -44 45
v61q-65 -128 -225 -128q-144 0 -239 106q-91 102 -91 249q0 150 96 253q99 107 248 107q135 0 211 -104v198zM612 801q0 305 -178 305q-165 0 -165 -316q0 -301 157 -301q186 0 186 312zM109 325h643v-105h-643v105z" />
    <glyph glyph-name="glyph275" horiz-adv-x="641" 
 />
    <glyph glyph-name="glyph276" horiz-adv-x="641" 
 />
    <glyph glyph-name="nonbreakingspace" unicode="&#xa0;" horiz-adv-x="1280" 
 />
    <glyph glyph-name="apple" unicode="&#xf000;" horiz-adv-x="1618" 
d="M836 1216q-2 12 -2 37q0 132 101 237q96 99 230 124q2 -20 2 -62q0 -131 -103.5 -234.5t-211.5 -103.5q-3 0 -8.5 1t-7.5 1zM1505 403q-90 -195 -153 -280q-118 -158 -256 -158q-45 0 -128 33t-126 33q-45 0 -129.5 -33t-128.5 -33q-128 0 -259 176q-99 134 -156 296
q-56 155 -56 300q0 211 117 348q124 146 331 146q57 0 150 -34t129 -34q34 0 126 35t148 35q217 0 359 -164q-201 -128 -201 -328q0 -233 233 -338z" />
    <glyph glyph-name="sfthyphen" unicode="&#xad;" horiz-adv-x="682" 
d="M68 340l100 246h446l-98 -246h-448z" />
    <glyph glyph-name="ch270" unicode="&#xb7;" horiz-adv-x="639" 
d="M150 727q0 73 48.5 122.5t120.5 49.5q73 0 123 -49.5t50 -122.5q0 -72 -50.5 -121t-122.5 -49t-120.5 49t-48.5 121z" />
    <glyph glyph-name="ch270" unicode="&#x2219;" horiz-adv-x="639" 
d="M150 727q0 73 48.5 122.5t120.5 49.5q73 0 123 -49.5t50 -122.5q0 -72 -50.5 -121t-122.5 -49t-120.5 49t-48.5 121z" />
    <glyph glyph-name="euro" horiz-adv-x="1280" 
d="M1200 354q0 -127 -116.5 -258t-301.5 -131q-235 0 -394 175q-141 155 -185 401h-117q-29 0 -29 26q0 54 43 54h92q-6 56 -6 112q0 55 6 111h-106q-29 0 -29 26q0 54 43 54h105q46 232 192 390q163 177 385 177q32 0 86 -10.5t76 -10.5q32 0 54 31q18 27 36 55
q22 0 31 -32l119 -443q2 -7 2 -16q0 -25 -25 -25q-12 0 -69 103q-71 130 -123 192q-86 103 -168 103q-233 0 -285 -514h510q29 0 29 -27q0 -53 -43 -53h-504q-4 -56 -4 -164q0 -10 1 -30t1 -29h438q29 0 29 -27q0 -53 -43 -53h-420q16 -193 72 -323q83 -191 237 -191
q116 0 205 96q82 87 104 207q11 59 35 59q37 0 37 -35z" />
    <glyph glyph-name="glyph261" horiz-adv-x="639" 
d="M425 1172q0 33 -28 33q-13 0 -38 -4.5t-37 -4.5q-54 0 -89.5 37.5t-35.5 91.5q0 68 43.5 118.5t110.5 50.5q86 0 136 -65q45 -60 45 -148q0 -102 -68 -214q-65 -107 -155 -163q-35 -22 -55 -22q-28 0 -28 23q0 10 99.5 111.5t99.5 155.5z" />
    <glyph glyph-name="glyph262" horiz-adv-x="735" 
d="M439 1090q0 35 8 54q28 31 56 61q44 51 44 104q0 34 -24.5 57t-51.5 23q-46 0 -78 -22.5t-32 -50.5q0 -32 20 -32q19 0 12 29q35 -5 35 -43q0 -44 -53 -44q-26 0 -44 22t-18 47q0 79 57.5 131.5t144.5 52.5q81 0 136 -41q63 -47 63 -133t-85 -140q-55 -31 -111 -61
q-7 -7 -6 -30.5t-3.5 -29.5t-32.5 -8q-37 0 -37 54z" />
    <glyph glyph-name="glyph263" horiz-adv-x="1133" 
d="M248 1069l225 348h148l225 -348h-84l-215 178l-215 -178h-84zM300 1459l273 281q80 82 135 82q90 0 90 -91q0 -59 -94 -108l-313 -164h-91z" />
    <glyph glyph-name="glyph264" horiz-adv-x="1133" 
d="M248 1069l225 348h148l225 -348h-84l-215 178l-215 -178h-84zM797 1459h-91l-313 164q-94 49 -94 108q0 91 90 91q55 0 135 -82z" />
    <glyph glyph-name="glyph265" horiz-adv-x="1133" 
d="M248 1069l225 348h148l225 -348h-84l-215 178l-215 -178h-84zM693 1442q0 35 8 54q28 31 56 61q44 51 44 104q0 34 -24.5 57t-51.5 23q-46 0 -78 -22.5t-32 -50.5q0 -32 20 -32q19 0 12 29q35 -5 35 -43q0 -44 -53 -44q-26 0 -44 22t-18 47q0 79 57.5 131.5t144.5 52.5
q81 0 136 -41q63 -47 63 -133t-85 -140q-55 -31 -111 -61q-7 -7 -6 -30.5t-3.5 -29.5t-32.5 -8q-37 0 -37 54z" />
    <glyph glyph-name="glyph266" horiz-adv-x="1133" 
d="M248 1069l225 348h148l225 -348h-84l-215 178l-215 -178h-84zM900 1773q-29 -248 -205 -248q-37 0 -109 22.5t-110 22.5q-59 0 -90 -88h-66q34 248 211 248q35 0 106 -21.5t105 -21.5q62 0 92 86h66z" />
    <glyph glyph-name="glyph267" horiz-adv-x="1133" 
d="M240 1386h76q32 -122 233 -122q204 0 231 122h76q-41 -286 -307 -286t-309 286zM390 1459l273 281q80 82 135 82q90 0 90 -91q0 -59 -94 -108l-313 -164h-91z" />
    <glyph glyph-name="glyph268" horiz-adv-x="1133" 
d="M240 1386h76q32 -122 233 -122q204 0 231 122h76q-41 -286 -307 -286t-309 286zM707 1459h-91l-313 164q-94 49 -94 108q0 91 90 91q55 0 135 -82z" />
    <glyph glyph-name="glyph269" horiz-adv-x="1133" 
d="M240 1386h76q32 -122 233 -122q204 0 231 122h76q-41 -286 -307 -286t-309 286zM490 1442q0 35 8 54q28 31 56 61q44 51 44 104q0 34 -24.5 57t-51.5 23q-46 0 -78 -22.5t-32 -50.5q0 -32 20 -32q19 0 12 29q35 -5 35 -43q0 -44 -53 -44q-26 0 -44 22t-18 47
q0 79 57.5 131.5t144.5 52.5q81 0 136 -41q63 -47 63 -133t-85 -140q-55 -31 -111 -61q-7 -7 -6 -30.5t-3.5 -29.5t-32.5 -8q-37 0 -37 54z" />
    <glyph glyph-name="glyph270" horiz-adv-x="1133" 
d="M240 1386h76q32 -122 233 -122q204 0 231 122h76q-41 -286 -307 -286t-309 286zM900 1773q-29 -248 -205 -248q-37 0 -109 22.5t-110 22.5q-59 0 -90 -88h-66q34 248 211 248q35 0 106 -21.5t105 -21.5q62 0 92 86h66z" />
    <glyph glyph-name="glyph271" unicode="&#x102;" horiz-adv-x="1485" 
d="M289 221q0 -135 129 -162q65 -14 65 -32q0 -27 -53 -27h-477q-53 0 -53 27q0 26 26 26q97 0 184.5 91.5t151.5 261.5l322 854q-11 14 -59 44q-42 27 -42 35q0 11 68 43q44 21 88 41q55 33 109 91q51 57 59 57q18 0 63 -133l361 -1065q61 -180 103 -233q50 -64 173 -83
q56 -9 56 -30q0 -27 -54 -27h-749q-55 0 -55 31q0 19 56 23q94 7 129 21q66 27 66 99q0 46 -45 184l-63 193h-461q-29 -79 -59 -157q-39 -115 -39 -173zM829 610l-200 615l-223 -615h423zM434 1906h76q32 -122 233 -122q204 0 231 122h76q-41 -286 -307 -286t-309 286z" />
    <glyph glyph-name="glyph272" unicode="&#x103;" horiz-adv-x="1133" 
d="M668 150q-136 -185 -338 -185q-119 0 -197 65q-84 69 -84 185q0 186 233 278q137 53 390 80v123q0 213 -170 213q-46 0 -84 -21q-45 -25 -45 -67q0 -6 18.5 -48t18.5 -71q0 -131 -164 -131q-62 0 -103 36.5t-41 97.5q0 103 119.5 178t298.5 75q116 0 216 -31
q168 -53 206 -161q14 -42 14 -188v-357q0 -129 78 -129q37 0 69.5 49t43.5 49q24 0 24 -30q0 -88 -91 -142q-77 -47 -171 -47q-204 0 -241 179zM672 514q-130 -11 -219 -73q-107 -73 -107 -193q0 -60 33 -98q35 -41 94 -41q102 0 156 95q43 77 43 187v123zM240 1386h76
q32 -122 233 -122q204 0 231 122h76q-41 -286 -307 -286t-309 286z" />
    <glyph glyph-name="glyph273" unicode="&#x128;" horiz-adv-x="862" 
d="M793 1456q59 0 59 -31q0 -25 -59 -29q-143 -11 -181 -105q-26 -65 -26 -287v-552q0 -222 26 -286q38 -93 181 -103q59 -5 59 -32q0 -31 -59 -31h-723q-60 0 -60 31q0 25 60 30q143 10 181 105q25 63 25 284v552q0 222 -25 286q-37 93 -181 104q-60 4 -60 31q0 33 60 33
h723zM726 1932q-29 -248 -205 -248q-37 0 -109 22.5t-110 22.5q-59 0 -90 -88h-66q34 248 211 248q35 0 106 -21.5t105 -21.5q62 0 92 86h66z" />
    <glyph glyph-name="glyph274" unicode="&#x129;" horiz-adv-x="692" 
d="M698 25q0 -25 -53 -25h-563q-53 0 -53 25q0 18 39 27q28 4 56 9q101 26 101 150v407q0 83 -33 118q-29 30 -105 33q-64 3 -64 24q0 24 67 32q51 7 83 13q127 26 265 93q35 17 43 17q19 0 19 -30v-707q0 -124 103 -150q28 -5 56 -9q39 -9 39 -27zM650 1391
q-29 -248 -205 -248q-37 0 -109 22.5t-110 22.5q-59 0 -90 -88h-66q34 248 211 248q35 0 106 -21.5t105 -21.5q62 0 92 86h66z" />
    <glyph glyph-name="glyph275" unicode="&#x168;" horiz-adv-x="1677" 
d="M8 1427q0 29 55 29h715q64 0 64 -29q0 -25 -67 -32q-141 -15 -180 -91q-34 -67 -34 -299v-621q0 -82 11 -132q49 -225 368 -225q234 0 335 117q95 109 95 348v526q0 172 -40 260q-29 64 -74 89q-36 20 -113 28q-62 6 -62 32q0 29 58 29h473q63 0 63 -29q0 -20 -33 -26
l-48 -6q-79 -15 -121.5 -110.5t-42.5 -262.5v-561q0 -279 -153 -396q-135 -102 -425 -102q-182 0 -326 51q-188 67 -243 204q-29 70 -29 216v555q0 238 -24 301q-36 93 -167 106q-55 5 -55 31zM1226 1932q-29 -248 -205 -248q-37 0 -109 22.5t-110 22.5q-59 0 -90 -88h-66
q34 248 211 248q35 0 106 -21.5t105 -21.5q62 0 92 86h66z" />
    <glyph glyph-name="glyph276" unicode="&#x169;" horiz-adv-x="1284" 
d="M-27 793q0 23 69 32q177 22 348 106q35 17 42 17q21 0 21 -30v-639q0 -93 13 -126q24 -57 101 -57q50 0 119 37q55 33 109 66v419q0 83 -33 118q-29 30 -107 33q-65 3 -65 24q0 23 69 32q176 22 347 106q35 17 43 17q20 0 20 -30v-707q0 -124 91 -150q26 -5 52 -9
q35 -9 35 -27q0 -25 -49 -25h-348q-47 0 -53 25q-2 10 -2 30v80q-146 -88 -192 -110q-114 -54 -212 -54q-125 0 -174 71q-39 58 -39 191v385q0 83 -33 118q-30 31 -107 33q-65 3 -65 24zM890 1391q-29 -248 -205 -248q-37 0 -109 22.5t-110 22.5q-59 0 -90 -88h-66
q34 248 211 248q35 0 106 -21.5t105 -21.5q62 0 92 86h66z" />
    <glyph glyph-name="glyph277" unicode="&#x1a0;" horiz-adv-x="1743" 
d="M422 723q0 -715 424 -715q250 0 359 246q79 177 79 463q0 729 -422 729q-249 0 -360 -254q-80 -183 -80 -469zM70 739q0 342 224 552q220 206 564 206q351 0 565.5 -211t214.5 -561q0 -344 -226 -558q-222 -210 -568 -210q-354 0 -564 214t-210 568zM1620 1353
q0 33 -28 33q-13 0 -38 -4.5t-37 -4.5q-54 0 -89.5 37.5t-35.5 91.5q0 68 43.5 118.5t110.5 50.5q86 0 136 -65q45 -60 45 -148q0 -102 -68 -214q-65 -107 -155 -163q-35 -22 -55 -22q-28 0 -28 23q0 10 99.5 111.5t99.5 155.5z" />
    <glyph glyph-name="glyph278" unicode="&#x1a1;" horiz-adv-x="1270" 
d="M375 469q0 -449 241 -449q248 0 248 435q0 452 -250 452q-239 0 -239 -438zM53 467q0 224 179 363q165 128 395 128q234 0 391 -126q168 -136 168 -365t-175 -369q-163 -131 -397 -131q-242 0 -396 127q-165 136 -165 373zM1185 917q0 33 -28 33q-13 0 -38 -4.5t-37 -4.5
q-54 0 -89.5 37.5t-35.5 91.5q0 68 43.5 118.5t110.5 50.5q86 0 136 -65q45 -60 45 -148q0 -102 -68 -214q-65 -107 -155 -163q-35 -22 -55 -22q-28 0 -28 23q0 10 99.5 111.5t99.5 155.5z" />
    <glyph glyph-name="glyph279" unicode="&#x1af;" horiz-adv-x="1727" 
d="M8 1427q0 29 55 29h715q64 0 64 -29q0 -25 -67 -32q-141 -15 -180 -91q-34 -67 -34 -299v-621q0 -82 11 -132q49 -225 368 -225q234 0 335 117q95 109 95 348v526q0 172 -40 260q-29 64 -74 89q-36 20 -113 28q-62 6 -62 32q0 29 58 29h473q63 0 63 -29q0 -20 -33 -26
l-48 -6q-79 -15 -121.5 -110.5t-42.5 -262.5v-561q0 -279 -153 -396q-135 -102 -425 -102q-182 0 -326 51q-188 67 -243 204q-29 70 -29 216v555q0 238 -24 301q-36 93 -167 106q-55 5 -55 31zM1620 1353q0 33 -28 33q-13 0 -38 -4.5t-37 -4.5q-54 0 -89.5 37.5t-35.5 91.5
q0 68 43.5 118.5t110.5 50.5q86 0 136 -65q45 -60 45 -148q0 -102 -68 -214q-65 -107 -155 -163q-35 -22 -55 -22q-28 0 -28 23q0 10 99.5 111.5t99.5 155.5z" />
    <glyph glyph-name="glyph280" unicode="&#x1b0;" horiz-adv-x="1347" 
d="M-27 793q0 23 69 32q177 22 348 106q35 17 42 17q21 0 21 -30v-639q0 -93 13 -126q24 -57 101 -57q50 0 119 37q55 33 109 66v419q0 83 -33 118q-29 30 -107 33q-65 3 -65 24q0 23 69 32q176 22 347 106q35 17 43 17q20 0 20 -30v-707q0 -124 91 -150q26 -5 52 -9
q35 -9 35 -27q0 -25 -49 -25h-348q-47 0 -53 25q-2 10 -2 30v80q-146 -88 -192 -110q-114 -54 -212 -54q-125 0 -174 71q-39 58 -39 191v385q0 83 -33 118q-30 31 -107 33q-65 3 -65 24zM1252 917q0 33 -28 33q-13 0 -38 -4.5t-37 -4.5q-54 0 -89.5 37.5t-35.5 91.5
q0 68 43.5 118.5t110.5 50.5q86 0 136 -65q45 -60 45 -148q0 -102 -68 -214q-65 -107 -155 -163q-35 -22 -55 -22q-28 0 -28 23q0 10 99.5 111.5t99.5 155.5z" />
    <glyph glyph-name="glyph281" unicode="&#x1ea0;" horiz-adv-x="1485" 
d="M289 221q0 -135 129 -162q65 -14 65 -32q0 -27 -53 -27h-477q-53 0 -53 27q0 26 26 26q97 0 184.5 91.5t151.5 261.5l322 854q-11 14 -59 44q-42 27 -42 35q0 11 68 43q44 21 88 41q55 33 109 91q51 57 59 57q18 0 63 -133l361 -1065q61 -180 103 -233q50 -64 173 -83
q56 -9 56 -30q0 -27 -54 -27h-749q-55 0 -55 31q0 19 56 23q94 7 129 21q66 27 66 99q0 46 -45 184l-63 193h-461q-29 -79 -59 -157q-39 -115 -39 -173zM829 610l-200 615l-223 -615h423zM486 -309q0 73 48 121.5t121 48.5t123 -48.5t50 -121.5q0 -72 -50.5 -122t-122.5 -50
t-120.5 50t-48.5 122z" />
    <glyph glyph-name="glyph282" unicode="&#x1ea1;" horiz-adv-x="1133" 
d="M668 150q-136 -185 -338 -185q-119 0 -197 65q-84 69 -84 185q0 186 233 278q137 53 390 80v123q0 213 -170 213q-46 0 -84 -21q-45 -25 -45 -67q0 -6 18.5 -48t18.5 -71q0 -131 -164 -131q-62 0 -103 36.5t-41 97.5q0 103 119.5 178t298.5 75q116 0 216 -31
q168 -53 206 -161q14 -42 14 -188v-357q0 -129 78 -129q37 0 69.5 49t43.5 49q24 0 24 -30q0 -88 -91 -142q-77 -47 -171 -47q-204 0 -241 179zM672 514q-130 -11 -219 -73q-107 -73 -107 -193q0 -60 33 -98q35 -41 94 -41q102 0 156 95q43 77 43 187v123zM377 -309
q0 73 48 121.5t121 48.5t123 -48.5t50 -121.5q0 -72 -50.5 -122t-122.5 -50t-120.5 50t-48.5 122z" />
    <glyph glyph-name="glyph283" unicode="&#x1ea2;" horiz-adv-x="1485" 
d="M289 221q0 -135 129 -162q65 -14 65 -32q0 -27 -53 -27h-477q-53 0 -53 27q0 26 26 26q97 0 184.5 91.5t151.5 261.5l322 854q-11 14 -59 44q-42 27 -42 35q0 11 68 43q44 21 88 41q55 33 109 91q51 57 59 57q18 0 63 -133l361 -1065q61 -180 103 -233q50 -64 173 -83
q56 -9 56 -30q0 -27 -54 -27h-749q-55 0 -55 31q0 19 56 23q94 7 129 21q66 27 66 99q0 46 -45 184l-63 193h-461q-29 -79 -59 -157q-39 -115 -39 -173zM829 610l-200 615l-223 -615h423zM642 1628q0 35 8 54q28 31 56 61q44 51 44 104q0 34 -24.5 57t-51.5 23
q-46 0 -78 -22.5t-32 -50.5q0 -32 20 -32q19 0 12 29q35 -5 35 -43q0 -44 -53 -44q-26 0 -44 22t-18 47q0 79 57.5 131.5t144.5 52.5q81 0 136 -41q63 -47 63 -133t-85 -140q-55 -31 -111 -61q-7 -7 -6 -30.5t-3.5 -29.5t-32.5 -8q-37 0 -37 54z" />
    <glyph glyph-name="glyph284" unicode="&#x1ea3;" horiz-adv-x="1133" 
d="M668 150q-136 -185 -338 -185q-119 0 -197 65q-84 69 -84 185q0 186 233 278q137 53 390 80v123q0 213 -170 213q-46 0 -84 -21q-45 -25 -45 -67q0 -6 18.5 -48t18.5 -71q0 -131 -164 -131q-62 0 -103 36.5t-41 97.5q0 103 119.5 178t298.5 75q116 0 216 -31
q168 -53 206 -161q14 -42 14 -188v-357q0 -129 78 -129q37 0 69.5 49t43.5 49q24 0 24 -30q0 -88 -91 -142q-77 -47 -171 -47q-204 0 -241 179zM672 514q-130 -11 -219 -73q-107 -73 -107 -193q0 -60 33 -98q35 -41 94 -41q102 0 156 95q43 77 43 187v123zM461 1111
q0 35 8 54q28 31 56 61q44 51 44 104q0 34 -24.5 57t-51.5 23q-46 0 -78 -22.5t-32 -50.5q0 -32 20 -32q19 0 12 29q35 -5 35 -43q0 -44 -53 -44q-26 0 -44 22t-18 47q0 79 57.5 131.5t144.5 52.5q81 0 136 -41q63 -47 63 -133t-85 -140q-55 -31 -111 -61q-7 -7 -6 -30.5
t-3.5 -29.5t-32.5 -8q-37 0 -37 54z" />
    <glyph glyph-name="glyph285" unicode="&#x1ea4;" horiz-adv-x="1485" 
d="M289 221q0 -135 129 -162q65 -14 65 -32q0 -27 -53 -27h-477q-53 0 -53 27q0 26 26 26q97 0 184.5 91.5t151.5 261.5l322 854q-11 14 -59 44q-42 27 -42 35q0 11 68 43q44 21 88 41q55 33 109 91q51 57 59 57q18 0 63 -133l361 -1065q61 -180 103 -233q50 -64 173 -83
q56 -9 56 -30q0 -27 -54 -27h-749q-55 0 -55 31q0 19 56 23q94 7 129 21q66 27 66 99q0 46 -45 184l-63 193h-461q-29 -79 -59 -157q-39 -115 -39 -173zM829 610l-200 615l-223 -615h423zM442 1590l225 348h148l225 -348h-84l-215 178l-215 -178h-84zM494 1981l273 281
q80 82 135 82q90 0 90 -91q0 -59 -94 -108l-313 -164h-91z" />
    <glyph glyph-name="glyph286" unicode="&#x1ea5;" horiz-adv-x="1133" 
d="M668 150q-136 -185 -338 -185q-119 0 -197 65q-84 69 -84 185q0 186 233 278q137 53 390 80v123q0 213 -170 213q-46 0 -84 -21q-45 -25 -45 -67q0 -6 18.5 -48t18.5 -71q0 -131 -164 -131q-62 0 -103 36.5t-41 97.5q0 103 119.5 178t298.5 75q116 0 216 -31
q168 -53 206 -161q14 -42 14 -188v-357q0 -129 78 -129q37 0 69.5 49t43.5 49q24 0 24 -30q0 -88 -91 -142q-77 -47 -171 -47q-204 0 -241 179zM672 514q-130 -11 -219 -73q-107 -73 -107 -193q0 -60 33 -98q35 -41 94 -41q102 0 156 95q43 77 43 187v123zM248 1069l225 348
h148l225 -348h-84l-215 178l-215 -178h-84zM300 1459l273 281q80 82 135 82q90 0 90 -91q0 -59 -94 -108l-313 -164h-91z" />
    <glyph glyph-name="glyph287" unicode="&#x1ea6;" horiz-adv-x="1485" 
d="M289 221q0 -135 129 -162q65 -14 65 -32q0 -27 -53 -27h-477q-53 0 -53 27q0 26 26 26q97 0 184.5 91.5t151.5 261.5l322 854q-11 14 -59 44q-42 27 -42 35q0 11 68 43q44 21 88 41q55 33 109 91q51 57 59 57q18 0 63 -133l361 -1065q61 -180 103 -233q50 -64 173 -83
q56 -9 56 -30q0 -27 -54 -27h-749q-55 0 -55 31q0 19 56 23q94 7 129 21q66 27 66 99q0 46 -45 184l-63 193h-461q-29 -79 -59 -157q-39 -115 -39 -173zM829 610l-200 615l-223 -615h423zM442 1590l225 348h148l225 -348h-84l-215 178l-215 -178h-84zM991 1980h-91l-313 164
q-94 49 -94 108q0 91 90 91q55 0 135 -82z" />
    <glyph glyph-name="glyph288" unicode="&#x1ea7;" horiz-adv-x="1133" 
d="M668 150q-136 -185 -338 -185q-119 0 -197 65q-84 69 -84 185q0 186 233 278q137 53 390 80v123q0 213 -170 213q-46 0 -84 -21q-45 -25 -45 -67q0 -6 18.5 -48t18.5 -71q0 -131 -164 -131q-62 0 -103 36.5t-41 97.5q0 103 119.5 178t298.5 75q116 0 216 -31
q168 -53 206 -161q14 -42 14 -188v-357q0 -129 78 -129q37 0 69.5 49t43.5 49q24 0 24 -30q0 -88 -91 -142q-77 -47 -171 -47q-204 0 -241 179zM672 514q-130 -11 -219 -73q-107 -73 -107 -193q0 -60 33 -98q35 -41 94 -41q102 0 156 95q43 77 43 187v123zM248 1069l225 348
h148l225 -348h-84l-215 178l-215 -178h-84zM797 1459h-91l-313 164q-94 49 -94 108q0 91 90 91q55 0 135 -82z" />
    <glyph glyph-name="glyph289" unicode="&#x1ea8;" horiz-adv-x="1485" 
d="M289 221q0 -135 129 -162q65 -14 65 -32q0 -27 -53 -27h-477q-53 0 -53 27q0 26 26 26q97 0 184.5 91.5t151.5 261.5l322 854q-11 14 -59 44q-42 27 -42 35q0 11 68 43q44 21 88 41q55 33 109 91q51 57 59 57q18 0 63 -133l361 -1065q61 -180 103 -233q50 -64 173 -83
q56 -9 56 -30q0 -27 -54 -27h-749q-55 0 -55 31q0 19 56 23q94 7 129 21q66 27 66 99q0 46 -45 184l-63 193h-461q-29 -79 -59 -157q-39 -115 -39 -173zM829 610l-200 615l-223 -615h423zM442 1590l225 348h148l225 -348h-84l-215 178l-215 -178h-84zM887 1963q0 35 8 54
q28 31 56 61q44 51 44 104q0 34 -24.5 57t-51.5 23q-46 0 -78 -22.5t-32 -50.5q0 -32 20 -32q19 0 12 29q35 -5 35 -43q0 -44 -53 -44q-26 0 -44 22t-18 47q0 79 57.5 131.5t144.5 52.5q81 0 136 -41q63 -47 63 -133t-85 -140q-55 -31 -111 -61q-7 -7 -6 -30.5t-3.5 -29.5
t-32.5 -8q-37 0 -37 54z" />
    <glyph glyph-name="glyph290" unicode="&#x1ea9;" horiz-adv-x="1133" 
d="M668 150q-136 -185 -338 -185q-119 0 -197 65q-84 69 -84 185q0 186 233 278q137 53 390 80v123q0 213 -170 213q-46 0 -84 -21q-45 -25 -45 -67q0 -6 18.5 -48t18.5 -71q0 -131 -164 -131q-62 0 -103 36.5t-41 97.5q0 103 119.5 178t298.5 75q116 0 216 -31
q168 -53 206 -161q14 -42 14 -188v-357q0 -129 78 -129q37 0 69.5 49t43.5 49q24 0 24 -30q0 -88 -91 -142q-77 -47 -171 -47q-204 0 -241 179zM672 514q-130 -11 -219 -73q-107 -73 -107 -193q0 -60 33 -98q35 -41 94 -41q102 0 156 95q43 77 43 187v123zM248 1069l225 348
h148l225 -348h-84l-215 178l-215 -178h-84zM693 1442q0 35 8 54q28 31 56 61q44 51 44 104q0 34 -24.5 57t-51.5 23q-46 0 -78 -22.5t-32 -50.5q0 -32 20 -32q19 0 12 29q35 -5 35 -43q0 -44 -53 -44q-26 0 -44 22t-18 47q0 79 57.5 131.5t144.5 52.5q81 0 136 -41
q63 -47 63 -133t-85 -140q-55 -31 -111 -61q-7 -7 -6 -30.5t-3.5 -29.5t-32.5 -8q-37 0 -37 54z" />
    <glyph glyph-name="glyph291" unicode="&#x1eaa;" horiz-adv-x="1485" 
d="M289 221q0 -135 129 -162q65 -14 65 -32q0 -27 -53 -27h-477q-53 0 -53 27q0 26 26 26q97 0 184.5 91.5t151.5 261.5l322 854q-11 14 -59 44q-42 27 -42 35q0 11 68 43q44 21 88 41q55 33 109 91q51 57 59 57q18 0 63 -133l361 -1065q61 -180 103 -233q50 -64 173 -83
q56 -9 56 -30q0 -27 -54 -27h-749q-55 0 -55 31q0 19 56 23q94 7 129 21q66 27 66 99q0 46 -45 184l-63 193h-461q-29 -79 -59 -157q-39 -115 -39 -173zM829 610l-200 615l-223 -615h423zM442 1590l225 348h148l225 -348h-84l-215 178l-215 -178h-84zM1094 2295
q-29 -248 -205 -248q-37 0 -109 22.5t-110 22.5q-59 0 -90 -88h-66q34 248 211 248q35 0 106 -21.5t105 -21.5q62 0 92 86h66z" />
    <glyph glyph-name="glyph292" unicode="&#x1eab;" horiz-adv-x="1133" 
d="M668 150q-136 -185 -338 -185q-119 0 -197 65q-84 69 -84 185q0 186 233 278q137 53 390 80v123q0 213 -170 213q-46 0 -84 -21q-45 -25 -45 -67q0 -6 18.5 -48t18.5 -71q0 -131 -164 -131q-62 0 -103 36.5t-41 97.5q0 103 119.5 178t298.5 75q116 0 216 -31
q168 -53 206 -161q14 -42 14 -188v-357q0 -129 78 -129q37 0 69.5 49t43.5 49q24 0 24 -30q0 -88 -91 -142q-77 -47 -171 -47q-204 0 -241 179zM672 514q-130 -11 -219 -73q-107 -73 -107 -193q0 -60 33 -98q35 -41 94 -41q102 0 156 95q43 77 43 187v123zM248 1069l225 348
h148l225 -348h-84l-215 178l-215 -178h-84zM900 1773q-29 -248 -205 -248q-37 0 -109 22.5t-110 22.5q-59 0 -90 -88h-66q34 248 211 248q35 0 106 -21.5t105 -21.5q62 0 92 86h66z" />
    <glyph glyph-name="glyph293" unicode="&#x1eac;" horiz-adv-x="1485" 
d="M289 221q0 -135 129 -162q65 -14 65 -32q0 -27 -53 -27h-477q-53 0 -53 27q0 26 26 26q97 0 184.5 91.5t151.5 261.5l322 854q-11 14 -59 44q-42 27 -42 35q0 11 68 43q44 21 88 41q55 33 109 91q51 57 59 57q18 0 63 -133l361 -1065q61 -180 103 -233q50 -64 173 -83
q56 -9 56 -30q0 -27 -54 -27h-749q-55 0 -55 31q0 19 56 23q94 7 129 21q66 27 66 99q0 46 -45 184l-63 193h-461q-29 -79 -59 -157q-39 -115 -39 -173zM829 610l-200 615l-223 -615h423zM442 1590l225 348h148l225 -348h-84l-215 178l-215 -178h-84zM486 -309
q0 73 48 121.5t121 48.5t123 -48.5t50 -121.5q0 -72 -50.5 -122t-122.5 -50t-120.5 50t-48.5 122z" />
    <glyph glyph-name="glyph294" unicode="&#x1ead;" horiz-adv-x="1133" 
d="M668 150q-136 -185 -338 -185q-119 0 -197 65q-84 69 -84 185q0 186 233 278q137 53 390 80v123q0 213 -170 213q-46 0 -84 -21q-45 -25 -45 -67q0 -6 18.5 -48t18.5 -71q0 -131 -164 -131q-62 0 -103 36.5t-41 97.5q0 103 119.5 178t298.5 75q116 0 216 -31
q168 -53 206 -161q14 -42 14 -188v-357q0 -129 78 -129q37 0 69.5 49t43.5 49q24 0 24 -30q0 -88 -91 -142q-77 -47 -171 -47q-204 0 -241 179zM672 514q-130 -11 -219 -73q-107 -73 -107 -193q0 -60 33 -98q35 -41 94 -41q102 0 156 95q43 77 43 187v123zM248 1069l225 348
h148l225 -348h-84l-215 178l-215 -178h-84zM377 -309q0 73 48 121.5t121 48.5t123 -48.5t50 -121.5q0 -72 -50.5 -122t-122.5 -50t-120.5 50t-48.5 122z" />
    <glyph glyph-name="glyph295" unicode="&#x1eae;" horiz-adv-x="1485" 
d="M289 221q0 -135 129 -162q65 -14 65 -32q0 -27 -53 -27h-477q-53 0 -53 27q0 26 26 26q97 0 184.5 91.5t151.5 261.5l322 854q-11 14 -59 44q-42 27 -42 35q0 11 68 43q44 21 88 41q55 33 109 91q51 57 59 57q18 0 63 -133l361 -1065q61 -180 103 -233q50 -64 173 -83
q56 -9 56 -30q0 -27 -54 -27h-749q-55 0 -55 31q0 19 56 23q94 7 129 21q66 27 66 99q0 46 -45 184l-63 193h-461q-29 -79 -59 -157q-39 -115 -39 -173zM829 610l-200 615l-223 -615h423zM434 1906h76q32 -122 233 -122q204 0 231 122h76q-41 -286 -307 -286t-309 286z
M584 1979l273 281q80 82 135 82q90 0 90 -91q0 -59 -94 -108l-313 -164h-91z" />
    <glyph glyph-name="glyph296" unicode="&#x1eaf;" horiz-adv-x="1133" 
d="M668 150q-136 -185 -338 -185q-119 0 -197 65q-84 69 -84 185q0 186 233 278q137 53 390 80v123q0 213 -170 213q-46 0 -84 -21q-45 -25 -45 -67q0 -6 18.5 -48t18.5 -71q0 -131 -164 -131q-62 0 -103 36.5t-41 97.5q0 103 119.5 178t298.5 75q116 0 216 -31
q168 -53 206 -161q14 -42 14 -188v-357q0 -129 78 -129q37 0 69.5 49t43.5 49q24 0 24 -30q0 -88 -91 -142q-77 -47 -171 -47q-204 0 -241 179zM672 514q-130 -11 -219 -73q-107 -73 -107 -193q0 -60 33 -98q35 -41 94 -41q102 0 156 95q43 77 43 187v123zM240 1386h76
q32 -122 233 -122q204 0 231 122h76q-41 -286 -307 -286t-309 286zM390 1459l273 281q80 82 135 82q90 0 90 -91q0 -59 -94 -108l-313 -164h-91z" />
    <glyph glyph-name="glyph297" unicode="&#x1eb0;" horiz-adv-x="1485" 
d="M289 221q0 -135 129 -162q65 -14 65 -32q0 -27 -53 -27h-477q-53 0 -53 27q0 26 26 26q97 0 184.5 91.5t151.5 261.5l322 854q-11 14 -59 44q-42 27 -42 35q0 11 68 43q44 21 88 41q55 33 109 91q51 57 59 57q18 0 63 -133l361 -1065q61 -180 103 -233q50 -64 173 -83
q56 -9 56 -30q0 -27 -54 -27h-749q-55 0 -55 31q0 19 56 23q94 7 129 21q66 27 66 99q0 46 -45 184l-63 193h-461q-29 -79 -59 -157q-39 -115 -39 -173zM829 610l-200 615l-223 -615h423zM434 1906h76q32 -122 233 -122q204 0 231 122h76q-41 -286 -307 -286t-309 286z
M902 1979h-91l-313 164q-94 49 -94 108q0 91 90 91q55 0 135 -82z" />
    <glyph glyph-name="glyph298" unicode="&#x1eb1;" horiz-adv-x="1133" 
d="M668 150q-136 -185 -338 -185q-119 0 -197 65q-84 69 -84 185q0 186 233 278q137 53 390 80v123q0 213 -170 213q-46 0 -84 -21q-45 -25 -45 -67q0 -6 18.5 -48t18.5 -71q0 -131 -164 -131q-62 0 -103 36.5t-41 97.5q0 103 119.5 178t298.5 75q116 0 216 -31
q168 -53 206 -161q14 -42 14 -188v-357q0 -129 78 -129q37 0 69.5 49t43.5 49q24 0 24 -30q0 -88 -91 -142q-77 -47 -171 -47q-204 0 -241 179zM672 514q-130 -11 -219 -73q-107 -73 -107 -193q0 -60 33 -98q35 -41 94 -41q102 0 156 95q43 77 43 187v123zM240 1386h76
q32 -122 233 -122q204 0 231 122h76q-41 -286 -307 -286t-309 286zM707 1459h-91l-313 164q-94 49 -94 108q0 91 90 91q55 0 135 -82z" />
    <glyph glyph-name="glyph299" unicode="&#x1eb2;" horiz-adv-x="1485" 
d="M289 221q0 -135 129 -162q65 -14 65 -32q0 -27 -53 -27h-477q-53 0 -53 27q0 26 26 26q97 0 184.5 91.5t151.5 261.5l322 854q-11 14 -59 44q-42 27 -42 35q0 11 68 43q44 21 88 41q55 33 109 91q51 57 59 57q18 0 63 -133l361 -1065q61 -180 103 -233q50 -64 173 -83
q56 -9 56 -30q0 -27 -54 -27h-749q-55 0 -55 31q0 19 56 23q94 7 129 21q66 27 66 99q0 46 -45 184l-63 193h-461q-29 -79 -59 -157q-39 -115 -39 -173zM829 610l-200 615l-223 -615h423zM434 1906h76q32 -122 233 -122q204 0 231 122h76q-41 -286 -307 -286t-309 286z
M684 1962q0 35 8 54q28 31 56 61q44 51 44 104q0 34 -24.5 57t-51.5 23q-46 0 -78 -22.5t-32 -50.5q0 -32 20 -32q19 0 12 29q35 -5 35 -43q0 -44 -53 -44q-26 0 -44 22t-18 47q0 79 57.5 131.5t144.5 52.5q81 0 136 -41q63 -47 63 -133t-85 -140q-55 -31 -111 -61
q-7 -7 -6 -30.5t-3.5 -29.5t-32.5 -8q-37 0 -37 54z" />
    <glyph glyph-name="glyph300" unicode="&#x1eb3;" horiz-adv-x="1133" 
d="M668 150q-136 -185 -338 -185q-119 0 -197 65q-84 69 -84 185q0 186 233 278q137 53 390 80v123q0 213 -170 213q-46 0 -84 -21q-45 -25 -45 -67q0 -6 18.5 -48t18.5 -71q0 -131 -164 -131q-62 0 -103 36.5t-41 97.5q0 103 119.5 178t298.5 75q116 0 216 -31
q168 -53 206 -161q14 -42 14 -188v-357q0 -129 78 -129q37 0 69.5 49t43.5 49q24 0 24 -30q0 -88 -91 -142q-77 -47 -171 -47q-204 0 -241 179zM672 514q-130 -11 -219 -73q-107 -73 -107 -193q0 -60 33 -98q35 -41 94 -41q102 0 156 95q43 77 43 187v123zM240 1386h76
q32 -122 233 -122q204 0 231 122h76q-41 -286 -307 -286t-309 286zM490 1442q0 35 8 54q28 31 56 61q44 51 44 104q0 34 -24.5 57t-51.5 23q-46 0 -78 -22.5t-32 -50.5q0 -32 20 -32q19 0 12 29q35 -5 35 -43q0 -44 -53 -44q-26 0 -44 22t-18 47q0 79 57.5 131.5t144.5 52.5
q81 0 136 -41q63 -47 63 -133t-85 -140q-55 -31 -111 -61q-7 -7 -6 -30.5t-3.5 -29.5t-32.5 -8q-37 0 -37 54z" />
    <glyph glyph-name="glyph301" unicode="&#x1eb4;" horiz-adv-x="1485" 
d="M289 221q0 -135 129 -162q65 -14 65 -32q0 -27 -53 -27h-477q-53 0 -53 27q0 26 26 26q97 0 184.5 91.5t151.5 261.5l322 854q-11 14 -59 44q-42 27 -42 35q0 11 68 43q44 21 88 41q55 33 109 91q51 57 59 57q18 0 63 -133l361 -1065q61 -180 103 -233q50 -64 173 -83
q56 -9 56 -30q0 -27 -54 -27h-749q-55 0 -55 31q0 19 56 23q94 7 129 21q66 27 66 99q0 46 -45 184l-63 193h-461q-29 -79 -59 -157q-39 -115 -39 -173zM829 610l-200 615l-223 -615h423zM434 1906h76q32 -122 233 -122q204 0 231 122h76q-41 -286 -307 -286t-309 286z
M1095 2293q-29 -248 -205 -248q-37 0 -109 22.5t-110 22.5q-59 0 -90 -88h-66q34 248 211 248q35 0 106 -21.5t105 -21.5q62 0 92 86h66z" />
    <glyph glyph-name="glyph302" unicode="&#x1eb5;" horiz-adv-x="1133" 
d="M668 150q-136 -185 -338 -185q-119 0 -197 65q-84 69 -84 185q0 186 233 278q137 53 390 80v123q0 213 -170 213q-46 0 -84 -21q-45 -25 -45 -67q0 -6 18.5 -48t18.5 -71q0 -131 -164 -131q-62 0 -103 36.5t-41 97.5q0 103 119.5 178t298.5 75q116 0 216 -31
q168 -53 206 -161q14 -42 14 -188v-357q0 -129 78 -129q37 0 69.5 49t43.5 49q24 0 24 -30q0 -88 -91 -142q-77 -47 -171 -47q-204 0 -241 179zM672 514q-130 -11 -219 -73q-107 -73 -107 -193q0 -60 33 -98q35 -41 94 -41q102 0 156 95q43 77 43 187v123zM240 1386h76
q32 -122 233 -122q204 0 231 122h76q-41 -286 -307 -286t-309 286zM900 1773q-29 -248 -205 -248q-37 0 -109 22.5t-110 22.5q-59 0 -90 -88h-66q34 248 211 248q35 0 106 -21.5t105 -21.5q62 0 92 86h66z" />
    <glyph glyph-name="glyph303" unicode="&#x1eb6;" horiz-adv-x="1485" 
d="M289 221q0 -135 129 -162q65 -14 65 -32q0 -27 -53 -27h-477q-53 0 -53 27q0 26 26 26q97 0 184.5 91.5t151.5 261.5l322 854q-11 14 -59 44q-42 27 -42 35q0 11 68 43q44 21 88 41q55 33 109 91q51 57 59 57q18 0 63 -133l361 -1065q61 -180 103 -233q50 -64 173 -83
q56 -9 56 -30q0 -27 -54 -27h-749q-55 0 -55 31q0 19 56 23q94 7 129 21q66 27 66 99q0 46 -45 184l-63 193h-461q-29 -79 -59 -157q-39 -115 -39 -173zM829 610l-200 615l-223 -615h423zM434 1906h76q32 -122 233 -122q204 0 231 122h76q-41 -286 -307 -286t-309 286z
M486 -309q0 73 48 121.5t121 48.5t123 -48.5t50 -121.5q0 -72 -50.5 -122t-122.5 -50t-120.5 50t-48.5 122z" />
    <glyph glyph-name="glyph304" unicode="&#x1eb7;" horiz-adv-x="1133" 
d="M668 150q-136 -185 -338 -185q-119 0 -197 65q-84 69 -84 185q0 186 233 278q137 53 390 80v123q0 213 -170 213q-46 0 -84 -21q-45 -25 -45 -67q0 -6 18.5 -48t18.5 -71q0 -131 -164 -131q-62 0 -103 36.5t-41 97.5q0 103 119.5 178t298.5 75q116 0 216 -31
q168 -53 206 -161q14 -42 14 -188v-357q0 -129 78 -129q37 0 69.5 49t43.5 49q24 0 24 -30q0 -88 -91 -142q-77 -47 -171 -47q-204 0 -241 179zM672 514q-130 -11 -219 -73q-107 -73 -107 -193q0 -60 33 -98q35 -41 94 -41q102 0 156 95q43 77 43 187v123zM240 1386h76
q32 -122 233 -122q204 0 231 122h76q-41 -286 -307 -286t-309 286zM377 -309q0 73 48 121.5t121 48.5t123 -48.5t50 -121.5q0 -72 -50.5 -122t-122.5 -50t-120.5 50t-48.5 122z" />
    <glyph glyph-name="glyph305" unicode="&#x1eb8;" horiz-adv-x="1516" 
d="M12 31q0 25 61 32q131 15 166 92q31 67 31 296v553q0 223 -25 288q-36 92 -175 105q-58 5 -58 30q0 29 58 29h704q296 0 363 31q18 9 50 43q30 31 32 31q20 0 38 -43l166 -403q11 -27 11 -34q0 -18 -25 -18q-14 0 -66.5 66t-109.5 112q-205 164 -434 164q-128 0 -177 -63
q-44 -55 -44 -187v-342h90q232 0 298 29q97 42 108 205q4 65 30 65q29 0 29 -68v-542q0 -76 -29 -76q-22 0 -35 113q-26 221 -291 221h-200v-436q0 -151 48 -208q53 -61 201 -61q200 0 343 80q132 74 255 243q53 73 68 73q20 0 20 -27q0 -13 -12 -39l-235 -512
q-15 -33 -33 -33q-15 0 -28 31q-17 41 -21 45q-37 44 -121 64t-254 20h-739q-58 0 -58 31zM543 -309q0 73 48 121.5t121 48.5t123 -48.5t50 -121.5q0 -72 -50.5 -122t-122.5 -50t-120.5 50t-48.5 122z" />
    <glyph glyph-name="glyph306" unicode="&#x1eb9;" horiz-adv-x="1104" 
d="M328 484l364 124q43 15 43 43q0 22 -18 71q-60 165 -193 165q-105 0 -161 -99q-46 -80 -46 -194q0 -50 11 -110zM348 434q110 -305 340 -305q177 0 294 176q28 43 46 43q21 0 21 -22q0 -28 -35 -83q-83 -127 -220 -201.5t-288 -74.5q-199 0 -325 126t-126 325
q0 222 170 380q166 154 389 154q213 0 328 -139q24 -38 74 -88q15 -5 29 -9q18 -7 18 -22q0 -22 -57 -41zM382 -309q0 73 48 121.5t121 48.5t123 -48.5t50 -121.5q0 -72 -50.5 -122t-122.5 -50t-120.5 50t-48.5 122z" />
    <glyph glyph-name="glyph307" unicode="&#x1eba;" horiz-adv-x="1516" 
d="M12 31q0 25 61 32q131 15 166 92q31 67 31 296v553q0 223 -25 288q-36 92 -175 105q-58 5 -58 30q0 29 58 29h704q296 0 363 31q18 9 50 43q30 31 32 31q20 0 38 -43l166 -403q11 -27 11 -34q0 -18 -25 -18q-14 0 -66.5 66t-109.5 112q-205 164 -434 164q-128 0 -177 -63
q-44 -55 -44 -187v-342h90q232 0 298 29q97 42 108 205q4 65 30 65q29 0 29 -68v-542q0 -76 -29 -76q-22 0 -35 113q-26 221 -291 221h-200v-436q0 -151 48 -208q53 -61 201 -61q200 0 343 80q132 74 255 243q53 73 68 73q20 0 20 -27q0 -13 -12 -39l-235 -512
q-15 -33 -33 -33q-15 0 -28 31q-17 41 -21 45q-37 44 -121 64t-254 20h-739q-58 0 -58 31zM662 1628q0 35 8 54q28 31 56 61q44 51 44 104q0 34 -24.5 57t-51.5 23q-46 0 -78 -22.5t-32 -50.5q0 -32 20 -32q19 0 12 29q35 -5 35 -43q0 -44 -53 -44q-26 0 -44 22t-18 47
q0 79 57.5 131.5t144.5 52.5q81 0 136 -41q63 -47 63 -133t-85 -140q-55 -31 -111 -61q-7 -7 -6 -30.5t-3.5 -29.5t-32.5 -8q-37 0 -37 54z" />
    <glyph glyph-name="glyph308" unicode="&#x1ebb;" horiz-adv-x="1104" 
d="M328 484l364 124q43 15 43 43q0 22 -18 71q-60 165 -193 165q-105 0 -161 -99q-46 -80 -46 -194q0 -50 11 -110zM348 434q110 -305 340 -305q177 0 294 176q28 43 46 43q21 0 21 -22q0 -28 -35 -83q-83 -127 -220 -201.5t-288 -74.5q-199 0 -325 126t-126 325
q0 222 170 380q166 154 389 154q213 0 328 -139q24 -38 74 -88q15 -5 29 -9q18 -7 18 -22q0 -22 -57 -41zM511 1111q0 35 8 54q28 31 56 61q44 51 44 104q0 34 -24.5 57t-51.5 23q-46 0 -78 -22.5t-32 -50.5q0 -32 20 -32q19 0 12 29q35 -5 35 -43q0 -44 -53 -44
q-26 0 -44 22t-18 47q0 79 57.5 131.5t144.5 52.5q81 0 136 -41q63 -47 63 -133t-85 -140q-55 -31 -111 -61q-7 -7 -6 -30.5t-3.5 -29.5t-32.5 -8q-37 0 -37 54z" />
    <glyph glyph-name="glyph309" unicode="&#x1ebc;" horiz-adv-x="1516" 
d="M12 31q0 25 61 32q131 15 166 92q31 67 31 296v553q0 223 -25 288q-36 92 -175 105q-58 5 -58 30q0 29 58 29h704q296 0 363 31q18 9 50 43q30 31 32 31q20 0 38 -43l166 -403q11 -27 11 -34q0 -18 -25 -18q-14 0 -66.5 66t-109.5 112q-205 164 -434 164q-128 0 -177 -63
q-44 -55 -44 -187v-342h90q232 0 298 29q97 42 108 205q4 65 30 65q29 0 29 -68v-542q0 -76 -29 -76q-22 0 -35 113q-26 221 -291 221h-200v-436q0 -151 48 -208q53 -61 201 -61q200 0 343 80q132 74 255 243q53 73 68 73q20 0 20 -27q0 -13 -12 -39l-235 -512
q-15 -33 -33 -33q-15 0 -28 31q-17 41 -21 45q-37 44 -121 64t-254 20h-739q-58 0 -58 31zM1026 1932q-29 -248 -205 -248q-37 0 -109 22.5t-110 22.5q-59 0 -90 -88h-66q34 248 211 248q35 0 106 -21.5t105 -21.5q62 0 92 86h66z" />
    <glyph glyph-name="glyph310" unicode="&#x1ebd;" horiz-adv-x="1104" 
d="M328 484l364 124q43 15 43 43q0 22 -18 71q-60 165 -193 165q-105 0 -161 -99q-46 -80 -46 -194q0 -50 11 -110zM348 434q110 -305 340 -305q177 0 294 176q28 43 46 43q21 0 21 -22q0 -28 -35 -83q-83 -127 -220 -201.5t-288 -74.5q-199 0 -325 126t-126 325
q0 222 170 380q166 154 389 154q213 0 328 -139q24 -38 74 -88q15 -5 29 -9q18 -7 18 -22q0 -22 -57 -41zM860 1391q-29 -248 -205 -248q-37 0 -109 22.5t-110 22.5q-59 0 -90 -88h-66q34 248 211 248q35 0 106 -21.5t105 -21.5q62 0 92 86h66z" />
    <glyph glyph-name="glyph311" unicode="&#x1ebe;" horiz-adv-x="1516" 
d="M12 31q0 25 61 32q131 15 166 92q31 67 31 296v553q0 223 -25 288q-36 92 -175 105q-58 5 -58 30q0 29 58 29h704q296 0 363 31q18 9 50 43q30 31 32 31q20 0 38 -43l166 -403q11 -27 11 -34q0 -18 -25 -18q-14 0 -66.5 66t-109.5 112q-205 164 -434 164q-128 0 -177 -63
q-44 -55 -44 -187v-342h90q232 0 298 29q97 42 108 205q4 65 30 65q29 0 29 -68v-542q0 -76 -29 -76q-22 0 -35 113q-26 221 -291 221h-200v-436q0 -151 48 -208q53 -61 201 -61q200 0 343 80q132 74 255 243q53 73 68 73q20 0 20 -27q0 -13 -12 -39l-235 -512
q-15 -33 -33 -33q-15 0 -28 31q-17 41 -21 45q-37 44 -121 64t-254 20h-739q-58 0 -58 31zM412 1590l225 348h148l225 -348h-84l-215 178l-215 -178h-84zM464 1981l273 281q80 82 135 82q90 0 90 -91q0 -59 -94 -108l-313 -164h-91z" />
    <glyph glyph-name="glyph312" unicode="&#x1ebf;" horiz-adv-x="1104" 
d="M328 484l364 124q43 15 43 43q0 22 -18 71q-60 165 -193 165q-105 0 -161 -99q-46 -80 -46 -194q0 -50 11 -110zM348 434q110 -305 340 -305q177 0 294 176q28 43 46 43q21 0 21 -22q0 -28 -35 -83q-83 -127 -220 -201.5t-288 -74.5q-199 0 -325 126t-126 325
q0 222 170 380q166 154 389 154q213 0 328 -139q24 -38 74 -88q15 -5 29 -9q18 -7 18 -22q0 -22 -57 -41zM285 1069l225 348h148l225 -348h-84l-215 178l-215 -178h-84zM337 1459l273 281q80 82 135 82q90 0 90 -91q0 -59 -94 -108l-313 -164h-91z" />
    <glyph glyph-name="glyph313" unicode="&#x1ec0;" horiz-adv-x="1516" 
d="M12 31q0 25 61 32q131 15 166 92q31 67 31 296v553q0 223 -25 288q-36 92 -175 105q-58 5 -58 30q0 29 58 29h704q296 0 363 31q18 9 50 43q30 31 32 31q20 0 38 -43l166 -403q11 -27 11 -34q0 -18 -25 -18q-14 0 -66.5 66t-109.5 112q-205 164 -434 164q-128 0 -177 -63
q-44 -55 -44 -187v-342h90q232 0 298 29q97 42 108 205q4 65 30 65q29 0 29 -68v-542q0 -76 -29 -76q-22 0 -35 113q-26 221 -291 221h-200v-436q0 -151 48 -208q53 -61 201 -61q200 0 343 80q132 74 255 243q53 73 68 73q20 0 20 -27q0 -13 -12 -39l-235 -512
q-15 -33 -33 -33q-15 0 -28 31q-17 41 -21 45q-37 44 -121 64t-254 20h-739q-58 0 -58 31zM412 1590l225 348h148l225 -348h-84l-215 178l-215 -178h-84zM961 1980h-91l-313 164q-94 49 -94 108q0 91 90 91q55 0 135 -82z" />
    <glyph glyph-name="glyph314" unicode="&#x1ec1;" horiz-adv-x="1104" 
d="M328 484l364 124q43 15 43 43q0 22 -18 71q-60 165 -193 165q-105 0 -161 -99q-46 -80 -46 -194q0 -50 11 -110zM348 434q110 -305 340 -305q177 0 294 176q28 43 46 43q21 0 21 -22q0 -28 -35 -83q-83 -127 -220 -201.5t-288 -74.5q-199 0 -325 126t-126 325
q0 222 170 380q166 154 389 154q213 0 328 -139q24 -38 74 -88q15 -5 29 -9q18 -7 18 -22q0 -22 -57 -41zM285 1069l225 348h148l225 -348h-84l-215 178l-215 -178h-84zM834 1459h-91l-313 164q-94 49 -94 108q0 91 90 91q55 0 135 -82z" />
    <glyph glyph-name="glyph315" unicode="&#x1ec2;" horiz-adv-x="1516" 
d="M12 31q0 25 61 32q131 15 166 92q31 67 31 296v553q0 223 -25 288q-36 92 -175 105q-58 5 -58 30q0 29 58 29h704q296 0 363 31q18 9 50 43q30 31 32 31q20 0 38 -43l166 -403q11 -27 11 -34q0 -18 -25 -18q-14 0 -66.5 66t-109.5 112q-205 164 -434 164q-128 0 -177 -63
q-44 -55 -44 -187v-342h90q232 0 298 29q97 42 108 205q4 65 30 65q29 0 29 -68v-542q0 -76 -29 -76q-22 0 -35 113q-26 221 -291 221h-200v-436q0 -151 48 -208q53 -61 201 -61q200 0 343 80q132 74 255 243q53 73 68 73q20 0 20 -27q0 -13 -12 -39l-235 -512
q-15 -33 -33 -33q-15 0 -28 31q-17 41 -21 45q-37 44 -121 64t-254 20h-739q-58 0 -58 31zM412 1590l225 348h148l225 -348h-84l-215 178l-215 -178h-84zM857 1963q0 35 8 54q28 31 56 61q44 51 44 104q0 34 -24.5 57t-51.5 23q-46 0 -78 -22.5t-32 -50.5q0 -32 20 -32
q19 0 12 29q35 -5 35 -43q0 -44 -53 -44q-26 0 -44 22t-18 47q0 79 57.5 131.5t144.5 52.5q81 0 136 -41q63 -47 63 -133t-85 -140q-55 -31 -111 -61q-7 -7 -6 -30.5t-3.5 -29.5t-32.5 -8q-37 0 -37 54z" />
    <glyph glyph-name="glyph316" unicode="&#x1ec3;" horiz-adv-x="1104" 
d="M328 484l364 124q43 15 43 43q0 22 -18 71q-60 165 -193 165q-105 0 -161 -99q-46 -80 -46 -194q0 -50 11 -110zM348 434q110 -305 340 -305q177 0 294 176q28 43 46 43q21 0 21 -22q0 -28 -35 -83q-83 -127 -220 -201.5t-288 -74.5q-199 0 -325 126t-126 325
q0 222 170 380q166 154 389 154q213 0 328 -139q24 -38 74 -88q15 -5 29 -9q18 -7 18 -22q0 -22 -57 -41zM285 1069l225 348h148l225 -348h-84l-215 178l-215 -178h-84zM730 1442q0 35 8 54q28 31 56 61q44 51 44 104q0 34 -24.5 57t-51.5 23q-46 0 -78 -22.5t-32 -50.5
q0 -32 20 -32q19 0 12 29q35 -5 35 -43q0 -44 -53 -44q-26 0 -44 22t-18 47q0 79 57.5 131.5t144.5 52.5q81 0 136 -41q63 -47 63 -133t-85 -140q-55 -31 -111 -61q-7 -7 -6 -30.5t-3.5 -29.5t-32.5 -8q-37 0 -37 54z" />
    <glyph glyph-name="glyph317" unicode="&#x1ec4;" horiz-adv-x="1516" 
d="M12 31q0 25 61 32q131 15 166 92q31 67 31 296v553q0 223 -25 288q-36 92 -175 105q-58 5 -58 30q0 29 58 29h704q296 0 363 31q18 9 50 43q30 31 32 31q20 0 38 -43l166 -403q11 -27 11 -34q0 -18 -25 -18q-14 0 -66.5 66t-109.5 112q-205 164 -434 164q-128 0 -177 -63
q-44 -55 -44 -187v-342h90q232 0 298 29q97 42 108 205q4 65 30 65q29 0 29 -68v-542q0 -76 -29 -76q-22 0 -35 113q-26 221 -291 221h-200v-436q0 -151 48 -208q53 -61 201 -61q200 0 343 80q132 74 255 243q53 73 68 73q20 0 20 -27q0 -13 -12 -39l-235 -512
q-15 -33 -33 -33q-15 0 -28 31q-17 41 -21 45q-37 44 -121 64t-254 20h-739q-58 0 -58 31zM412 1590l225 348h148l225 -348h-84l-215 178l-215 -178h-84zM1064 2295q-29 -248 -205 -248q-37 0 -109 22.5t-110 22.5q-59 0 -90 -88h-66q34 248 211 248q35 0 106 -21.5
t105 -21.5q62 0 92 86h66z" />
    <glyph glyph-name="glyph318" unicode="&#x1ec5;" horiz-adv-x="1104" 
d="M328 484l364 124q43 15 43 43q0 22 -18 71q-60 165 -193 165q-105 0 -161 -99q-46 -80 -46 -194q0 -50 11 -110zM348 434q110 -305 340 -305q177 0 294 176q28 43 46 43q21 0 21 -22q0 -28 -35 -83q-83 -127 -220 -201.5t-288 -74.5q-199 0 -325 126t-126 325
q0 222 170 380q166 154 389 154q213 0 328 -139q24 -38 74 -88q15 -5 29 -9q18 -7 18 -22q0 -22 -57 -41zM285 1069l225 348h148l225 -348h-84l-215 178l-215 -178h-84zM937 1773q-29 -248 -205 -248q-37 0 -109 22.5t-110 22.5q-59 0 -90 -88h-66q34 248 211 248
q35 0 106 -21.5t105 -21.5q62 0 92 86h66z" />
    <glyph glyph-name="glyph319" unicode="&#x1ec6;" horiz-adv-x="1516" 
d="M12 31q0 25 61 32q131 15 166 92q31 67 31 296v553q0 223 -25 288q-36 92 -175 105q-58 5 -58 30q0 29 58 29h704q296 0 363 31q18 9 50 43q30 31 32 31q20 0 38 -43l166 -403q11 -27 11 -34q0 -18 -25 -18q-14 0 -66.5 66t-109.5 112q-205 164 -434 164q-128 0 -177 -63
q-44 -55 -44 -187v-342h90q232 0 298 29q97 42 108 205q4 65 30 65q29 0 29 -68v-542q0 -76 -29 -76q-22 0 -35 113q-26 221 -291 221h-200v-436q0 -151 48 -208q53 -61 201 -61q200 0 343 80q132 74 255 243q53 73 68 73q20 0 20 -27q0 -13 -12 -39l-235 -512
q-15 -33 -33 -33q-15 0 -28 31q-17 41 -21 45q-37 44 -121 64t-254 20h-739q-58 0 -58 31zM412 1590l225 348h148l225 -348h-84l-215 178l-215 -178h-84zM543 -309q0 73 48 121.5t121 48.5t123 -48.5t50 -121.5q0 -72 -50.5 -122t-122.5 -50t-120.5 50t-48.5 122z" />
    <glyph glyph-name="glyph320" unicode="&#x1ec7;" horiz-adv-x="1104" 
d="M328 484l364 124q43 15 43 43q0 22 -18 71q-60 165 -193 165q-105 0 -161 -99q-46 -80 -46 -194q0 -50 11 -110zM348 434q110 -305 340 -305q177 0 294 176q28 43 46 43q21 0 21 -22q0 -28 -35 -83q-83 -127 -220 -201.5t-288 -74.5q-199 0 -325 126t-126 325
q0 222 170 380q166 154 389 154q213 0 328 -139q24 -38 74 -88q15 -5 29 -9q18 -7 18 -22q0 -22 -57 -41zM285 1069l225 348h148l225 -348h-84l-215 178l-215 -178h-84zM382 -309q0 73 48 121.5t121 48.5t123 -48.5t50 -121.5q0 -72 -50.5 -122t-122.5 -50t-120.5 50
t-48.5 122z" />
    <glyph glyph-name="glyph321" unicode="&#x1ec8;" horiz-adv-x="862" 
d="M793 1456q59 0 59 -31q0 -25 -59 -29q-143 -11 -181 -105q-26 -65 -26 -287v-552q0 -222 26 -286q38 -93 181 -103q59 -5 59 -32q0 -31 -59 -31h-723q-60 0 -60 31q0 25 60 30q143 10 181 105q25 63 25 284v552q0 222 -25 286q-37 93 -181 104q-60 4 -60 31q0 33 60 33
h723zM372 1628q0 35 8 54q28 31 56 61q44 51 44 104q0 34 -24.5 57t-51.5 23q-46 0 -78 -22.5t-32 -50.5q0 -32 20 -32q19 0 12 29q35 -5 35 -43q0 -44 -53 -44q-26 0 -44 22t-18 47q0 79 57.5 131.5t144.5 52.5q81 0 136 -41q63 -47 63 -133t-85 -140q-55 -31 -111 -61
q-7 -7 -6 -30.5t-3.5 -29.5t-32.5 -8q-37 0 -37 54z" />
    <glyph glyph-name="glyph322" unicode="&#x1ec9;" horiz-adv-x="692" 
d="M698 25q0 -25 -53 -25h-563q-53 0 -53 25q0 18 39 27q28 4 56 9q101 26 101 150v407q0 83 -33 118q-29 30 -105 33q-64 3 -64 24q0 24 67 32q51 7 83 13q127 26 265 93q35 17 43 17q19 0 19 -30v-707q0 -124 103 -150q28 -5 56 -9q39 -9 39 -27zM281 1111q0 35 8 54
q28 31 56 61q44 51 44 104q0 34 -24.5 57t-51.5 23q-46 0 -78 -22.5t-32 -50.5q0 -32 20 -32q19 0 12 29q35 -5 35 -43q0 -44 -53 -44q-26 0 -44 22t-18 47q0 79 57.5 131.5t144.5 52.5q81 0 136 -41q63 -47 63 -133t-85 -140q-55 -31 -111 -61q-7 -7 -6 -30.5t-3.5 -29.5
t-32.5 -8q-37 0 -37 54z" />
    <glyph glyph-name="glyph323" unicode="&#x1eca;" horiz-adv-x="862" 
d="M793 1456q59 0 59 -31q0 -25 -59 -29q-143 -11 -181 -105q-26 -65 -26 -287v-552q0 -222 26 -286q38 -93 181 -103q59 -5 59 -32q0 -31 -59 -31h-723q-60 0 -60 31q0 25 60 30q143 10 181 105q25 63 25 284v552q0 222 -25 286q-37 93 -181 104q-60 4 -60 31q0 33 60 33
h723zM269 -309q0 73 48 121.5t121 48.5t123 -48.5t50 -121.5q0 -72 -50.5 -122t-122.5 -50t-120.5 50t-48.5 122z" />
    <glyph glyph-name="glyph324" unicode="&#x1ecb;" horiz-adv-x="692" 
d="M698 25q0 -25 -53 -25h-563q-53 0 -53 25q0 18 39 27q28 4 56 9q101 26 101 150v407q0 83 -33 118q-29 30 -105 33q-64 3 -64 24q0 24 67 32q51 7 83 13q127 26 265 93q35 17 43 17q19 0 19 -30v-707q0 -124 103 -150q28 -5 56 -9q39 -9 39 -27zM188 1147q0 70 48 118
t118 48q69 0 117.5 -48.5t48.5 -117.5t-48.5 -117.5t-117.5 -48.5q-70 0 -118 48t-48 118zM193 -309q0 73 48 121.5t121 48.5t123 -48.5t50 -121.5q0 -72 -50.5 -122t-122.5 -50t-120.5 50t-48.5 122z" />
    <glyph glyph-name="glyph325" unicode="&#x1ecc;" 
d="M422 723q0 -715 424 -715q250 0 359 246q79 177 79 463q0 729 -422 729q-249 0 -360 -254q-80 -183 -80 -469zM70 739q0 342 224 552q220 206 564 206q351 0 565.5 -211t214.5 -561q0 -344 -226 -558q-222 -210 -568 -210q-354 0 -564 214t-210 568zM680 -309
q0 73 48 121.5t121 48.5t123 -48.5t50 -121.5q0 -72 -50.5 -122t-122.5 -50t-120.5 50t-48.5 122z" />
    <glyph glyph-name="glyph326" unicode="&#x1ecd;" horiz-adv-x="1239" 
d="M375 469q0 -449 241 -449q248 0 248 435q0 452 -250 452q-239 0 -239 -438zM53 467q0 224 179 363q165 128 395 128q234 0 391 -126q168 -136 168 -365t-175 -369q-163 -131 -397 -131q-242 0 -396 127q-165 136 -165 373zM447 -309q0 73 48 121.5t121 48.5t123 -48.5
t50 -121.5q0 -72 -50.5 -122t-122.5 -50t-120.5 50t-48.5 122z" />
    <glyph glyph-name="glyph327" unicode="&#x1ece;" 
d="M422 723q0 -715 424 -715q250 0 359 246q79 177 79 463q0 729 -422 729q-249 0 -360 -254q-80 -183 -80 -469zM70 739q0 342 224 552q220 206 564 206q351 0 565.5 -211t214.5 -561q0 -344 -226 -558q-222 -210 -568 -210q-354 0 -564 214t-210 568zM802 1628q0 35 8 54
q28 31 56 61q44 51 44 104q0 34 -24.5 57t-51.5 23q-46 0 -78 -22.5t-32 -50.5q0 -32 20 -32q19 0 12 29q35 -5 35 -43q0 -44 -53 -44q-26 0 -44 22t-18 47q0 79 57.5 131.5t144.5 52.5q81 0 136 -41q63 -47 63 -133t-85 -140q-55 -31 -111 -61q-7 -7 -6 -30.5t-3.5 -29.5
t-32.5 -8q-37 0 -37 54z" />
    <glyph glyph-name="glyph328" unicode="&#x1ecf;" horiz-adv-x="1239" 
d="M375 469q0 -449 241 -449q248 0 248 435q0 452 -250 452q-239 0 -239 -438zM53 467q0 224 179 363q165 128 395 128q234 0 391 -126q168 -136 168 -365t-175 -369q-163 -131 -397 -131q-242 0 -396 127q-165 136 -165 373zM571 1111q0 35 8 54q28 31 56 61q44 51 44 104
q0 34 -24.5 57t-51.5 23q-46 0 -78 -22.5t-32 -50.5q0 -32 20 -32q19 0 12 29q35 -5 35 -43q0 -44 -53 -44q-26 0 -44 22t-18 47q0 79 57.5 131.5t144.5 52.5q81 0 136 -41q63 -47 63 -133t-85 -140q-55 -31 -111 -61q-7 -7 -6 -30.5t-3.5 -29.5t-32.5 -8q-37 0 -37 54z" />
    <glyph glyph-name="glyph329" unicode="&#x1ed0;" 
d="M422 723q0 -715 424 -715q250 0 359 246q79 177 79 463q0 729 -422 729q-249 0 -360 -254q-80 -183 -80 -469zM70 739q0 342 224 552q220 206 564 206q351 0 565.5 -211t214.5 -561q0 -344 -226 -558q-222 -210 -568 -210q-354 0 -564 214t-210 568zM562 1590l225 348
h148l225 -348h-84l-215 178l-215 -178h-84zM614 1981l273 281q80 82 135 82q90 0 90 -91q0 -59 -94 -108l-313 -164h-91z" />
    <glyph glyph-name="glyph330" unicode="&#x1ed1;" horiz-adv-x="1239" 
d="M375 469q0 -449 241 -449q248 0 248 435q0 452 -250 452q-239 0 -239 -438zM53 467q0 224 179 363q165 128 395 128q234 0 391 -126q168 -136 168 -365t-175 -369q-163 -131 -397 -131q-242 0 -396 127q-165 136 -165 373zM322 1069l225 348h148l225 -348h-84l-215 178
l-215 -178h-84zM374 1459l273 281q80 82 135 82q90 0 90 -91q0 -59 -94 -108l-313 -164h-91z" />
    <glyph glyph-name="glyph331" unicode="&#x1ed2;" 
d="M422 723q0 -715 424 -715q250 0 359 246q79 177 79 463q0 729 -422 729q-249 0 -360 -254q-80 -183 -80 -469zM70 739q0 342 224 552q220 206 564 206q351 0 565.5 -211t214.5 -561q0 -344 -226 -558q-222 -210 -568 -210q-354 0 -564 214t-210 568zM562 1590l225 348
h148l225 -348h-84l-215 178l-215 -178h-84zM1111 1980h-91l-313 164q-94 49 -94 108q0 91 90 91q55 0 135 -82z" />
    <glyph glyph-name="glyph332" unicode="&#x1ed3;" horiz-adv-x="1239" 
d="M375 469q0 -449 241 -449q248 0 248 435q0 452 -250 452q-239 0 -239 -438zM53 467q0 224 179 363q165 128 395 128q234 0 391 -126q168 -136 168 -365t-175 -369q-163 -131 -397 -131q-242 0 -396 127q-165 136 -165 373zM322 1069l225 348h148l225 -348h-84l-215 178
l-215 -178h-84zM871 1459h-91l-313 164q-94 49 -94 108q0 91 90 91q55 0 135 -82z" />
    <glyph glyph-name="glyph333" unicode="&#x1ed4;" 
d="M422 723q0 -715 424 -715q250 0 359 246q79 177 79 463q0 729 -422 729q-249 0 -360 -254q-80 -183 -80 -469zM70 739q0 342 224 552q220 206 564 206q351 0 565.5 -211t214.5 -561q0 -344 -226 -558q-222 -210 -568 -210q-354 0 -564 214t-210 568zM562 1590l225 348
h148l225 -348h-84l-215 178l-215 -178h-84zM1007 1963q0 35 8 54q28 31 56 61q44 51 44 104q0 34 -24.5 57t-51.5 23q-46 0 -78 -22.5t-32 -50.5q0 -32 20 -32q19 0 12 29q35 -5 35 -43q0 -44 -53 -44q-26 0 -44 22t-18 47q0 79 57.5 131.5t144.5 52.5q81 0 136 -41
q63 -47 63 -133t-85 -140q-55 -31 -111 -61q-7 -7 -6 -30.5t-3.5 -29.5t-32.5 -8q-37 0 -37 54z" />
    <glyph glyph-name="glyph334" unicode="&#x1ed5;" horiz-adv-x="1239" 
d="M375 469q0 -449 241 -449q248 0 248 435q0 452 -250 452q-239 0 -239 -438zM53 467q0 224 179 363q165 128 395 128q234 0 391 -126q168 -136 168 -365t-175 -369q-163 -131 -397 -131q-242 0 -396 127q-165 136 -165 373zM322 1069l225 348h148l225 -348h-84l-215 178
l-215 -178h-84zM767 1442q0 35 8 54q28 31 56 61q44 51 44 104q0 34 -24.5 57t-51.5 23q-46 0 -78 -22.5t-32 -50.5q0 -32 20 -32q19 0 12 29q35 -5 35 -43q0 -44 -53 -44q-26 0 -44 22t-18 47q0 79 57.5 131.5t144.5 52.5q81 0 136 -41q63 -47 63 -133t-85 -140
q-55 -31 -111 -61q-7 -7 -6 -30.5t-3.5 -29.5t-32.5 -8q-37 0 -37 54z" />
    <glyph glyph-name="glyph335" unicode="&#x1ed6;" 
d="M422 723q0 -715 424 -715q250 0 359 246q79 177 79 463q0 729 -422 729q-249 0 -360 -254q-80 -183 -80 -469zM70 739q0 342 224 552q220 206 564 206q351 0 565.5 -211t214.5 -561q0 -344 -226 -558q-222 -210 -568 -210q-354 0 -564 214t-210 568zM562 1590l225 348
h148l225 -348h-84l-215 178l-215 -178h-84zM1214 2295q-29 -248 -205 -248q-37 0 -109 22.5t-110 22.5q-59 0 -90 -88h-66q34 248 211 248q35 0 106 -21.5t105 -21.5q62 0 92 86h66z" />
    <glyph glyph-name="glyph336" unicode="&#x1ed7;" horiz-adv-x="1239" 
d="M375 469q0 -449 241 -449q248 0 248 435q0 452 -250 452q-239 0 -239 -438zM53 467q0 224 179 363q165 128 395 128q234 0 391 -126q168 -136 168 -365t-175 -369q-163 -131 -397 -131q-242 0 -396 127q-165 136 -165 373zM322 1069l225 348h148l225 -348h-84l-215 178
l-215 -178h-84zM974 1773q-29 -248 -205 -248q-37 0 -109 22.5t-110 22.5q-59 0 -90 -88h-66q34 248 211 248q35 0 106 -21.5t105 -21.5q62 0 92 86h66z" />
    <glyph glyph-name="glyph337" unicode="&#x1ed8;" 
d="M422 723q0 -715 424 -715q250 0 359 246q79 177 79 463q0 729 -422 729q-249 0 -360 -254q-80 -183 -80 -469zM70 739q0 342 224 552q220 206 564 206q351 0 565.5 -211t214.5 -561q0 -344 -226 -558q-222 -210 -568 -210q-354 0 -564 214t-210 568zM562 1590l225 348
h148l225 -348h-84l-215 178l-215 -178h-84zM680 -309q0 73 48 121.5t121 48.5t123 -48.5t50 -121.5q0 -72 -50.5 -122t-122.5 -50t-120.5 50t-48.5 122z" />
    <glyph glyph-name="glyph338" unicode="&#x1ed9;" horiz-adv-x="1239" 
d="M375 469q0 -449 241 -449q248 0 248 435q0 452 -250 452q-239 0 -239 -438zM53 467q0 224 179 363q165 128 395 128q234 0 391 -126q168 -136 168 -365t-175 -369q-163 -131 -397 -131q-242 0 -396 127q-165 136 -165 373zM322 1069l225 348h148l225 -348h-84l-215 178
l-215 -178h-84zM447 -309q0 73 48 121.5t121 48.5t123 -48.5t50 -121.5q0 -72 -50.5 -122t-122.5 -50t-120.5 50t-48.5 122z" />
    <glyph glyph-name="glyph339" unicode="&#x1eda;" horiz-adv-x="1743" 
d="M422 723q0 -715 424 -715q250 0 359 246q79 177 79 463q0 729 -422 729q-249 0 -360 -254q-80 -183 -80 -469zM70 739q0 342 224 552q220 206 564 206q351 0 565.5 -211t214.5 -561q0 -344 -226 -558q-222 -210 -568 -210q-354 0 -564 214t-210 568zM1620 1353
q0 33 -28 33q-13 0 -38 -4.5t-37 -4.5q-54 0 -89.5 37.5t-35.5 91.5q0 68 43.5 118.5t110.5 50.5q86 0 136 -65q45 -60 45 -148q0 -102 -68 -214q-65 -107 -155 -163q-35 -22 -55 -22q-28 0 -28 23q0 10 99.5 111.5t99.5 155.5zM682 1610l273 281q80 82 135 82q90 0 90 -91
q0 -59 -94 -108l-313 -164h-91z" />
    <glyph glyph-name="glyph340" unicode="&#x1edb;" horiz-adv-x="1270" 
d="M375 469q0 -449 241 -449q248 0 248 435q0 452 -250 452q-239 0 -239 -438zM53 467q0 224 179 363q165 128 395 128q234 0 391 -126q168 -136 168 -365t-175 -369q-163 -131 -397 -131q-242 0 -396 127q-165 136 -165 373zM1185 917q0 33 -28 33q-13 0 -38 -4.5t-37 -4.5
q-54 0 -89.5 37.5t-35.5 91.5q0 68 43.5 118.5t110.5 50.5q86 0 136 -65q45 -60 45 -148q0 -102 -68 -214q-65 -107 -155 -163q-35 -22 -55 -22q-28 0 -28 23q0 10 99.5 111.5t99.5 155.5zM426 1069l273 281q80 82 135 82q90 0 90 -91q0 -59 -94 -108l-313 -164h-91z" />
    <glyph glyph-name="glyph341" unicode="&#x1edc;" horiz-adv-x="1743" 
d="M422 723q0 -715 424 -715q250 0 359 246q79 177 79 463q0 729 -422 729q-249 0 -360 -254q-80 -183 -80 -469zM70 739q0 342 224 552q220 206 564 206q351 0 565.5 -211t214.5 -561q0 -344 -226 -558q-222 -210 -568 -210q-354 0 -564 214t-210 568zM1620 1353
q0 33 -28 33q-13 0 -38 -4.5t-37 -4.5q-54 0 -89.5 37.5t-35.5 91.5q0 68 43.5 118.5t110.5 50.5q86 0 136 -65q45 -60 45 -148q0 -102 -68 -214q-65 -107 -155 -163q-35 -22 -55 -22q-28 0 -28 23q0 10 99.5 111.5t99.5 155.5zM1072 1610h-91l-313 164q-94 49 -94 108
q0 91 90 91q55 0 135 -82z" />
    <glyph glyph-name="glyph342" unicode="&#x1edd;" horiz-adv-x="1270" 
d="M375 469q0 -449 241 -449q248 0 248 435q0 452 -250 452q-239 0 -239 -438zM53 467q0 224 179 363q165 128 395 128q234 0 391 -126q168 -136 168 -365t-175 -369q-163 -131 -397 -131q-242 0 -396 127q-165 136 -165 373zM1185 917q0 33 -28 33q-13 0 -38 -4.5t-37 -4.5
q-54 0 -89.5 37.5t-35.5 91.5q0 68 43.5 118.5t110.5 50.5q86 0 136 -65q45 -60 45 -148q0 -102 -68 -214q-65 -107 -155 -163q-35 -22 -55 -22q-28 0 -28 23q0 10 99.5 111.5t99.5 155.5zM816 1069h-91l-313 164q-94 49 -94 108q0 91 90 91q55 0 135 -82z" />
    <glyph glyph-name="glyph343" unicode="&#x1ede;" horiz-adv-x="1743" 
d="M422 723q0 -715 424 -715q250 0 359 246q79 177 79 463q0 729 -422 729q-249 0 -360 -254q-80 -183 -80 -469zM70 739q0 342 224 552q220 206 564 206q351 0 565.5 -211t214.5 -561q0 -344 -226 -558q-222 -210 -568 -210q-354 0 -564 214t-210 568zM1620 1353
q0 33 -28 33q-13 0 -38 -4.5t-37 -4.5q-54 0 -89.5 37.5t-35.5 91.5q0 68 43.5 118.5t110.5 50.5q86 0 136 -65q45 -60 45 -148q0 -102 -68 -214q-65 -107 -155 -163q-35 -22 -55 -22q-28 0 -28 23q0 10 99.5 111.5t99.5 155.5zM802 1628q0 35 8 54q28 31 56 61
q44 51 44 104q0 34 -24.5 57t-51.5 23q-46 0 -78 -22.5t-32 -50.5q0 -32 20 -32q19 0 12 29q35 -5 35 -43q0 -44 -53 -44q-26 0 -44 22t-18 47q0 79 57.5 131.5t144.5 52.5q81 0 136 -41q63 -47 63 -133t-85 -140q-55 -31 -111 -61q-7 -7 -6 -30.5t-3.5 -29.5t-32.5 -8
q-37 0 -37 54z" />
    <glyph glyph-name="glyph344" unicode="&#x1edf;" horiz-adv-x="1270" 
d="M375 469q0 -449 241 -449q248 0 248 435q0 452 -250 452q-239 0 -239 -438zM53 467q0 224 179 363q165 128 395 128q234 0 391 -126q168 -136 168 -365t-175 -369q-163 -131 -397 -131q-242 0 -396 127q-165 136 -165 373zM1185 917q0 33 -28 33q-13 0 -38 -4.5t-37 -4.5
q-54 0 -89.5 37.5t-35.5 91.5q0 68 43.5 118.5t110.5 50.5q86 0 136 -65q45 -60 45 -148q0 -102 -68 -214q-65 -107 -155 -163q-35 -22 -55 -22q-28 0 -28 23q0 10 99.5 111.5t99.5 155.5zM571 1111q0 35 8 54q28 31 56 61q44 51 44 104q0 34 -24.5 57t-51.5 23
q-46 0 -78 -22.5t-32 -50.5q0 -32 20 -32q19 0 12 29q35 -5 35 -43q0 -44 -53 -44q-26 0 -44 22t-18 47q0 79 57.5 131.5t144.5 52.5q81 0 136 -41q63 -47 63 -133t-85 -140q-55 -31 -111 -61q-7 -7 -6 -30.5t-3.5 -29.5t-32.5 -8q-37 0 -37 54z" />
    <glyph glyph-name="glyph345" unicode="&#x1ee0;" horiz-adv-x="1743" 
d="M422 723q0 -715 424 -715q250 0 359 246q79 177 79 463q0 729 -422 729q-249 0 -360 -254q-80 -183 -80 -469zM70 739q0 342 224 552q220 206 564 206q351 0 565.5 -211t214.5 -561q0 -344 -226 -558q-222 -210 -568 -210q-354 0 -564 214t-210 568zM1620 1353
q0 33 -28 33q-13 0 -38 -4.5t-37 -4.5q-54 0 -89.5 37.5t-35.5 91.5q0 68 43.5 118.5t110.5 50.5q86 0 136 -65q45 -60 45 -148q0 -102 -68 -214q-65 -107 -155 -163q-35 -22 -55 -22q-28 0 -28 23q0 10 99.5 111.5t99.5 155.5zM1166 1932q-29 -248 -205 -248
q-37 0 -109 22.5t-110 22.5q-59 0 -90 -88h-66q34 248 211 248q35 0 106 -21.5t105 -21.5q62 0 92 86h66z" />
    <glyph glyph-name="glyph346" unicode="&#x1ee1;" horiz-adv-x="1270" 
d="M375 469q0 -449 241 -449q248 0 248 435q0 452 -250 452q-239 0 -239 -438zM53 467q0 224 179 363q165 128 395 128q234 0 391 -126q168 -136 168 -365t-175 -369q-163 -131 -397 -131q-242 0 -396 127q-165 136 -165 373zM1185 917q0 33 -28 33q-13 0 -38 -4.5t-37 -4.5
q-54 0 -89.5 37.5t-35.5 91.5q0 68 43.5 118.5t110.5 50.5q86 0 136 -65q45 -60 45 -148q0 -102 -68 -214q-65 -107 -155 -163q-35 -22 -55 -22q-28 0 -28 23q0 10 99.5 111.5t99.5 155.5zM910 1391q-29 -248 -205 -248q-37 0 -109 22.5t-110 22.5q-59 0 -90 -88h-66
q34 248 211 248q35 0 106 -21.5t105 -21.5q62 0 92 86h66z" />
    <glyph glyph-name="glyph347" unicode="&#x1ee2;" horiz-adv-x="1743" 
d="M422 723q0 -715 424 -715q250 0 359 246q79 177 79 463q0 729 -422 729q-249 0 -360 -254q-80 -183 -80 -469zM70 739q0 342 224 552q220 206 564 206q351 0 565.5 -211t214.5 -561q0 -344 -226 -558q-222 -210 -568 -210q-354 0 -564 214t-210 568zM1620 1353
q0 33 -28 33q-13 0 -38 -4.5t-37 -4.5q-54 0 -89.5 37.5t-35.5 91.5q0 68 43.5 118.5t110.5 50.5q86 0 136 -65q45 -60 45 -148q0 -102 -68 -214q-65 -107 -155 -163q-35 -22 -55 -22q-28 0 -28 23q0 10 99.5 111.5t99.5 155.5zM680 -309q0 73 48 121.5t121 48.5t123 -48.5
t50 -121.5q0 -72 -50.5 -122t-122.5 -50t-120.5 50t-48.5 122z" />
    <glyph glyph-name="glyph348" unicode="&#x1ee3;" horiz-adv-x="1270" 
d="M375 469q0 -449 241 -449q248 0 248 435q0 452 -250 452q-239 0 -239 -438zM53 467q0 224 179 363q165 128 395 128q234 0 391 -126q168 -136 168 -365t-175 -369q-163 -131 -397 -131q-242 0 -396 127q-165 136 -165 373zM1185 917q0 33 -28 33q-13 0 -38 -4.5t-37 -4.5
q-54 0 -89.5 37.5t-35.5 91.5q0 68 43.5 118.5t110.5 50.5q86 0 136 -65q45 -60 45 -148q0 -102 -68 -214q-65 -107 -155 -163q-35 -22 -55 -22q-28 0 -28 23q0 10 99.5 111.5t99.5 155.5zM447 -309q0 73 48 121.5t121 48.5t123 -48.5t50 -121.5q0 -72 -50.5 -122
t-122.5 -50t-120.5 50t-48.5 122z" />
    <glyph glyph-name="glyph349" unicode="&#x1ee4;" horiz-adv-x="1677" 
d="M8 1427q0 29 55 29h715q64 0 64 -29q0 -25 -67 -32q-141 -15 -180 -91q-34 -67 -34 -299v-621q0 -82 11 -132q49 -225 368 -225q234 0 335 117q95 109 95 348v526q0 172 -40 260q-29 64 -74 89q-36 20 -113 28q-62 6 -62 32q0 29 58 29h473q63 0 63 -29q0 -20 -33 -26
l-48 -6q-79 -15 -121.5 -110.5t-42.5 -262.5v-561q0 -279 -153 -396q-135 -102 -425 -102q-182 0 -326 51q-188 67 -243 204q-29 70 -29 216v555q0 238 -24 301q-36 93 -167 106q-55 5 -55 31zM690 -309q0 73 48 121.5t121 48.5t123 -48.5t50 -121.5q0 -72 -50.5 -122
t-122.5 -50t-120.5 50t-48.5 122z" />
    <glyph glyph-name="glyph350" unicode="&#x1ee5;" horiz-adv-x="1284" 
d="M-27 793q0 23 69 32q177 22 348 106q35 17 42 17q21 0 21 -30v-639q0 -93 13 -126q24 -57 101 -57q50 0 119 37q55 33 109 66v419q0 83 -33 118q-29 30 -107 33q-65 3 -65 24q0 23 69 32q176 22 347 106q35 17 43 17q20 0 20 -30v-707q0 -124 91 -150q26 -5 52 -9
q35 -9 35 -27q0 -25 -49 -25h-348q-47 0 -53 25q-2 10 -2 30v80q-146 -88 -192 -110q-114 -54 -212 -54q-125 0 -174 71q-39 58 -39 191v385q0 83 -33 118q-30 31 -107 33q-65 3 -65 24zM460 -309q0 73 48 121.5t121 48.5t123 -48.5t50 -121.5q0 -72 -50.5 -122t-122.5 -50
t-120.5 50t-48.5 122z" />
    <glyph glyph-name="glyph351" unicode="&#x1ee6;" horiz-adv-x="1677" 
d="M8 1427q0 29 55 29h715q64 0 64 -29q0 -25 -67 -32q-141 -15 -180 -91q-34 -67 -34 -299v-621q0 -82 11 -132q49 -225 368 -225q234 0 335 117q95 109 95 348v526q0 172 -40 260q-29 64 -74 89q-36 20 -113 28q-62 6 -62 32q0 29 58 29h473q63 0 63 -29q0 -20 -33 -26
l-48 -6q-79 -15 -121.5 -110.5t-42.5 -262.5v-561q0 -279 -153 -396q-135 -102 -425 -102q-182 0 -326 51q-188 67 -243 204q-29 70 -29 216v555q0 238 -24 301q-36 93 -167 106q-55 5 -55 31zM882 1628q0 35 8 54q28 31 56 61q44 51 44 104q0 34 -24.5 57t-51.5 23
q-46 0 -78 -22.5t-32 -50.5q0 -32 20 -32q19 0 12 29q35 -5 35 -43q0 -44 -53 -44q-26 0 -44 22t-18 47q0 79 57.5 131.5t144.5 52.5q81 0 136 -41q63 -47 63 -133t-85 -140q-55 -31 -111 -61q-7 -7 -6 -30.5t-3.5 -29.5t-32.5 -8q-37 0 -37 54z" />
    <glyph glyph-name="glyph352" unicode="&#x1ee7;" horiz-adv-x="1284" 
d="M-27 793q0 23 69 32q177 22 348 106q35 17 42 17q21 0 21 -30v-639q0 -93 13 -126q24 -57 101 -57q50 0 119 37q55 33 109 66v419q0 83 -33 118q-29 30 -107 33q-65 3 -65 24q0 23 69 32q176 22 347 106q35 17 43 17q20 0 20 -30v-707q0 -124 91 -150q26 -5 52 -9
q35 -9 35 -27q0 -25 -49 -25h-348q-47 0 -53 25q-2 10 -2 30v80q-146 -88 -192 -110q-114 -54 -212 -54q-125 0 -174 71q-39 58 -39 191v385q0 83 -33 118q-30 31 -107 33q-65 3 -65 24zM561 1111q0 35 8 54q28 31 56 61q44 51 44 104q0 34 -24.5 57t-51.5 23
q-46 0 -78 -22.5t-32 -50.5q0 -32 20 -32q19 0 12 29q35 -5 35 -43q0 -44 -53 -44q-26 0 -44 22t-18 47q0 79 57.5 131.5t144.5 52.5q81 0 136 -41q63 -47 63 -133t-85 -140q-55 -31 -111 -61q-7 -7 -6 -30.5t-3.5 -29.5t-32.5 -8q-37 0 -37 54z" />
    <glyph glyph-name="glyph353" unicode="&#x1ee8;" horiz-adv-x="1727" 
d="M8 1427q0 29 55 29h715q64 0 64 -29q0 -25 -67 -32q-141 -15 -180 -91q-34 -67 -34 -299v-621q0 -82 11 -132q49 -225 368 -225q234 0 335 117q95 109 95 348v526q0 172 -40 260q-29 64 -74 89q-36 20 -113 28q-62 6 -62 32q0 29 58 29h473q63 0 63 -29q0 -20 -33 -26
l-48 -6q-79 -15 -121.5 -110.5t-42.5 -262.5v-561q0 -279 -153 -396q-135 -102 -425 -102q-182 0 -326 51q-188 67 -243 204q-29 70 -29 216v555q0 238 -24 301q-36 93 -167 106q-55 5 -55 31zM1620 1353q0 33 -28 33q-13 0 -38 -4.5t-37 -4.5q-54 0 -89.5 37.5t-35.5 91.5
q0 68 43.5 118.5t110.5 50.5q86 0 136 -65q45 -60 45 -148q0 -102 -68 -214q-65 -107 -155 -163q-35 -22 -55 -22q-28 0 -28 23q0 10 99.5 111.5t99.5 155.5zM747 1610l273 281q80 82 135 82q90 0 90 -91q0 -59 -94 -108l-313 -164h-91z" />
    <glyph glyph-name="glyph354" unicode="&#x1ee9;" horiz-adv-x="1347" 
d="M-27 793q0 23 69 32q177 22 348 106q35 17 42 17q21 0 21 -30v-639q0 -93 13 -126q24 -57 101 -57q50 0 119 37q55 33 109 66v419q0 83 -33 118q-29 30 -107 33q-65 3 -65 24q0 23 69 32q176 22 347 106q35 17 43 17q20 0 20 -30v-707q0 -124 91 -150q26 -5 52 -9
q35 -9 35 -27q0 -25 -49 -25h-348q-47 0 -53 25q-2 10 -2 30v80q-146 -88 -192 -110q-114 -54 -212 -54q-125 0 -174 71q-39 58 -39 191v385q0 83 -33 118q-30 31 -107 33q-65 3 -65 24zM1252 917q0 33 -28 33q-13 0 -38 -4.5t-37 -4.5q-54 0 -89.5 37.5t-35.5 91.5
q0 68 43.5 118.5t110.5 50.5q86 0 136 -65q45 -60 45 -148q0 -102 -68 -214q-65 -107 -155 -163q-35 -22 -55 -22q-28 0 -28 23q0 10 99.5 111.5t99.5 155.5zM405 1069l273 281q80 82 135 82q90 0 90 -91q0 -59 -94 -108l-313 -164h-91z" />
    <glyph glyph-name="glyph355" unicode="&#x1eea;" horiz-adv-x="1727" 
d="M8 1427q0 29 55 29h715q64 0 64 -29q0 -25 -67 -32q-141 -15 -180 -91q-34 -67 -34 -299v-621q0 -82 11 -132q49 -225 368 -225q234 0 335 117q95 109 95 348v526q0 172 -40 260q-29 64 -74 89q-36 20 -113 28q-62 6 -62 32q0 29 58 29h473q63 0 63 -29q0 -20 -33 -26
l-48 -6q-79 -15 -121.5 -110.5t-42.5 -262.5v-561q0 -279 -153 -396q-135 -102 -425 -102q-182 0 -326 51q-188 67 -243 204q-29 70 -29 216v555q0 238 -24 301q-36 93 -167 106q-55 5 -55 31zM1620 1353q0 33 -28 33q-13 0 -38 -4.5t-37 -4.5q-54 0 -89.5 37.5t-35.5 91.5
q0 68 43.5 118.5t110.5 50.5q86 0 136 -65q45 -60 45 -148q0 -102 -68 -214q-65 -107 -155 -163q-35 -22 -55 -22q-28 0 -28 23q0 10 99.5 111.5t99.5 155.5zM1137 1610h-91l-313 164q-94 49 -94 108q0 91 90 91q55 0 135 -82z" />
    <glyph glyph-name="glyph356" unicode="&#x1eeb;" horiz-adv-x="1347" 
d="M-27 793q0 23 69 32q177 22 348 106q35 17 42 17q21 0 21 -30v-639q0 -93 13 -126q24 -57 101 -57q50 0 119 37q55 33 109 66v419q0 83 -33 118q-29 30 -107 33q-65 3 -65 24q0 23 69 32q176 22 347 106q35 17 43 17q20 0 20 -30v-707q0 -124 91 -150q26 -5 52 -9
q35 -9 35 -27q0 -25 -49 -25h-348q-47 0 -53 25q-2 10 -2 30v80q-146 -88 -192 -110q-114 -54 -212 -54q-125 0 -174 71q-39 58 -39 191v385q0 83 -33 118q-30 31 -107 33q-65 3 -65 24zM1252 917q0 33 -28 33q-13 0 -38 -4.5t-37 -4.5q-54 0 -89.5 37.5t-35.5 91.5
q0 68 43.5 118.5t110.5 50.5q86 0 136 -65q45 -60 45 -148q0 -102 -68 -214q-65 -107 -155 -163q-35 -22 -55 -22q-28 0 -28 23q0 10 99.5 111.5t99.5 155.5zM795 1069h-91l-313 164q-94 49 -94 108q0 91 90 91q55 0 135 -82z" />
    <glyph glyph-name="glyph357" unicode="&#x1eec;" horiz-adv-x="1727" 
d="M8 1427q0 29 55 29h715q64 0 64 -29q0 -25 -67 -32q-141 -15 -180 -91q-34 -67 -34 -299v-621q0 -82 11 -132q49 -225 368 -225q234 0 335 117q95 109 95 348v526q0 172 -40 260q-29 64 -74 89q-36 20 -113 28q-62 6 -62 32q0 29 58 29h473q63 0 63 -29q0 -20 -33 -26
l-48 -6q-79 -15 -121.5 -110.5t-42.5 -262.5v-561q0 -279 -153 -396q-135 -102 -425 -102q-182 0 -326 51q-188 67 -243 204q-29 70 -29 216v555q0 238 -24 301q-36 93 -167 106q-55 5 -55 31zM1620 1353q0 33 -28 33q-13 0 -38 -4.5t-37 -4.5q-54 0 -89.5 37.5t-35.5 91.5
q0 68 43.5 118.5t110.5 50.5q86 0 136 -65q45 -60 45 -148q0 -102 -68 -214q-65 -107 -155 -163q-35 -22 -55 -22q-28 0 -28 23q0 10 99.5 111.5t99.5 155.5zM882 1628q0 35 8 54q28 31 56 61q44 51 44 104q0 34 -24.5 57t-51.5 23q-46 0 -78 -22.5t-32 -50.5q0 -32 20 -32
q19 0 12 29q35 -5 35 -43q0 -44 -53 -44q-26 0 -44 22t-18 47q0 79 57.5 131.5t144.5 52.5q81 0 136 -41q63 -47 63 -133t-85 -140q-55 -31 -111 -61q-7 -7 -6 -30.5t-3.5 -29.5t-32.5 -8q-37 0 -37 54z" />
    <glyph glyph-name="glyph358" unicode="&#x1eed;" horiz-adv-x="1347" 
d="M-27 793q0 23 69 32q177 22 348 106q35 17 42 17q21 0 21 -30v-639q0 -93 13 -126q24 -57 101 -57q50 0 119 37q55 33 109 66v419q0 83 -33 118q-29 30 -107 33q-65 3 -65 24q0 23 69 32q176 22 347 106q35 17 43 17q20 0 20 -30v-707q0 -124 91 -150q26 -5 52 -9
q35 -9 35 -27q0 -25 -49 -25h-348q-47 0 -53 25q-2 10 -2 30v80q-146 -88 -192 -110q-114 -54 -212 -54q-125 0 -174 71q-39 58 -39 191v385q0 83 -33 118q-30 31 -107 33q-65 3 -65 24zM1252 917q0 33 -28 33q-13 0 -38 -4.5t-37 -4.5q-54 0 -89.5 37.5t-35.5 91.5
q0 68 43.5 118.5t110.5 50.5q86 0 136 -65q45 -60 45 -148q0 -102 -68 -214q-65 -107 -155 -163q-35 -22 -55 -22q-28 0 -28 23q0 10 99.5 111.5t99.5 155.5zM561 1111q0 35 8 54q28 31 56 61q44 51 44 104q0 34 -24.5 57t-51.5 23q-46 0 -78 -22.5t-32 -50.5q0 -32 20 -32
q19 0 12 29q35 -5 35 -43q0 -44 -53 -44q-26 0 -44 22t-18 47q0 79 57.5 131.5t144.5 52.5q81 0 136 -41q63 -47 63 -133t-85 -140q-55 -31 -111 -61q-7 -7 -6 -30.5t-3.5 -29.5t-32.5 -8q-37 0 -37 54z" />
    <glyph glyph-name="glyph359" unicode="&#x1eee;" horiz-adv-x="1727" 
d="M8 1427q0 29 55 29h715q64 0 64 -29q0 -25 -67 -32q-141 -15 -180 -91q-34 -67 -34 -299v-621q0 -82 11 -132q49 -225 368 -225q234 0 335 117q95 109 95 348v526q0 172 -40 260q-29 64 -74 89q-36 20 -113 28q-62 6 -62 32q0 29 58 29h473q63 0 63 -29q0 -20 -33 -26
l-48 -6q-79 -15 -121.5 -110.5t-42.5 -262.5v-561q0 -279 -153 -396q-135 -102 -425 -102q-182 0 -326 51q-188 67 -243 204q-29 70 -29 216v555q0 238 -24 301q-36 93 -167 106q-55 5 -55 31zM1620 1353q0 33 -28 33q-13 0 -38 -4.5t-37 -4.5q-54 0 -89.5 37.5t-35.5 91.5
q0 68 43.5 118.5t110.5 50.5q86 0 136 -65q45 -60 45 -148q0 -102 -68 -214q-65 -107 -155 -163q-35 -22 -55 -22q-28 0 -28 23q0 10 99.5 111.5t99.5 155.5zM1226 1932q-29 -248 -205 -248q-37 0 -109 22.5t-110 22.5q-59 0 -90 -88h-66q34 248 211 248q35 0 106 -21.5
t105 -21.5q62 0 92 86h66z" />
    <glyph glyph-name="glyph360" unicode="&#x1eef;" horiz-adv-x="1347" 
d="M-27 793q0 23 69 32q177 22 348 106q35 17 42 17q21 0 21 -30v-639q0 -93 13 -126q24 -57 101 -57q50 0 119 37q55 33 109 66v419q0 83 -33 118q-29 30 -107 33q-65 3 -65 24q0 23 69 32q176 22 347 106q35 17 43 17q20 0 20 -30v-707q0 -124 91 -150q26 -5 52 -9
q35 -9 35 -27q0 -25 -49 -25h-348q-47 0 -53 25q-2 10 -2 30v80q-146 -88 -192 -110q-114 -54 -212 -54q-125 0 -174 71q-39 58 -39 191v385q0 83 -33 118q-30 31 -107 33q-65 3 -65 24zM1252 917q0 33 -28 33q-13 0 -38 -4.5t-37 -4.5q-54 0 -89.5 37.5t-35.5 91.5
q0 68 43.5 118.5t110.5 50.5q86 0 136 -65q45 -60 45 -148q0 -102 -68 -214q-65 -107 -155 -163q-35 -22 -55 -22q-28 0 -28 23q0 10 99.5 111.5t99.5 155.5zM890 1391q-29 -248 -205 -248q-37 0 -109 22.5t-110 22.5q-59 0 -90 -88h-66q34 248 211 248q35 0 106 -21.5
t105 -21.5q62 0 92 86h66z" />
    <glyph glyph-name="glyph361" unicode="&#x1ef0;" horiz-adv-x="1727" 
d="M8 1427q0 29 55 29h715q64 0 64 -29q0 -25 -67 -32q-141 -15 -180 -91q-34 -67 -34 -299v-621q0 -82 11 -132q49 -225 368 -225q234 0 335 117q95 109 95 348v526q0 172 -40 260q-29 64 -74 89q-36 20 -113 28q-62 6 -62 32q0 29 58 29h473q63 0 63 -29q0 -20 -33 -26
l-48 -6q-79 -15 -121.5 -110.5t-42.5 -262.5v-561q0 -279 -153 -396q-135 -102 -425 -102q-182 0 -326 51q-188 67 -243 204q-29 70 -29 216v555q0 238 -24 301q-36 93 -167 106q-55 5 -55 31zM1620 1353q0 33 -28 33q-13 0 -38 -4.5t-37 -4.5q-54 0 -89.5 37.5t-35.5 91.5
q0 68 43.5 118.5t110.5 50.5q86 0 136 -65q45 -60 45 -148q0 -102 -68 -214q-65 -107 -155 -163q-35 -22 -55 -22q-28 0 -28 23q0 10 99.5 111.5t99.5 155.5zM690 -309q0 73 48 121.5t121 48.5t123 -48.5t50 -121.5q0 -72 -50.5 -122t-122.5 -50t-120.5 50t-48.5 122z" />
    <glyph glyph-name="glyph362" unicode="&#x1ef1;" horiz-adv-x="1347" 
d="M-27 793q0 23 69 32q177 22 348 106q35 17 42 17q21 0 21 -30v-639q0 -93 13 -126q24 -57 101 -57q50 0 119 37q55 33 109 66v419q0 83 -33 118q-29 30 -107 33q-65 3 -65 24q0 23 69 32q176 22 347 106q35 17 43 17q20 0 20 -30v-707q0 -124 91 -150q26 -5 52 -9
q35 -9 35 -27q0 -25 -49 -25h-348q-47 0 -53 25q-2 10 -2 30v80q-146 -88 -192 -110q-114 -54 -212 -54q-125 0 -174 71q-39 58 -39 191v385q0 83 -33 118q-30 31 -107 33q-65 3 -65 24zM1252 917q0 33 -28 33q-13 0 -38 -4.5t-37 -4.5q-54 0 -89.5 37.5t-35.5 91.5
q0 68 43.5 118.5t110.5 50.5q86 0 136 -65q45 -60 45 -148q0 -102 -68 -214q-65 -107 -155 -163q-35 -22 -55 -22q-28 0 -28 23q0 10 99.5 111.5t99.5 155.5zM460 -309q0 73 48 121.5t121 48.5t123 -48.5t50 -121.5q0 -72 -50.5 -122t-122.5 -50t-120.5 50t-48.5 122z" />
    <glyph glyph-name="glyph363" unicode="&#x1ef2;" horiz-adv-x="1450" 
d="M852 452q0 -219 28 -285q39 -96 193 -108q62 -5 62 -30q0 -29 -64 -29h-743q-64 0 -64 29q0 25 67 32q142 14 180 91q34 69 34 299v208l-328 525q-34 56 -114 155q-44 41 -91 50l-64 8q-46 8 -46 30q0 29 59 29h686q64 0 64 -29q0 -22 -51 -27q-78 -8 -95 -14
q-51 -18 -51 -71q0 -24 35 -82l285 -469l217 317q90 131 90 205q0 55 -29 79q-26 21 -122 32q-81 9 -81 30q0 29 58 29h516q63 0 63 -29q0 -23 -56 -34q-109 -22 -194 -97q-79 -71 -190 -233l-254 -371v-240zM977 1610h-91l-313 164q-94 49 -94 108q0 91 90 91q55 0 135 -82
z" />
    <glyph glyph-name="glyph364" unicode="&#x1ef3;" horiz-adv-x="1028" 
d="M-82 901q0 23 55 23h572q53 0 53 -23q0 -22 -85 -40.5t-85 -65.5q0 -28 23 -84l176 -428l129 288q53 118 53 193q0 54 -41 79q-16 10 -76 26q-41 12 -41 32q0 23 54 23h354q53 0 53 -23q0 -18 -40 -31q-90 -30 -151 -111q-55 -72 -102 -175l-164 -361q44 -41 88 -84
q0 -5 -74 -42.5t-124 -108.5q-23 -33 -68 -128q-70 -149 -120 -212q-90 -113 -201 -113q-79 0 -128 42q-53 45 -53 122q0 66 42.5 105.5t109.5 39.5q51 0 112.5 -56t84.5 -56q64 0 147 248l-309 706q-69 157 -157 178q-26 5 -51 10q-36 9 -36 27zM795 1069h-91l-313 164
q-94 49 -94 108q0 91 90 91q55 0 135 -82z" />
    <glyph glyph-name="glyph365" unicode="&#x1ef4;" horiz-adv-x="1450" 
d="M852 452q0 -219 28 -285q39 -96 193 -108q62 -5 62 -30q0 -29 -64 -29h-743q-64 0 -64 29q0 25 67 32q142 14 180 91q34 69 34 299v208l-328 525q-34 56 -114 155q-44 41 -91 50l-64 8q-46 8 -46 30q0 29 59 29h686q64 0 64 -29q0 -22 -51 -27q-78 -8 -95 -14
q-51 -18 -51 -71q0 -24 35 -82l285 -469l217 317q90 131 90 205q0 55 -29 79q-26 21 -122 32q-81 9 -81 30q0 29 58 29h516q63 0 63 -29q0 -23 -56 -34q-109 -22 -194 -97q-79 -71 -190 -233l-254 -371v-240zM534 -309q0 73 48 121.5t121 48.5t123 -48.5t50 -121.5
q0 -72 -50.5 -122t-122.5 -50t-120.5 50t-48.5 122z" />
    <glyph glyph-name="glyph366" unicode="&#x1ef5;" horiz-adv-x="1028" 
d="M-82 901q0 23 55 23h572q53 0 53 -23q0 -22 -85 -40.5t-85 -65.5q0 -28 23 -84l176 -428l129 288q53 118 53 193q0 54 -41 79q-16 10 -76 26q-41 12 -41 32q0 23 54 23h354q53 0 53 -23q0 -18 -40 -31q-90 -30 -151 -111q-55 -72 -102 -175l-164 -361q44 -41 88 -84
q0 -5 -74 -42.5t-124 -108.5q-23 -33 -68 -128q-70 -149 -120 -212q-90 -113 -201 -113q-79 0 -128 42q-53 45 -53 122q0 66 42.5 105.5t109.5 39.5q51 0 112.5 -56t84.5 -56q64 0 147 248l-309 706q-69 157 -157 178q-26 5 -51 10q-36 9 -36 27zM540 -309q0 73 48 121.5
t121 48.5t123 -48.5t50 -121.5q0 -72 -50.5 -122t-122.5 -50t-120.5 50t-48.5 122z" />
    <glyph glyph-name="glyph367" unicode="&#x1ef6;" horiz-adv-x="1450" 
d="M852 452q0 -219 28 -285q39 -96 193 -108q62 -5 62 -30q0 -29 -64 -29h-743q-64 0 -64 29q0 25 67 32q142 14 180 91q34 69 34 299v208l-328 525q-34 56 -114 155q-44 41 -91 50l-64 8q-46 8 -46 30q0 29 59 29h686q64 0 64 -29q0 -22 -51 -27q-78 -8 -95 -14
q-51 -18 -51 -71q0 -24 35 -82l285 -469l217 317q90 131 90 205q0 55 -29 79q-26 21 -122 32q-81 9 -81 30q0 29 58 29h516q63 0 63 -29q0 -23 -56 -34q-109 -22 -194 -97q-79 -71 -190 -233l-254 -371v-240zM742 1628q0 35 8 54q28 31 56 61q44 51 44 104q0 34 -24.5 57
t-51.5 23q-46 0 -78 -22.5t-32 -50.5q0 -32 20 -32q19 0 12 29q35 -5 35 -43q0 -44 -53 -44q-26 0 -44 22t-18 47q0 79 57.5 131.5t144.5 52.5q81 0 136 -41q63 -47 63 -133t-85 -140q-55 -31 -111 -61q-7 -7 -6 -30.5t-3.5 -29.5t-32.5 -8q-37 0 -37 54z" />
    <glyph glyph-name="glyph368" unicode="&#x1ef7;" horiz-adv-x="1028" 
d="M-82 901q0 23 55 23h572q53 0 53 -23q0 -22 -85 -40.5t-85 -65.5q0 -28 23 -84l176 -428l129 288q53 118 53 193q0 54 -41 79q-16 10 -76 26q-41 12 -41 32q0 23 54 23h354q53 0 53 -23q0 -18 -40 -31q-90 -30 -151 -111q-55 -72 -102 -175l-164 -361q44 -41 88 -84
q0 -5 -74 -42.5t-124 -108.5q-23 -33 -68 -128q-70 -149 -120 -212q-90 -113 -201 -113q-79 0 -128 42q-53 45 -53 122q0 66 42.5 105.5t109.5 39.5q51 0 112.5 -56t84.5 -56q64 0 147 248l-309 706q-69 157 -157 178q-26 5 -51 10q-36 9 -36 27zM561 1111q0 35 8 54
q28 31 56 61q44 51 44 104q0 34 -24.5 57t-51.5 23q-46 0 -78 -22.5t-32 -50.5q0 -32 20 -32q19 0 12 29q35 -5 35 -43q0 -44 -53 -44q-26 0 -44 22t-18 47q0 79 57.5 131.5t144.5 52.5q81 0 136 -41q63 -47 63 -133t-85 -140q-55 -31 -111 -61q-7 -7 -6 -30.5t-3.5 -29.5
t-32.5 -8q-37 0 -37 54z" />
    <glyph glyph-name="glyph369" unicode="&#x1ef8;" horiz-adv-x="1450" 
d="M852 452q0 -219 28 -285q39 -96 193 -108q62 -5 62 -30q0 -29 -64 -29h-743q-64 0 -64 29q0 25 67 32q142 14 180 91q34 69 34 299v208l-328 525q-34 56 -114 155q-44 41 -91 50l-64 8q-46 8 -46 30q0 29 59 29h686q64 0 64 -29q0 -22 -51 -27q-78 -8 -95 -14
q-51 -18 -51 -71q0 -24 35 -82l285 -469l217 317q90 131 90 205q0 55 -29 79q-26 21 -122 32q-81 9 -81 30q0 29 58 29h516q63 0 63 -29q0 -23 -56 -34q-109 -22 -194 -97q-79 -71 -190 -233l-254 -371v-240zM1096 1932q-29 -248 -205 -248q-37 0 -109 22.5t-110 22.5
q-59 0 -90 -88h-66q34 248 211 248q35 0 106 -21.5t105 -21.5q62 0 92 86h66z" />
    <glyph glyph-name="glyph370" unicode="&#x1ef9;" horiz-adv-x="1028" 
d="M-82 901q0 23 55 23h572q53 0 53 -23q0 -22 -85 -40.5t-85 -65.5q0 -28 23 -84l176 -428l129 288q53 118 53 193q0 54 -41 79q-16 10 -76 26q-41 12 -41 32q0 23 54 23h354q53 0 53 -23q0 -18 -40 -31q-90 -30 -151 -111q-55 -72 -102 -175l-164 -361q44 -41 88 -84
q0 -5 -74 -42.5t-124 -108.5q-23 -33 -68 -128q-70 -149 -120 -212q-90 -113 -201 -113q-79 0 -128 42q-53 45 -53 122q0 66 42.5 105.5t109.5 39.5q51 0 112.5 -56t84.5 -56q64 0 147 248l-309 706q-69 157 -157 178q-26 5 -51 10q-36 9 -36 27zM890 1391
q-29 -248 -205 -248q-37 0 -109 22.5t-110 22.5q-59 0 -90 -88h-66q34 248 211 248q35 0 106 -21.5t105 -21.5q62 0 92 86h66z" />
    </font>
</defs>
</svg>
